<svg xmlns="http://www.w3.org/2000/svg" fill="none" viewBox="0 0 264 84">
  <path fill="#4998C9" d="M0 0h264v84H0z"/>
  <path fill="#000" fill-opacity=".26" d="M0 0h264v84H0z"/>
  <g opacity=".2" style="mix-blend-mode:multiply">
    <path fill="#4998C9" fill-rule="evenodd" d="M155.122 15.305c7.116-4.33 15.569-6.035 23.522-3.456 8.634 2.8 16.403 8.71 19.295 17.34 2.962 8.839.006 18.117-4.741 26.09-5.214 8.756-11.854 18.55-22.04 18.883-9.972.326-16.721-9.329-22.639-17.424-4.864-6.652-7.878-14.431-6.584-22.549 1.275-7.999 6.295-14.69 13.187-18.884z" clip-rule="evenodd"/>
    <path fill="#fff" fill-opacity=".16" fill-rule="evenodd" d="M155.122 15.305c7.116-4.33 15.569-6.035 23.522-3.456 8.634 2.8 16.403 8.71 19.295 17.34 2.962 8.839.006 18.117-4.741 26.09-5.214 8.756-11.854 18.55-22.04 18.883-9.972.326-16.721-9.329-22.639-17.424-4.864-6.652-7.878-14.431-6.584-22.549 1.275-7.999 6.295-14.69 13.187-18.884z" clip-rule="evenodd"/>
  </g>
  <path fill="#4998C9" fill-rule="evenodd" d="M173.358 33.012c21.879-.246 46.687 3.134 54.479 23.432 8.763 22.83-1.428 48.499-21.375 62.808-19.786 14.194-46.613 14.453-66.237.041-19.133-14.051-26.152-39.588-17.674-61.665 7.422-19.327 29.974-24.382 50.807-24.616z" clip-rule="evenodd"/>
  <path fill="#fff" fill-opacity=".48" fill-rule="evenodd" d="M173.358 33.012c21.879-.246 46.687 3.134 54.479 23.432 8.763 22.83-1.428 48.499-21.375 62.808-19.786 14.194-46.613 14.453-66.237.041-19.133-14.051-26.152-39.588-17.674-61.665 7.422-19.327 29.974-24.382 50.807-24.616z" clip-rule="evenodd"/>
  <path fill="#4998C9" fill-rule="evenodd" d="M78.478-53.99c13.956-.166 28.801 1.532 38.612 11.44 9.772 9.869 10.667 24.668 10.88 38.542.218 14.17-.552 28.884-9.676 39.744-9.842 11.715-24.538 20.276-39.816 19.167-14.62-1.06-25.374-13.038-34.418-24.555-7.782-9.91-11.27-21.779-11.844-34.356-.609-13.359-.528-27.81 8.563-37.631 9.33-10.08 23.951-12.186 37.7-12.35z" clip-rule="evenodd"/>
  <path fill="#000" fill-opacity=".56" fill-rule="evenodd" d="M78.478-53.99c13.956-.166 28.801 1.532 38.612 11.44 9.772 9.869 10.667 24.668 10.88 38.542.218 14.17-.552 28.884-9.676 39.744-9.842 11.715-24.538 20.276-39.816 19.167-14.62-1.06-25.374-13.038-34.418-24.555-7.782-9.91-11.27-21.779-11.844-34.356-.609-13.359-.528-27.81 8.563-37.631 9.33-10.08 23.951-12.186 37.7-12.35z" clip-rule="evenodd"/>
  <g>
    <path stroke="#4998C9" d="M101.064 30.432c10.676.86 20.376 5.035 29.455 10.708 9.729 6.08 20.132 12.37 24.461 22.983 4.478 10.975 3.821 23.814-.943 34.67-4.522 10.305-14.655 16.353-24.125 22.455-8.937 5.758-18.225 11.134-28.848 11.676-11.006.562-22.3-1.964-31.075-8.618-8.671-6.575-13.016-16.966-16.324-27.322-3.29-10.303-4.949-21.022-2.479-31.551C53.821 54.2 58.49 42.74 67.945 36.106c9.393-6.592 21.674-6.594 33.119-5.674z" clip-rule="evenodd"/>
    <path stroke="#fff" stroke-opacity=".48" d="M101.064 30.432c10.676.86 20.376 5.035 29.455 10.708 9.729 6.08 20.132 12.37 24.461 22.983 4.478 10.975 3.821 23.814-.943 34.67-4.522 10.305-14.655 16.353-24.125 22.455-8.937 5.758-18.225 11.134-28.848 11.676-11.006.562-22.3-1.964-31.075-8.618-8.671-6.575-13.016-16.966-16.324-27.322-3.29-10.303-4.949-21.022-2.479-31.551C53.821 54.2 58.49 42.74 67.945 36.106c9.393-6.592 21.674-6.594 33.119-5.674z" clip-rule="evenodd"/>
  </g>
  <defs>
    <clipPath id="clip0_79_58415">
      <path fill="#fff" d="M0 0h264v84H0z"/>
    </clipPath>
  </defs>
</svg>
