<svg xmlns="http://www.w3.org/2000/svg" fill="none" viewBox="0 0 264 84">
    <path fill="#A79184" d="M0 0h264v84H0z"/>
    <path fill="#000" fill-opacity=".26" d="M0 0h264v84H0z"/>
    <path fill="#A79184" d="M103.115 58.654L67 89h131l-.331-1.178c-2.58-9.196-3.87-13.794-6.042-17.776a40 40 0 00-13.672-14.612c-3.828-2.431-8.331-4.024-17.335-7.209-9.877-3.494-14.816-5.24-19.719-5.708a40.003 40.003 0 00-21.327 3.868c-4.427 2.16-8.437 5.53-16.459 12.269z"/>
    <path fill="#fff" fill-opacity=".16" d="M103.115 58.654L67 89h131l-.331-1.178c-2.58-9.196-3.87-13.794-6.042-17.776a40 40 0 00-13.672-14.612c-3.828-2.431-8.331-4.024-17.335-7.209-9.877-3.494-14.816-5.24-19.719-5.708a40.003 40.003 0 00-21.327 3.868c-4.427 2.16-8.437 5.53-16.459 12.269z"/>
    <g opacity=".24" style="mix-blend-mode:multiply">
      <path fill="#A79184" fill-rule="evenodd" d="M112.388-42.523c14.976-6.713 32.662-8.297 46.825.088 14.103 8.35 21.763 24.616 22.583 41.007.734 14.669-9.097 26.31-18.662 37.395-10.294 11.93-20.607 26.984-36.347 26.357-16.142-.643-27.46-15.304-35.768-29.23-7.635-12.799-10.746-27.641-6.7-41.96 4.188-14.818 14.059-27.378 28.069-33.657z" clip-rule="evenodd"/>
      <path fill="#000" fill-opacity=".56" fill-rule="evenodd" d="M112.388-42.523c14.976-6.713 32.662-8.297 46.825.088 14.103 8.35 21.763 24.616 22.583 41.007.734 14.669-9.097 26.31-18.662 37.395-10.294 11.93-20.607 26.984-36.347 26.357-16.142-.643-27.46-15.304-35.768-29.23-7.635-12.799-10.746-27.641-6.7-41.96 4.188-14.818 14.059-27.378 28.069-33.657z" clip-rule="evenodd"/>
    </g>
    <circle cx="77" cy="-12" r="42" stroke="#A79184"/>
    <circle cx="77" cy="-12" r="42" stroke="#fff" stroke-opacity=".48"/>
    <g>
      <circle cx="199" cy="59" r="2" fill="#A79184"/>
      <circle cx="199" cy="59" r="2" fill="#000" fill-opacity=".56"/>
      <circle cx="199" cy="51" r="2" fill="#A79184"/>
      <circle cx="199" cy="51" r="2" fill="#000" fill-opacity=".56"/>
      <circle cx="199" cy="43" r="2" fill="#A79184"/>
      <circle cx="199" cy="43" r="2" fill="#000" fill-opacity=".56"/>
      <circle cx="191" cy="59" r="2" fill="#A79184"/>
      <circle cx="191" cy="59" r="2" fill="#000" fill-opacity=".56"/>
      <circle cx="191" cy="51" r="2" fill="#A79184"/>
      <circle cx="191" cy="51" r="2" fill="#000" fill-opacity=".56"/>
      <g>
        <circle cx="191" cy="43" r="2" fill="#A79184"/>
        <circle cx="191" cy="43" r="2" fill="#000" fill-opacity=".56"/>
      </g>
      <g>
        <circle cx="183" cy="59" r="2" fill="#A79184"/>
        <circle cx="183" cy="59" r="2" fill="#000" fill-opacity=".56"/>
      </g>
      <g>
        <circle cx="183" cy="51" r="2" fill="#A79184"/>
        <circle cx="183" cy="51" r="2" fill="#000" fill-opacity=".56"/>
      </g>
      <g>
        <circle cx="183" cy="43" r="2" fill="#A79184"/>
        <circle cx="183" cy="43" r="2" fill="#000" fill-opacity=".56"/>
      </g>
    </g>
  <defs>
    <clipPath id="clip0_56_13598">
      <path fill="#fff" d="M0 0h264v84H0z"/>
    </clipPath>
  </defs>
</svg>
