<svg xmlns="http://www.w3.org/2000/svg" fill="none" viewBox="0 0 264 84">
    <path fill="#142A38" d="M0 0h264v84H0z"/>
    <path fill="#556570" fill-rule="evenodd" d="M107.977 55.055c10.64-19.119 25.882-38.983 47.372-35.678 24.17 3.717 41.402 25.3 43.93 49.718 2.509 24.22-10.575 47.642-32.824 57.532-21.692 9.642-47.347 3.067-62.309-15.246-13.1-16.033-6.3-38.122 3.831-56.326z" clip-rule="evenodd"/>
    <path fill="#0B1D29" fill-rule="evenodd" d="M76.801 34.318c6.232-11.198 15.16-22.833 27.747-20.897 14.157 2.177 24.25 14.819 25.731 29.121 1.47 14.187-6.194 27.906-19.226 33.698-12.705 5.648-27.732 1.797-36.496-8.93-7.673-9.39-3.69-22.329 2.244-32.992z" clip-rule="evenodd"/>
    <path stroke="#C9D1D6" d="M137.042-23.371c7.021 4.843 12.048 11.584 16.051 19.11 4.289 8.065 8.959 16.545 7.72 25.585-1.281 9.35-6.845 17.94-14.451 23.528-7.221 5.304-16.616 5.44-25.575 5.876-8.455.412-17.001.42-24.543-3.435-7.813-3.995-14.596-10.233-17.999-18.314-3.362-7.986-2.222-16.88-.38-25.337 1.831-8.414 4.954-16.464 10.849-22.74 6.288-6.696 14.069-12.738 23.23-13.548 9.102-.804 17.572 4.083 25.098 9.275z" clip-rule="evenodd"/>
    <g opacity=".45">
      <circle cx="201" cy="23" r="2" fill="#C9D1D6"/>
      <circle cx="201" cy="15" r="2" fill="#C9D1D6"/>
      <circle cx="193" cy="23" r="2" fill="#C9D1D6"/>
      <circle cx="193" cy="15" r="2" fill="#C9D1D6"/>
      <circle cx="185" cy="23" r="2" fill="#C9D1D6"/>
      <circle cx="185" cy="15" r="2" fill="#C9D1D6"/>
    </g>
    <path fill="#0B1D29" fill-rule="evenodd" d="M199.338 91.611c.145 12.815-1.835 27.346-13.724 31.91-13.372 5.133-28.408-.837-36.789-12.52-8.313-11.59-8.465-27.303-.024-38.797 8.23-11.207 23.188-15.318 36.119-10.352 11.321 4.347 14.281 17.557 14.418 29.76z" clip-rule="evenodd" opacity=".2"/>
  <defs>
    <clipPath id="clip0_79_62293">
      <path fill="#fff" d="M0 0h264v84H0z"/>
    </clipPath>
  </defs>
</svg>
