<svg xmlns="http://www.w3.org/2000/svg" fill="none" viewBox="0 0 264 84">
    <path fill="#AD6D3B" d="M0 0h264v84H0z"/>
    <path fill="#000" fill-opacity=".26" d="M0 0h264v84H0z"/>
    <path fill="#AD6D3B" d="M170-5.5l-36.779 49.36c-11.526 15.47-32.815 19.849-49.51 10.183L60.95 40.866A48 48 0 0137-.674V-17L170-5.5z"/>
    <path fill="#fff" fill-opacity=".16" d="M170-5.5l-36.779 49.36c-11.526 15.47-32.815 19.849-49.51 10.183L60.95 40.866A48 48 0 0137-.674V-17L170-5.5z"/>
    <g opacity=".24" style="mix-blend-mode:multiply">
      <path fill="#A79184" fill-rule="evenodd" d="M123.329 33.029c15.845 4.277 30.544 14.24 36.206 29.694 5.638 15.39 1.279 32.832-8.456 46.044-8.713 11.824-23.692 14.619-38.112 17.151-15.52 2.726-33.03 7.859-44.823-2.585-12.094-10.711-11.583-29.226-9.205-45.266 2.185-14.742 9.167-28.205 21.36-36.733 12.618-8.826 28.208-12.306 43.03-8.305z" clip-rule="evenodd"/>
      <path fill="#000" fill-opacity=".56" fill-rule="evenodd" d="M123.329 33.029c15.845 4.277 30.544 14.24 36.206 29.694 5.638 15.39 1.279 32.832-8.456 46.044-8.713 11.824-23.692 14.619-38.112 17.151-15.52 2.726-33.03 7.859-44.823-2.585-12.094-10.711-11.583-29.226-9.205-45.266 2.185-14.742 9.167-28.205 21.36-36.733 12.618-8.826 28.208-12.306 43.03-8.305z" clip-rule="evenodd"/>
    </g>
    <circle cx="174" cy="-12" r="42" fill="#AD6D3B"/>
    <circle cx="174" cy="-12" r="42" fill="#fff" fill-opacity=".48"/>
    <g>
      <path stroke="#AD6D3B" d="M148.5 46.5h68c6.627 0 12 5.373 12 12s-5.373 12-12 12h-68c-6.627 0-12-5.373-12-12s5.373-12 12-12z"/>
      <path stroke="#fff" stroke-opacity=".16" d="M148.5 46.5h68c6.627 0 12 5.373 12 12s-5.373 12-12 12h-68c-6.627 0-12-5.373-12-12s5.373-12 12-12z"/>
    </g>
  <defs>
    <clipPath id="clip0_79_53567">
      <path fill="#fff" d="M0 0h264v84H0z"/>
    </clipPath>
  </defs>
</svg>
