<svg xmlns="http://www.w3.org/2000/svg" fill="none" viewBox="0 0 264 84">
    <path fill="#508199" d="M0 0h264v84H0z"/>
    <path fill="#000" fill-opacity=".26" d="M0 0h264v84H0z"/>
    <path fill="#508199" d="M57 63.5C57 56.596 62.596 51 69.5 51h68c6.904 0 12.5 5.596 12.5 12.5S144.404 76 137.5 76h-68C62.596 76 57 70.404 57 63.5z"/>
    <path fill="#fff" fill-opacity=".48" d="M57 63.5C57 56.596 62.596 51 69.5 51h68c6.904 0 12.5 5.596 12.5 12.5S144.404 76 137.5 76h-68C62.596 76 57 70.404 57 63.5z"/>
    <path fill="#508199" d="M29 29.5C29 22.596 34.596 17 41.5 17h68c6.904 0 12.5 5.596 12.5 12.5S116.404 42 109.5 42h-68C34.596 42 29 36.404 29 29.5z"/>
    <path fill="#000" fill-opacity=".56" d="M29 29.5C29 22.596 34.596 17 41.5 17h68c6.904 0 12.5 5.596 12.5 12.5S116.404 42 109.5 42h-68C34.596 42 29 36.404 29 29.5z"/>
    <g opacity=".32" style="mix-blend-mode:multiply">
      <path fill="#508199" fill-rule="evenodd" d="M225.688 85.465c-1.638 16.329-9.073 32.455-23.398 40.56-14.264 8.071-32.184 6.613-46.806-.84-13.086-6.669-18.284-20.992-23.133-34.806-5.218-14.869-13.136-31.31-4.753-44.647 8.597-13.676 26.947-16.19 43.161-16.458 14.9-.246 29.321 4.448 39.722 15.088 10.764 11.012 16.739 25.827 15.207 41.103z" clip-rule="evenodd"/>
      <path fill="#000" fill-opacity=".56" fill-rule="evenodd" d="M225.688 85.465c-1.638 16.329-9.073 32.455-23.398 40.56-14.264 8.071-32.184 6.613-46.806-.84-13.086-6.669-18.284-20.992-23.133-34.806-5.218-14.869-13.136-31.31-4.753-44.647 8.597-13.676 26.947-16.19 43.161-16.458 14.9-.246 29.321 4.448 39.722 15.088 10.764 11.012 16.739 25.827 15.207 41.103z" clip-rule="evenodd"/>
    </g>
    <g>
      <rect width="49" height="49" x="167.355" y="-22.293" stroke="#508199" rx="15.5" transform="rotate(45 167.355 -22.293)"/>
      <rect width="49" height="49" x="167.355" y="-22.293" stroke="#fff" stroke-opacity=".16" rx="15.5" transform="rotate(45 167.355 -22.293)"/>
    </g>
  <defs>
    <clipPath id="clip0_79_40239">
      <path fill="#fff" d="M0 0h264v84H0z"/>
    </clipPath>
  </defs>
</svg>
