<svg xmlns="http://www.w3.org/2000/svg" fill="none" viewBox="0 0 264 84">
    <path fill="#505099" d="M0 0h264v84H0z"/>
    <path fill="#000" fill-opacity=".26" d="M0 0h264v84H0z"/>
    <circle cx="112" cy="80" r="42" fill="#505099"/>
    <circle cx="112" cy="80" r="42" fill="#fff" fill-opacity=".16"/>
    <g opacity=".2" style="mix-blend-mode:multiply">
      <path fill="#505099" d="M170-5.5l-36.779 49.36c-11.526 15.47-32.815 19.849-49.51 10.183L60.95 40.866A48 48 0 0137-.674V-17L170-5.5z"/>
      <path fill="#000" fill-opacity=".56" d="M170-5.5l-36.779 49.36c-11.526 15.47-32.815 19.849-49.51 10.183L60.95 40.866A48 48 0 0137-.674V-17L170-5.5z"/>
    </g>
    <g opacity=".24">
      <path stroke="#505099" d="M154.26 41.122c-15.845-4.277-30.544-14.24-36.206-29.694-5.638-15.389-1.279-32.832 8.457-46.044 8.713-11.824 23.691-14.619 38.111-17.151 15.52-2.726 33.031-7.859 44.824 2.586 12.093 10.71 11.582 29.225 9.204 45.266-2.185 14.741-9.166 28.204-21.359 36.732-12.618 8.826-28.209 12.306-43.031 8.305z" clip-rule="evenodd"/>
      <path stroke="#fff" stroke-opacity=".48" d="M154.26 41.122c-15.845-4.277-30.544-14.24-36.206-29.694-5.638-15.389-1.279-32.832 8.457-46.044 8.713-11.824 23.691-14.619 38.111-17.151 15.52-2.726 33.031-7.859 44.824 2.586 12.093 10.71 11.582 29.225 9.204 45.266-2.185 14.741-9.166 28.204-21.359 36.732-12.618 8.826-28.209 12.306-43.031 8.305z" clip-rule="evenodd"/>
    </g>
    <g opacity=".24">
      <path stroke="#505099" d="M161.312 15.723C153.429 13.595 146.117 8.639 143.3.95c-2.806-7.656-.637-16.334 4.207-22.907 4.335-5.883 11.786-7.273 18.96-8.533 7.722-1.356 16.434-3.91 22.301 1.286 6.016 5.329 5.762 14.54 4.579 22.52C192.26.65 188.786 7.348 182.72 11.591c-6.277 4.39-14.034 6.123-21.408 4.132z" clip-rule="evenodd"/>
      <path stroke="#fff" stroke-opacity=".48" d="M161.312 15.723C153.429 13.595 146.117 8.639 143.3.95c-2.806-7.656-.637-16.334 4.207-22.907 4.335-5.883 11.786-7.273 18.96-8.533 7.722-1.356 16.434-3.91 22.301 1.286 6.016 5.329 5.762 14.54 4.579 22.52C192.26.65 188.786 7.348 182.72 11.591c-6.277 4.39-14.034 6.123-21.408 4.132z" clip-rule="evenodd"/>
    </g>
    <g>
      <circle cx="194" cy="71" r="2" fill="#505099"/>
      <circle cx="194" cy="71" r="2" fill="#000" fill-opacity=".56"/>
      <circle cx="194" cy="63" r="2" fill="#505099"/>
      <circle cx="194" cy="63" r="2" fill="#000" fill-opacity=".56"/>
      <circle cx="194" cy="55" r="2" fill="#505099"/>
      <circle cx="194" cy="55" r="2" fill="#000" fill-opacity=".56"/>
      <circle cx="186" cy="71" r="2" fill="#505099"/>
      <circle cx="186" cy="71" r="2" fill="#000" fill-opacity=".56"/>
      <circle cx="186" cy="63" r="2" fill="#505099"/>
      <circle cx="186" cy="63" r="2" fill="#000" fill-opacity=".56"/>
      <g>
        <circle cx="186" cy="55" r="2" fill="#505099"/>
        <circle cx="186" cy="55" r="2" fill="#000" fill-opacity=".56"/>
      </g>
      <g>
        <circle cx="178" cy="71" r="2" fill="#505099"/>
        <circle cx="178" cy="71" r="2" fill="#000" fill-opacity=".56"/>
      </g>
      <g>
        <circle cx="178" cy="63" r="2" fill="#505099"/>
        <circle cx="178" cy="63" r="2" fill="#000" fill-opacity=".56"/>
      </g>
      <g>
        <circle cx="178" cy="55" r="2" fill="#505099"/>
        <circle cx="178" cy="55" r="2" fill="#000" fill-opacity=".56"/>
      </g>
    </g>
  <defs>
    <clipPath id="clip0_79_54757">
      <path fill="#fff" d="M0 0h264v84H0z"/>
    </clipPath>
  </defs>
</svg>
