<svg xmlns="http://www.w3.org/2000/svg" fill="none" viewBox="0 0 264 84">
  <path fill="#745099" d="M0 0h264v84H0z"/>
  <path fill="#000" fill-opacity=".26" d="M0 0h264v84H0z"/>
  <path fill="#745099" fill-rule="evenodd" d="M128.52 39.512c12.654 1.017 24.149 5.963 34.91 12.683 11.531 7.2 23.861 14.652 28.991 27.222 5.307 13 4.528 28.208-1.118 41.065-5.36 12.207-17.369 19.371-28.592 26.598-10.592 6.82-21.601 13.188-34.191 13.83-13.044.665-26.429-2.326-36.83-10.208-10.276-7.788-15.425-20.095-19.346-32.362-3.9-12.203-5.865-24.9-2.938-37.371 3.122-13.305 8.656-26.878 19.862-34.737 11.133-7.807 25.688-7.81 39.252-6.72z" clip-rule="evenodd"/>
  <path fill="#fff" fill-opacity=".16" fill-rule="evenodd" d="M128.52 39.512c12.654 1.017 24.149 5.963 34.91 12.683 11.531 7.2 23.861 14.652 28.991 27.222 5.307 13 4.528 28.208-1.118 41.065-5.36 12.207-17.369 19.371-28.592 26.598-10.592 6.82-21.601 13.188-34.191 13.83-13.044.665-26.429-2.326-36.83-10.208-10.276-7.788-15.425-20.095-19.346-32.362-3.9-12.203-5.865-24.9-2.938-37.371 3.122-13.305 8.656-26.878 19.862-34.737 11.133-7.807 25.688-7.81 39.252-6.72z" clip-rule="evenodd"/>
  <g opacity=".2" style="mix-blend-mode:multiply">
    <path fill="#745099" fill-rule="evenodd" d="M174.099 9.193c8.073 2.056 15.204 6.904 18.924 14.391 4.039 8.128 5.25 17.815 1.106 25.918-4.244 8.3-12.942 12.678-21.96 14.862-9.906 2.4-21.549 4.506-28.912-2.54-7.209-6.898-5.031-18.475-3.386-28.367 1.352-8.129 4.803-15.724 11.509-20.478 6.608-4.685 14.901-5.777 22.719-3.786z" clip-rule="evenodd"/>
    <path fill="#000" fill-opacity=".56" fill-rule="evenodd" d="M174.099 9.193c8.073 2.056 15.204 6.904 18.924 14.391 4.039 8.128 5.25 17.815 1.106 25.918-4.244 8.3-12.942 12.678-21.96 14.862-9.906 2.4-21.549 4.506-28.912-2.54-7.209-6.898-5.031-18.475-3.386-28.367 1.352-8.129 4.803-15.724 11.509-20.478 6.608-4.685 14.901-5.777 22.719-3.786z" clip-rule="evenodd"/>
  </g>
  <circle cx="82" cy="34" r="2" fill="#745099"/>
  <circle cx="82" cy="34" r="2" fill="#fff" fill-opacity=".48"/>
  <circle cx="82" cy="26" r="2" fill="#745099"/>
  <circle cx="82" cy="26" r="2" fill="#fff" fill-opacity=".48"/>
  <circle cx="82" cy="18" r="2" fill="#745099"/>
  <circle cx="82" cy="18" r="2" fill="#fff" fill-opacity=".48"/>
  <circle cx="74" cy="34" r="2" fill="#745099"/>
  <circle cx="74" cy="34" r="2" fill="#fff" fill-opacity=".48"/>
  <circle cx="74" cy="26" r="2" fill="#745099"/>
  <circle cx="74" cy="26" r="2" fill="#fff" fill-opacity=".48"/>
  <g>
    <circle cx="74" cy="18" r="2" fill="#745099"/>
    <circle cx="74" cy="18" r="2" fill="#fff" fill-opacity=".48"/>
  </g>
  <g>
    <circle cx="66" cy="34" r="2" fill="#745099"/>
    <circle cx="66" cy="34" r="2" fill="#fff" fill-opacity=".48"/>
  </g>
  <g>
    <circle cx="66" cy="26" r="2" fill="#745099"/>
    <circle cx="66" cy="26" r="2" fill="#fff" fill-opacity=".48"/>
  </g>
  <g>
    <circle cx="66" cy="18" r="2" fill="#745099"/>
    <circle cx="66" cy="18" r="2" fill="#fff" fill-opacity=".48"/>
  </g>
  <g>
    <path stroke="#745099" d="M105.5 16.5v-60c0-6.627 5.373-12 12-12s12 5.373 12 12v60c0 6.627-5.373 12-12 12s-12-5.373-12-12z"/>
    <path stroke="#fff" stroke-opacity=".48" d="M105.5 16.5v-60c0-6.627 5.373-12 12-12s12 5.373 12 12v60c0 6.627-5.373 12-12 12s-12-5.373-12-12z"/>
  </g>
  <defs>
    <clipPath id="clip0_79_57181">
      <path fill="#fff" d="M0 0h264v84H0z"/>
    </clipPath>
  </defs>
</svg>
