<svg xmlns="http://www.w3.org/2000/svg" fill="none" viewBox="0 0 264 84">
  <path fill="#F0C165" d="M0 0h264v84H0z"/>
  <path fill="#000" fill-opacity=".26" d="M0 0h264v84H0z"/>
  <path fill="#F0C165" fill-rule="evenodd" d="M111.52-56.488c12.654 1.017 24.149 5.963 34.91 12.683 11.531 7.2 23.861 14.652 28.991 27.222 5.307 13 4.528 28.208-1.118 41.065-5.36 12.207-17.369 19.37-28.592 26.598-10.592 6.82-21.601 13.188-34.191 13.83-13.044.665-26.429-2.326-36.83-10.208-10.276-7.788-15.425-20.095-19.346-32.362-3.9-12.203-5.865-24.9-2.938-37.371 3.122-13.305 8.656-26.878 19.862-34.737 11.133-7.807 25.688-7.81 39.252-6.72z" clip-rule="evenodd"/>
  <path fill="#fff" fill-opacity=".16" fill-rule="evenodd" d="M111.52-56.488c12.654 1.017 24.149 5.963 34.91 12.683 11.531 7.2 23.861 14.652 28.991 27.222 5.307 13 4.528 28.208-1.118 41.065-5.36 12.207-17.369 19.37-28.592 26.598-10.592 6.82-21.601 13.188-34.191 13.83-13.044.665-26.429-2.326-36.83-10.208-10.276-7.788-15.425-20.095-19.346-32.362-3.9-12.203-5.865-24.9-2.938-37.371 3.122-13.305 8.656-26.878 19.862-34.737 11.133-7.807 25.688-7.81 39.252-6.72z" clip-rule="evenodd"/>
  <g opacity=".2" style="mix-blend-mode:multiply">
    <path fill="#F0C165" fill-rule="evenodd" d="M208.766 78.4c-4.193 10.696-12.046 19.625-22.926 23.437-11.813 4.139-25.274 4.141-35.654-2.913-10.633-7.227-15.138-19.877-16.586-32.59-1.591-13.964-2.485-30.257 8.415-39.128 10.67-8.686 26.14-3.728 39.395.213 10.892 3.238 20.697 9.258 26.056 19.246 5.281 9.843 5.36 21.377 1.3 31.735z" clip-rule="evenodd"/>
    <path fill="#000" fill-opacity=".56" fill-rule="evenodd" d="M208.766 78.4c-4.193 10.696-12.046 19.625-22.926 23.437-11.813 4.139-25.274 4.141-35.654-2.913-10.633-7.227-15.138-19.877-16.586-32.59-1.591-13.964-2.485-30.257 8.415-39.128 10.67-8.686 26.14-3.728 39.395.213 10.892 3.238 20.697 9.258 26.056 19.246 5.281 9.843 5.36 21.377 1.3 31.735z" clip-rule="evenodd"/>
  </g>
  <path stroke="#F0C165" d="M100.059 77.5H91.5c-6.627 0-12-5.373-12-12s5.373-12 12-12h8.559c6.319 0 11.441 5.122 11.441 11.44v1.12c0 6.318-5.122 11.44-11.441 11.44z"/>
  <path stroke="#fff" stroke-opacity=".48" d="M100.059 77.5H91.5c-6.627 0-12-5.373-12-12s5.373-12 12-12h8.559c6.319 0 11.441 5.122 11.441 11.44v1.12c0 6.318-5.122 11.44-11.441 11.44z"/>
  <g>
    <path stroke="#F0C165" stroke-linejoin="round" stroke-width="1.3" d="M109 22.5c0-7.441 8.617-11.569 14.415-6.905v0c4.41 3.547 4.41 10.263 0 13.81v0C117.617 34.069 109 29.941 109 22.5v0z"/>
    <path stroke="#000" stroke-linejoin="round" stroke-opacity=".56" stroke-width="1.3" d="M109 22.5c0-7.441 8.617-11.569 14.415-6.905v0c4.41 3.547 4.41 10.263 0 13.81v0C117.617 34.069 109 29.941 109 22.5v0z"/>
  </g>
  <defs>
    <clipPath id="clip0_79_55991">
      <path fill="#fff" d="M0 0h264v84H0z"/>
    </clipPath>
  </defs>
</svg>
