<svg xmlns="http://www.w3.org/2000/svg" fill="none" viewBox="0 0 264 84">
  <path fill="#FCF0E4" d="M0 0h264v84H0z"/>
  <path fill="#000" fill-opacity=".26" d="M0 0h264v84H0z"/>
  <path fill="#FCF0E4" fill-rule="evenodd" d="M143.303 41.724c7.021 4.844 12.048 11.584 16.05 19.11 4.29 8.066 8.96 16.545 7.721 25.585-1.281 9.35-6.845 17.941-14.451 23.528-7.221 5.305-16.616 5.44-25.575 5.877-8.456.412-17.001.42-24.543-3.436-7.813-3.995-14.596-10.232-17.999-18.314-3.362-7.986-2.222-16.88-.38-25.337 1.831-8.413 4.954-16.464 10.849-22.74 6.288-6.696 14.069-12.737 23.23-13.547 9.102-.805 17.572 4.083 25.098 9.274z" clip-rule="evenodd"/>
  <path fill="#000" fill-opacity=".56" fill-rule="evenodd" d="M143.303 41.724c7.021 4.844 12.048 11.584 16.05 19.11 4.29 8.066 8.96 16.545 7.721 25.585-1.281 9.35-6.845 17.941-14.451 23.528-7.221 5.305-16.616 5.44-25.575 5.877-8.456.412-17.001.42-24.543-3.436-7.813-3.995-14.596-10.232-17.999-18.314-3.362-7.986-2.222-16.88-.38-25.337 1.831-8.413 4.954-16.464 10.849-22.74 6.288-6.696 14.069-12.737 23.23-13.547 9.102-.805 17.572 4.083 25.098 9.274z" clip-rule="evenodd"/>
  <g style="mix-blend-mode:soft-light">
    <path fill="#FCF0E4" fill-rule="evenodd" d="M172.682-9.455c5.921 4.179 9.997 10.23 13.136 17.067 3.364 7.326 7.041 15.02 5.505 23.533-1.588 8.803-6.896 17.11-13.847 22.71-6.6 5.317-14.851 5.91-22.734 6.762-7.439.805-14.938 1.236-21.365-1.994-6.658-3.346-12.3-8.84-14.885-16.226-2.554-7.298-1.113-15.668.923-23.665 2.025-7.956 5.164-15.636 10.648-21.796 5.85-6.57 12.978-12.604 21.057-13.816 8.026-1.203 15.216 2.945 21.562 7.425z" clip-rule="evenodd"/>
    <path fill="#fff" fill-opacity=".16" fill-rule="evenodd" d="M172.682-9.455c5.921 4.179 9.997 10.23 13.136 17.067 3.364 7.326 7.041 15.02 5.505 23.533-1.588 8.803-6.896 17.11-13.847 22.71-6.6 5.317-14.851 5.91-22.734 6.762-7.439.805-14.938 1.236-21.365-1.994-6.658-3.346-12.3-8.84-14.885-16.226-2.554-7.298-1.113-15.668.923-23.665 2.025-7.956 5.164-15.636 10.648-21.796 5.85-6.57 12.978-12.604 21.057-13.816 8.026-1.203 15.216 2.945 21.562 7.425z" clip-rule="evenodd"/>
  </g>
  <g style="mix-blend-mode:soft-light">
    <path fill="#FCF0E4" fill-rule="evenodd" d="M162.156 20.54c-3.733 1.177-7.667.948-11.632.06-4.249-.951-8.759-1.889-11.914-5.334-3.263-3.563-5.095-8.562-5.227-13.381-.126-4.576 2.319-8.315 4.532-11.982 2.089-3.46 4.357-6.823 7.847-8.528 3.617-1.766 7.824-2.392 11.843-1.087 3.972 1.29 7.097 4.649 9.868 8.14 2.756 3.473 5.029 7.335 5.881 11.707.91 4.664 1.17 9.7-.953 13.569-2.109 3.843-6.244 5.575-10.245 6.836z" clip-rule="evenodd"/>
    <path fill="#fff" fill-opacity=".16" fill-rule="evenodd" d="M162.156 20.54c-3.733 1.177-7.667.948-11.632.06-4.249-.951-8.759-1.889-11.914-5.334-3.263-3.563-5.095-8.562-5.227-13.381-.126-4.576 2.319-8.315 4.532-11.982 2.089-3.46 4.357-6.823 7.847-8.528 3.617-1.766 7.824-2.392 11.843-1.087 3.972 1.29 7.097 4.649 9.868 8.14 2.756 3.473 5.029 7.335 5.881 11.707.91 4.664 1.17 9.7-.953 13.569-2.109 3.843-6.244 5.575-10.245 6.836z" clip-rule="evenodd"/>
  </g>
  <g opacity=".45">
    <circle cx="201" cy="75.658" r="2" fill="#FCF0E4"/>
    <circle cx="201" cy="75.658" r="2" fill="#fff" fill-opacity=".48"/>
    <circle cx="201" cy="67.658" r="2" fill="#FCF0E4"/>
    <circle cx="201" cy="67.658" r="2" fill="#fff" fill-opacity=".48"/>
    <circle cx="201" cy="59.658" r="2" fill="#FCF0E4"/>
    <circle cx="201" cy="59.658" r="2" fill="#fff" fill-opacity=".48"/>
    <circle cx="193" cy="75.658" r="2" fill="#FCF0E4"/>
    <circle cx="193" cy="75.658" r="2" fill="#fff" fill-opacity=".48"/>
    <circle cx="193" cy="67.658" r="2" fill="#FCF0E4"/>
    <circle cx="193" cy="67.658" r="2" fill="#fff" fill-opacity=".48"/>
    <g>
      <circle cx="193" cy="59.658" r="2" fill="#FCF0E4"/>
      <circle cx="193" cy="59.658" r="2" fill="#fff" fill-opacity=".48"/>
    </g>
    <g>
      <circle cx="185" cy="75.658" r="2" fill="#FCF0E4"/>
      <circle cx="185" cy="75.658" r="2" fill="#fff" fill-opacity=".48"/>
    </g>
    <g>
      <circle cx="185" cy="67.658" r="2" fill="#FCF0E4"/>
      <circle cx="185" cy="67.658" r="2" fill="#fff" fill-opacity=".48"/>
    </g>
    <g>
      <circle cx="185" cy="59.658" r="2" fill="#FCF0E4"/>
      <circle cx="185" cy="59.658" r="2" fill="#fff" fill-opacity=".48"/>
    </g>
  </g>
  <g>
    <path stroke="#FCF0E4" d="M76.423 14.889c5.734.458 10.943 2.688 15.819 5.717 5.225 3.246 10.812 6.606 13.136 12.272 2.405 5.861 2.052 12.717-.506 18.514-2.429 5.502-7.87 8.732-12.956 11.99-4.8 3.075-9.788 5.946-15.493 6.235-5.91.3-11.975-1.049-16.688-4.602-4.657-3.51-6.99-9.059-8.767-14.59-1.767-5.5-2.657-11.224-1.331-16.847 1.415-5.998 3.922-12.117 9-15.66 5.045-3.52 11.64-3.521 17.786-3.03z" clip-rule="evenodd"/>
    <path stroke="#fff" stroke-opacity=".48" d="M76.423 14.889c5.734.458 10.943 2.688 15.819 5.717 5.225 3.246 10.812 6.606 13.136 12.272 2.405 5.861 2.052 12.717-.506 18.514-2.429 5.502-7.87 8.732-12.956 11.99-4.8 3.075-9.788 5.946-15.493 6.235-5.91.3-11.975-1.049-16.688-4.602-4.657-3.51-6.99-9.059-8.767-14.59-1.767-5.5-2.657-11.224-1.331-16.847 1.415-5.998 3.922-12.117 9-15.66 5.045-3.52 11.64-3.521 17.786-3.03z" clip-rule="evenodd"/>
  </g>
  <defs>
    <clipPath id="clip0_79_59825">
      <path fill="#fff" d="M0 0h264v84H0z"/>
    </clipPath>
  </defs>
</svg>
