<svg xmlns="http://www.w3.org/2000/svg" fill="none" viewBox="0 0 264 84">
  <path fill="#EB4C8A" d="M0 0h264v84H0z"/>
  <path fill="#000" fill-opacity=".26" d="M0 0h264v84H0z"/>
  <g style="mix-blend-mode:multiply">
    <path fill="#EB4C8A" d="M93.5 13c17.949 0 32.5 14.55 32.5 32.5v67c0 17.949-14.551 32.5-32.5 32.5-17.95 0-32.5-14.551-32.5-32.5v-67C61 27.55 75.55 13 93.5 13z"/>
    <path fill="#000" fill-opacity=".56" d="M93.5 13c17.949 0 32.5 14.55 32.5 32.5v67c0 17.949-14.551 32.5-32.5 32.5-17.95 0-32.5-14.551-32.5-32.5v-67C61 27.55 75.55 13 93.5 13z"/>
  </g>
  <path fill="#EB4C8A" d="M164.5 64C146.551 64 132 49.45 132 31.5v-67c0-17.95 14.551-32.5 32.5-32.5 17.949 0 32.5 14.55 32.5 32.5v67c0 17.95-14.551 32.5-32.5 32.5z"/>
  <path fill="#fff" fill-opacity=".48" d="M164.5 64C146.551 64 132 49.45 132 31.5v-67c0-17.95 14.551-32.5 32.5-32.5 17.949 0 32.5 14.55 32.5 32.5v67c0 17.95-14.551 32.5-32.5 32.5z"/>
  <path stroke="#EB4C8A" d="M137.042-23.371c7.021 4.843 12.048 11.584 16.051 19.11 4.289 8.065 8.959 16.545 7.72 25.585-1.281 9.35-6.845 17.94-14.451 23.528-7.221 5.304-16.616 5.44-25.575 5.876-8.455.412-17.001.42-24.543-3.435-7.813-3.995-14.596-10.233-17.999-18.314-3.362-7.986-2.222-16.88-.38-25.337 1.831-8.414 4.954-16.464 10.849-22.74 6.288-6.696 14.069-12.738 23.23-13.548 9.102-.804 17.572 4.083 25.098 9.275z" clip-rule="evenodd"/>
  <path stroke="#fff" stroke-opacity=".48" d="M137.042-23.371c7.021 4.843 12.048 11.584 16.051 19.11 4.289 8.065 8.959 16.545 7.72 25.585-1.281 9.35-6.845 17.94-14.451 23.528-7.221 5.304-16.616 5.44-25.575 5.876-8.455.412-17.001.42-24.543-3.435-7.813-3.995-14.596-10.233-17.999-18.314-3.362-7.986-2.222-16.88-.38-25.337 1.831-8.414 4.954-16.464 10.849-22.74 6.288-6.696 14.069-12.738 23.23-13.548 9.102-.804 17.572 4.083 25.098 9.275z" clip-rule="evenodd"/>
  <g style="mix-blend-mode:soft-light">
    <path fill="#EB4C8A" fill-rule="evenodd" d="M178.406 105.724c-5.288 1.667-10.862 1.344-16.479.086-6.02-1.349-12.409-2.677-16.879-7.558-4.623-5.047-7.219-12.13-7.406-18.957-.178-6.482 3.286-11.78 6.421-16.974 2.959-4.902 6.173-9.668 11.118-12.083 5.124-2.502 11.084-3.39 16.778-1.54 5.627 1.828 10.055 6.586 13.979 11.532 3.905 4.92 7.125 10.392 8.333 16.586 1.288 6.607 1.657 13.743-1.35 19.223-2.988 5.444-8.846 7.898-14.515 9.685z" clip-rule="evenodd"/>
    <path fill="#fff" fill-opacity=".16" fill-rule="evenodd" d="M178.406 105.724c-5.288 1.667-10.862 1.344-16.479.086-6.02-1.349-12.409-2.677-16.879-7.558-4.623-5.047-7.219-12.13-7.406-18.957-.178-6.482 3.286-11.78 6.421-16.974 2.959-4.902 6.173-9.668 11.118-12.083 5.124-2.502 11.084-3.39 16.778-1.54 5.627 1.828 10.055 6.586 13.979 11.532 3.905 4.92 7.125 10.392 8.333 16.586 1.288 6.607 1.657 13.743-1.35 19.223-2.988 5.444-8.846 7.898-14.515 9.685z" clip-rule="evenodd"/>
  </g>
  <g>
    <path stroke="#EB4C8A" stroke-linejoin="round" stroke-width="1.3" d="M52 60.5c0-10.665 12.347-16.585 20.662-9.907v0c6.334 5.086 6.334 14.728 0 19.814v0C64.346 77.085 52 71.165 52 60.5v0z"/>
    <path stroke="#fff" stroke-linejoin="round" stroke-opacity=".48" stroke-width="1.3" d="M52 60.5c0-10.665 12.347-16.585 20.662-9.907v0c6.334 5.086 6.334 14.728 0 19.814v0C64.346 77.085 52 71.165 52 60.5v0z"/>
  </g>
  <defs>
    <clipPath id="clip0_79_61147">
      <path fill="#fff" d="M0 0h264v84H0z"/>
    </clipPath>
  </defs>
</svg>
