<svg xmlns="http://www.w3.org/2000/svg"  fill="none" viewBox="0 0 20 20">
  <path fill="currentColor" d="M12.546 13.109l-.295-.58.295.58zm-.437.437l-.58-.295.58.295zM17 12.35h-3.4v1.3H17v-1.3zm-5.65 2.25V17h1.3v-2.4h-1.3zm2.25-2.25c-.27 0-.51 0-.71.016a1.676 1.676 0 00-.64.164l.591 1.158s.029-.016.155-.027c.134-.01.313-.011.604-.011v-1.3zm-.95 2.25c0-.29 0-.47.011-.604.01-.126.027-.155.027-.155l-1.158-.59a1.676 1.676 0 00-.164.64c-.016.199-.016.44-.016.709h1.3zm-.4-2.07a1.65 1.65 0 00-.72.72l1.158.591a.35.35 0 01.153-.153l-.59-1.158z"/>
  <path stroke="currentColor" stroke-width="1.3" d="M9.5 3H7.8c-1.68 0-2.52 0-3.162.327a3 3 0 00-1.311 1.311C3 5.28 3 6.12 3 7.8v4.4c0 1.68 0 2.52.327 3.162a3 3 0 001.311 1.311C5.28 17 6.12 17 7.8 17h3.212c.733 0 1.1 0 1.446-.083.306-.073.598-.195.867-.36.303-.185.562-.444 1.08-.963l1.19-1.188c.518-.519.777-.778.963-1.081.164-.269.286-.561.36-.867.082-.346.082-.713.082-1.446V10M15 1.5v7M11.5 5h7"/>
</svg>
