<svg xmlns="http://www.w3.org/2000/svg" fill="none" viewBox="0 0 20 20">
  <path stroke="currentColor" stroke-linejoin="round" stroke-width="1.3" d="M8.775 3.507c.452-.187.678-.28.912-.318a2 2 0 01.626 0c.234.037.46.131.912.318l2.5 1.036c.452.187.678.28.87.42.17.123.319.273.442.442.14.192.233.418.42.87l1.036 2.5c.187.452.28.678.318.912.032.207.032.419 0 .626-.037.234-.131.46-.318.912l-1.036 2.5c-.187.452-.28.678-.42.87-.123.17-.273.319-.442.442-.192.14-.418.233-.87.42l-2.5 1.036c-.452.187-.678.28-.912.318a2.002 2.002 0 01-.626 0c-.234-.037-.46-.131-.912-.318l-2.5-1.036c-.452-.187-.678-.28-.87-.42a1.998 1.998 0 01-.442-.442c-.14-.192-.233-.418-.42-.87l-1.036-2.5c-.187-.452-.28-.678-.318-.912a2 2 0 010-.626c.037-.234.131-.46.318-.912l1.036-2.5c.187-.452.28-.678.42-.87a2 2 0 01.442-.442c.192-.14.418-.233.87-.42l2.5-1.036zM10 7v4"/>
  <circle cx="10" cy="12.5" r=".5" stroke="currentColor" stroke-linejoin="round" stroke-width=".3"/>
</svg>
