<svg xmlns="http://www.w3.org/2000/svg" fill="none" viewBox="0 0 20 20">
  <path stroke="currentColor" stroke-width="1.3" d="M3 6a3 3 0 013-3h8a3 3 0 013 3v0a1 1 0 01-1 1H4a1 1 0 01-1-1v0zM8 7h4v1.4c0 .56 0 .84-.109 1.054a1 1 0 01-.437.437C11.24 10 10.96 10 10.4 10h-.8c-.56 0-.84 0-1.054-.109a1 1 0 01-.437-.437C8 9.24 8 8.96 8 8.4V7z"/>
  <path stroke="currentColor" stroke-width="1.3" d="M3.5 7v5.2c0 1.68 0 2.52.327 3.162a3 3 0 001.311 1.311C5.78 17 6.62 17 8.3 17h3.4c1.68 0 2.52 0 3.162-.327a3 3 0 001.311-1.311c.327-.642.327-1.482.327-3.162V7"/>
</svg>
