<svg xmlns="http://www.w3.org/2000/svg" fill="none" viewBox="0 0 20 20">
  <path stroke="currentColor" stroke-linejoin="round" stroke-width="1.3" d="M7.5 6V5A2.5 2.5 0 0110 2.5v0A2.5 2.5 0 0112.5 5v1M4.283 9.941c.255-1.402.383-2.103.74-2.628a3 3 0 011.265-1.056C6.868 6 7.58 6 9.006 6h1.988c1.425 0 2.137 0 2.718.257a3 3 0 011.265 1.056c.357.525.485 1.226.74 2.628l.254 1.4c.354 1.944.53 2.916.257 3.675a3 3 0 01-1.319 1.58c-.697.404-1.685.404-3.66.404H8.75c-1.975 0-2.963 0-3.66-.404a3 3 0 01-1.32-1.58c-.272-.76-.096-1.731.258-3.675l.254-1.4zM7.878 9.121a3 3 0 004.243 0"/>
</svg>
