<svg xmlns="http://www.w3.org/2000/svg" fill="none" viewBox="0 0 20 20">
  <circle cx="4.5" cy="13.5" r="3.5" stroke="currentColor" stroke-linejoin="round" stroke-width="1.3"/>
  <circle cx="15.5" cy="13.5" r="3.5" stroke="currentColor" stroke-linejoin="round" stroke-width="1.3"/>
  <path stroke="currentColor" stroke-linejoin="round" stroke-width="1.3" d="M12 13.5V12l.767-6.903A2.357 2.357 0 0115.11 3v0c1.105 0 2.062.767 2.301 1.846l1.476 6.64c.043.192.064.289.079.386.013.086.023.173.029.26.006.099.006.198.006.395v.973M1 13.5v-.973c0-.197 0-.296.006-.394.006-.088.016-.175.03-.261.014-.097.035-.194.078-.386l1.476-6.64A2.357 2.357 0 014.89 3v0c1.201 0 2.21.903 2.343 2.097L8 12v1.5M7.5 5s1 .5 2.5.5 2.5-.5 2.5-.5M8 14s.5-1 2-1 2 1 2 1"/>
</svg>
