<svg xmlns="http://www.w3.org/2000/svg" fill="currentColor" viewBox="0 0 20 20">
  <path d="M10 5l-.322.564a.65.65 0 00.644 0L10 5zm0 12l-.322.564a.65.65 0 00.644 0L10 17zm-1.187-.678l.323-.565-.323.565zm2.374 0l-.322-.565.322.565zm0-12l-.322-.565.322.565zm5.163-.486v10.328h1.3V3.836h-1.3zM3.65 14.164V3.836h-1.3v10.328h1.3zm6.672-8.6l1.188-.678-.646-1.129-1.186.679.644 1.128zm-1.831-.678l1.187.678.644-1.128-1.186-.679-.645 1.13zm2.373 10.871l-1.186.679.644 1.128 1.188-.678-.646-1.129zm-.542.679l-1.186-.679-.645 1.13 1.187.677.644-1.128zm-1.186-.679a10.681 10.681 0 00-5.3-1.407v1.3c1.633 0 3.237.426 4.655 1.236l.645-1.129zm7.028-1.407a10.68 10.68 0 00-5.3 1.407l.645 1.13a9.382 9.382 0 014.655-1.237v-1.3zM3.836 3.65c1.633 0 3.237.426 4.655 1.236l.645-1.129a10.682 10.682 0 00-5.3-1.407v1.3zm-.186.186c0-.103.083-.186.186-.186v-1.3c-.82 0-1.486.665-1.486 1.486h1.3zm-1.3 10.328c0 .82.665 1.486 1.486 1.486v-1.3a.186.186 0 01-.186-.186h-1.3zm9.16-9.278a9.381 9.381 0 014.654-1.236v-1.3c-1.859 0-3.686.485-5.3 1.407l.645 1.13zm4.84 9.278a.186.186 0 01-.186.186v1.3c.82 0 1.486-.665 1.486-1.486h-1.3zm1.3-10.328c0-.82-.665-1.486-1.486-1.486v1.3c.103 0 .186.083.186.186h1.3z"/>
  <path stroke="currentColor" stroke-linejoin="round" stroke-width="1.3" d="M10 5v11.5"/>
</svg>
