<svg xmlns="http://www.w3.org/2000/svg" fill="none" viewBox="0 0 20 20">
  <path stroke="currentColor" stroke-linejoin="round" stroke-width="1.3" d="M7.484 4.048c.914-.562 1.37-.843 1.86-.953a3 3 0 011.313 0c.489.11.945.391 1.859.953l1.7 1.046c.833.513 1.25.77 1.552 1.12.268.308.47.67.593 1.06.139.44.139.93.139 1.908v1.636c0 .979 0 1.468-.14 1.909-.122.39-.324.75-.592 1.06-.302.35-.719.606-1.552 1.119l-1.7 1.046c-.914.562-1.37.843-1.86.953a3 3 0 01-1.313 0c-.489-.11-.945-.391-1.859-.953l-1.7-1.046c-.833-.513-1.25-.77-1.552-1.12a3 3 0 01-.593-1.06c-.139-.44-.139-.93-.139-1.908V9.182c0-.978 0-1.468.14-1.909a3 3 0 01.592-1.06c.302-.35.719-.606 1.552-1.119l1.7-1.046zM10 16.5V10m0 0l6-3m-6 3L4 6.5M7 4.5l6.5 4"/>
</svg>
