<svg xmlns="http://www.w3.org/2000/svg" fill="currentColor" viewBox="0 0 20 20">
  <path fill-rule="evenodd" d="M6.35 5.5v-.837c-.17.006-.325.014-.467.026-.46.037-.736.108-.95.217a2.35 2.35 0 00-1.027 1.027c-.106.209-.176.476-.215.917h12.617c-.038-.44-.108-.708-.214-.917a2.35 2.35 0 00-1.027-1.027c-.214-.109-.49-.18-.95-.217a9.786 9.786 0 00-.467-.026V5.5h-1.3v-.85H7.65v.85h-1.3zm6-2.15h-4.7V2.5h-1.3v.863c-.206.006-.397.016-.573.03-.54.044-1.006.137-1.434.355a3.65 3.65 0 00-1.595 1.595c-.218.428-.31.893-.355 1.434-.015.184-.025.383-.031.599a.654.654 0 00-.005.217c-.007.35-.007.74-.007 1.179v2.456c0 .816 0 1.469.043 1.995.044.54.137 1.006.355 1.434a3.65 3.65 0 001.595 1.595c.428.218.893.31 1.434.355.526.043 1.179.043 1.995.043H12.228c.816 0 1.469 0 1.995-.043.54-.044 1.006-.137 1.434-.355a3.65 3.65 0 001.595-1.595c.218-.428.31-.893.355-1.434.043-.527.043-1.179.043-1.995V8.772c0-.438 0-.83-.007-1.179a.668.668 0 00-.005-.217 11.565 11.565 0 00-.031-.6c-.044-.54-.137-1.005-.355-1.433a3.65 3.65 0 00-1.595-1.595c-.428-.218-.893-.31-1.434-.355a11.428 11.428 0 00-.573-.03V2.5h-1.3v.85zm-8.7 4.8v3.05c0 .85 0 1.45.039 1.918.037.46.108.735.217.949a2.35 2.35 0 001.027 1.027c.214.109.49.18.95.217.467.039 1.066.039 1.917.039h4.4c.85 0 1.45 0 1.918-.039.46-.037.735-.108.949-.217a2.35 2.35 0 001.027-1.027c.109-.214.18-.49.217-.95.038-.467.039-1.066.039-1.917V8.8v-.65H3.65z" clip-rule="evenodd"/>
</svg>
