<svg xmlns="http://www.w3.org/2000/svg" fill="currentColor" viewBox="0 0 20 20">
  <path fill-rule="evenodd" d="M7.5 4.65a1.85 1.85 0 100 3.7 1.85 1.85 0 000-3.7zM4.35 6.5a3.15 3.15 0 116.3 0 3.15 3.15 0 01-6.3 0zM6 11.35A3.65 3.65 0 002.35 15c0 .911.739 1.65 1.65 1.65h7A1.65 1.65 0 0012.65 15 3.65 3.65 0 009 11.35H6zM3.65 15A2.35 2.35 0 016 12.65h3A2.35 2.35 0 0111.35 15a.35.35 0 01-.35.35H4a.35.35 0 01-.35-.35zm9.85-3.65a.65.65 0 100 1.3h.5A2.35 2.35 0 0116.35 15a.35.35 0 01-.35.35h-1a.65.65 0 100 1.3h1A1.65 1.65 0 0017.65 15 3.65 3.65 0 0014 11.35h-.5zm-1.185-7.893a.65.65 0 10-.336 1.256 1.85 1.85 0 010 3.574.65.65 0 00.336 1.255 3.15 3.15 0 000-6.085z" clip-rule="evenodd"/>
</svg>
