<svg xmlns="http://www.w3.org/2000/svg" fill="currentColor" viewBox="0 0 20 20">
  <path stroke="#212C33" d="M4.98 8a1.498 1.498 0 00-.855.625c-.229.375-.25.834-.037 1.77M4.98 8l11.747-1.439a15.16 15.16 0 01.02 1.064c0 .516-.012.828-.04 1.202-.03.4-.116 1.304-.24 1.742-.087.301-.372.978-.654 1.384 0 0-1.074 1.25-1.19 1.812-.086.41-.088.523-.093.707-.001.07-.003.15-.01.258-.008.138.004.29.023.431a7.342 7.342 0 01-.498.043M4.979 8c.174-.035.54-.039.763.02L4.98 8zm-.89 2.395c.19.837.682 1.369 1.018 1.732.088.095.166.179.224.253l.832.921c.146.128.337.31.53.493.224.212.45.428.614.567m-3.219-3.966l.488-.111s0 0 0 0m-.488.111l.488-.11m2.731 4.076c.218.183.269.552.269.858l.5.007m-.769-.865l.322-.382c.208.175.313.408.369.605a2.303 2.303 0 01.078.642m-.769-.865l.325-.38c-.14-.12-.338-.306-.55-.507l-.047-.045c-.182-.172-.37-.351-.52-.484l-.802-.888c-.085-.106-.18-.21-.279-.318-.33-.359-.7-.762-.858-1.455l3.5 4.942m0 0a3.679 3.679 0 01-.037.5l.3.005c.894.016 1.824.032 2.335-.032m0 0c.341-.043.826-.73 1.05-1.113.143-.242.51-.305.682.023m-1.732 1.09l-.062-.496s0 0 0 0l.062.496zm1.732-1.09c.125.238.61 1.016 1 1.078.203.033.486.027.73.013l-.004-.02a4.906 4.906 0 01-.088-.476m-1.638-.595l.443-.232s0 0 0 0m-.443.232l.443-.232m1.194.827a2.774 2.774 0 01-.023-.503V14.7c.005-.09.007-.163.009-.23.004-.197.008-.352.103-.807h0c.047-.228.174-.472.295-.674.13-.216.285-.44.431-.638a14.292 14.292 0 01.525-.664l.032-.038c.24-.356.497-.963.57-1.217.108-.38.192-1.232.223-1.642m-2.164 6.414c-.21.01-.412.011-.545-.009m2.708-6.405c.027-.36.04-.66.04-1.165v-.198c0-.249 0-.319-.02-.846h0c-.01-.265-.083-.405-.145-.478a.393.393 0 00-.25-.133c-.248-.038-.5.09-.582.22v.001c-.067.104-.12.26-.162.414-.005.017-.012.04-.018.066l-.036.129a.722.722 0 01-.07.152v.001c-.014.021-.075.114-.197.175a.502.502 0 01-.698-.28v-.001a.576.576 0 01-.03-.131v-.002l-.001-.002h0a10.435 10.435 0 00-.115-.788 4.51 4.51 0 00-.1-.426 1.054 1.054 0 00-.089-.23h0l2.473 3.522zm0 0l-5.566 6.378c.062-.048.137-.124.222-.222.167-.197.328-.439.43-.612v-.002a.908.908 0 01.742-.448c.335-.013.644.169.814.493m.65.818c-.007-.003-.032-.016-.076-.053a1.721 1.721 0 01-.226-.24 3.759 3.759 0 01-.348-.525m.65.818l.002.002-.015-.003.013.001zm-8.923-4.91c-.21-.921-.143-1.205-.024-1.4h0a.924.924 0 01.29-.282 1.11 1.11 0 01.213-.106l.02-.006h.003a1.597 1.597 0 01.546.015l.058.032c.078.043.107.059.137.08l-1.243 1.666zm3.22-4.567c.091.198.18.476.257.715l.006.021c.032.101.066.207.093.277.007.02.018.046.031.073l.001.002c.007.014.042.088.109.154a.506.506 0 00.862-.343c.007-.11.009-.243.01-.372v-.021c.002-.129.003-.262.008-.395.011-.3.04-.527.087-.649h0c.081-.212.218-.349.362-.392h.002c.22-.067.47-.085.67-.044h.001c.084.017.186.06.278.121a.544.544 0 01.155.139h0c.125.216.21.6.258.986.023.181.036.344.044.46l.004.05.006.093v.001a.828.828 0 00.026.14.51.51 0 00.155.235.5.5 0 00.746-.115c.045-.071.06-.138.063-.148 0 0 0 0 0 0h0l.002-.007c.025-.108.04-.255.052-.38l.011-.116c.01-.105.02-.212.033-.323.017-.152.037-.294.063-.414a.836.836 0 01.066-.209.612.612 0 01.172-.155.918.918 0 01.124-.07c.034-.015.052-.019.052-.019h-.002l-.088-.492c.294-.052.656-.068.964-.008L7.796 5.718z"/>
  <path fill-rule="evenodd" stroke="#212C33" stroke-linejoin="round" stroke-width=".75" d="M6.573 5.036c.48-.178 1.427-.069 1.677.473.213.462.396 1.241.406 1.075.024-.369-.024-1.167.137-1.584.117-.304.347-.59.686-.69.285-.087.62-.117.916-.056.313.064.642.287.765.5.362.622.368 1.898.385 1.83.064-.272.07-1.229.283-1.584.141-.235.497-.445.687-.479.294-.052.656-.068.964-.008.25.05.586.344.677.487.22.344.342 1.316.38 1.658.015.141.073-.393.292-.736.406-.639 1.844-.763 1.898.64.026.653.02.623.02 1.063 0 .516-.012.828-.04 1.202-.03.4-.116 1.304-.24 1.742-.087.301-.372.978-.654 1.384 0 0-1.074 1.25-1.19 1.812-.118.563-.079.567-.103.965-.023.4.121.923.121.923s-.8.104-1.234.034c-.39-.062-.875-.84-1-1.078-.172-.328-.539-.265-.682-.023-.224.383-.709 1.07-1.05 1.113-.669.084-2.055.03-3.14.02 0 0 .185-1.01-.227-1.358-.305-.26-.83-.784-1.144-1.06l-.832-.92c-.283-.36-1.002-.93-1.243-1.986-.213-.936-.192-1.395.037-1.77.232-.38.67-.589.854-.625.208-.042.692-.039.875.062.223.123.313.16.488.391.23.307.312.456.213.121-.076-.262-.322-.595-.434-.97-.109-.36-.4-.943-.38-1.526.008-.22.103-.77.832-1.042z" clip-rule="evenodd"/>
  <path fill-rule="evenodd" d="M13.566 12.734V9.275z" clip-rule="evenodd"/>
  <path stroke="#212C33" stroke-linecap="round" stroke-width=".75" d="M13.566 12.734V9.275"/>
  <path fill-rule="evenodd" d="M11.55 12.746l-.015-3.473z" clip-rule="evenodd"/>
  <path stroke="#212C33" stroke-linecap="round" stroke-width=".75" d="M11.55 12.746l-.015-3.473"/>
  <g>
    <path fill-rule="evenodd" d="M9.555 9.305l.02 3.426z" clip-rule="evenodd"/>
    <path stroke="#212C33" stroke-linecap="round" stroke-width=".75" d="M9.555 9.305l.02 3.426"/>
  </g>
</svg>
