<svg xmlns="http://www.w3.org/2000/svg" fill="currentColor" viewBox="0 0 20 20">
  <path fill-rule="evenodd" d="M10.551 2.717a2.65 2.65 0 00-1.102 0c-.413.088-.79.306-1.293.597l-.081.047-2.862 1.652-.081.047c-.504.29-.881.508-1.164.822a2.65 2.65 0 00-.55.954c-.13.401-.13.836-.13 1.418V11.746c0 .582 0 1.017.13 1.418.114.353.302.678.55.954.283.314.66.531 1.164.822l.08.047 2.863 1.652.081.047c.504.291.88.509 1.293.597a2.65 2.65 0 001.102 0c.413-.088.79-.306 1.293-.597l.081-.047 2.862-1.652.081-.047c.504-.29.881-.508 1.164-.822a2.65 2.65 0 00.55-.954c.13-.401.13-.836.13-1.418V8.254c0-.582 0-1.017-.13-1.418a2.65 2.65 0 00-.55-.955c-.283-.313-.66-.53-1.164-.82l-.08-.048-2.863-1.652-.081-.047c-.504-.291-.88-.509-1.293-.597zM9.719 3.99c.185-.04.377-.04.562 0 .185.04.373.14.994.498l2.862 1.652c.621.359.802.472.928.612.127.141.223.307.281.487.059.18.066.393.066 1.11v3.304c0 .717-.007.93-.066 1.11a1.35 1.35 0 01-.28.487c-.127.14-.308.253-.929.612l-2.862 1.652c-.62.359-.81.459-.994.498-.185.04-.377.04-.562 0-.185-.04-.373-.14-.994-.498l-2.862-1.652c-.621-.359-.802-.472-.928-.612a1.35 1.35 0 01-.281-.487c-.059-.18-.066-.393-.066-1.11V8.348c0-.717.007-.93.066-1.11a1.35 1.35 0 01.28-.487c.127-.14.308-.253.929-.612l2.862-1.652c.62-.359.81-.459.994-.498zm-1.07 6.01a1.35 1.35 0 112.7 0 1.35 1.35 0 01-2.7 0zM10 7.35a2.65 2.65 0 100 5.3 2.65 2.65 0 000-5.3z" clip-rule="evenodd"/>
</svg>
