<svg xmlns="http://www.w3.org/2000/svg" fill="currentColor" viewBox="0 0 20 20">
  <path fill-rule="evenodd" d="M10.5 3.65c.496 0 .649.003.763.026a1.35 1.35 0 011.061 1.06c.023.115.026.268.026.764h1.3v-.068c0-.398 0-.692-.05-.949a2.65 2.65 0 00-2.083-2.082c-.257-.051-.55-.051-.95-.051H7.773c-.816 0-1.469 0-1.995.043-.54.044-1.006.137-1.434.355a3.65 3.65 0 00-1.595 1.595c-.218.428-.31.893-.355 1.434-.043.526-.043 1.179-.043 1.995V10.568c0 .398 0 .692.05.949a2.65 2.65 0 002.083 2.082c.257.051.55.051.95.051H5.5v-1.3c-.496 0-.649-.003-.763-.026a1.35 1.35 0 01-1.061-1.06c-.023-.115-.026-.268-.026-.764V7.8c0-.85 0-1.45.039-1.917.037-.46.108-.736.217-.95a2.35 2.35 0 011.027-1.027c.214-.109.49-.18.95-.217C6.35 3.65 6.949 3.65 7.8 3.65h2.7zm1.3 2.7h-.028c-.816 0-1.469 0-1.995.043-.54.044-1.006.137-1.434.355a3.65 3.65 0 00-1.595 1.595c-.218.428-.31.893-.355 1.434-.043.527-.043 1.179-.043 1.995V12.228c0 .816 0 1.469.043 1.995.044.54.137 1.006.355 1.434a3.65 3.65 0 001.595 1.595c.428.218.893.31 1.434.355.527.043 1.179.043 1.995.043H12.228c.816 0 1.469 0 1.995-.043.54-.044 1.006-.137 1.434-.355a3.651 3.651 0 001.595-1.595c.218-.428.31-.893.355-1.434.043-.527.043-1.179.043-1.995V11.772c0-.816 0-1.469-.043-1.995-.044-.54-.137-1.006-.355-1.434a3.65 3.65 0 00-1.595-1.595c-.428-.218-.893-.31-1.434-.355-.527-.043-1.179-.043-1.995-.043H11.8zM8.933 7.906c.214-.109.49-.18.95-.217.467-.038 1.066-.039 1.917-.039h.4c.85 0 1.45 0 1.918.039.46.037.735.108.949.217a2.35 2.35 0 011.027 1.027c.109.214.18.49.217.95.038.467.039 1.066.039 1.917v.4c0 .85 0 1.45-.039 1.918-.037.46-.108.735-.217.949a2.35 2.35 0 01-1.027 1.027c-.214.109-.49.18-.95.217-.467.038-1.066.039-1.917.039h-.4c-.85 0-1.45 0-1.917-.039-.46-.037-.736-.108-.95-.217a2.35 2.35 0 01-1.027-1.027c-.109-.214-.18-.49-.217-.95-.038-.467-.039-1.066-.039-1.917v-.4c0-.85 0-1.45.039-1.917.037-.46.108-.736.217-.95a2.35 2.35 0 011.027-1.027z" clip-rule="evenodd"/>
</svg>
