<svg xmlns="http://www.w3.org/2000/svg" fill="currentColor" viewBox="0 0 20 20">
  <path fill-rule="evenodd" d="M9.06 6.85c.064.451.178.887.337 1.3H2.5v-1.3h6.56z" clip-rule="evenodd"/>
  <path fill-rule="evenodd" d="M16.35 11.848c-.003.523-.011.93-.039 1.27-.037.46-.108.735-.217.949a2.35 2.35 0 01-1.027 1.027c-.214.109-.49.18-.95.217-.467.039-1.066.039-1.917.039H7.8c-.85 0-1.45 0-1.917-.039-.46-.037-.736-.108-.95-.217a2.35 2.35 0 01-1.027-1.027c-.109-.214-.18-.49-.217-.95-.039-.467-.039-1.066-.039-1.917V8.8c0-.85 0-1.45.039-1.917.037-.46.108-.736.217-.95a2.35 2.35 0 011.027-1.027c.214-.109.49-.18.95-.217C6.35 4.65 6.949 4.65 7.8 4.65h1.352c.105-.455.262-.89.463-1.3H7.772c-.816 0-1.469 0-1.995.043-.54.044-1.006.137-1.434.355a3.65 3.65 0 00-1.595 1.595c-.218.428-.31.893-.355 1.434-.043.526-.043 1.179-.043 1.995v2.456c0 .816 0 1.469.043 1.995.044.54.137 1.006.355 1.434a3.65 3.65 0 001.595 1.595c.428.218.893.31 1.434.355.526.043 1.179.043 1.995.043H12.228c.816 0 1.469 0 1.995-.043.54-.044 1.006-.137 1.434-.355a3.65 3.65 0 001.595-1.595c.218-.428.31-.893.355-1.434.04-.492.043-1.095.043-1.838-.41.201-.845.358-1.3.463z" clip-rule="evenodd"/>
  <path stroke="currentColor" stroke-linejoin="round" stroke-width="1.3" d="M15 10a4 4 0 100-8 4 4 0 000 8zM16.5 7.5l-3-3M13.5 7.5l3-3"/>
</svg>
