<svg xmlns="http://www.w3.org/2000/svg" fill="none" viewBox="0 0 20 20">
  <path stroke="currentColor" stroke-linejoin="round" stroke-width="1.3" d="M5.559 4.801c.53-.661.794-.992 1.122-1.23a3 3 0 01.964-.463C8.036 3 8.46 3 9.307 3h1.386c.847 0 1.27 0 1.662.108a3 3 0 01.964.463c.328.238.593.569 1.122 1.23l1.77 2.213c.282.353.423.529.478.724a1 1 0 01.004.528c-.053.196-.191.374-.468.73l-4.962 6.38c-.43.553-.646.83-.907.93a1 1 0 01-.712 0c-.261-.1-.477-.377-.907-.93l-4.962-6.38c-.277-.356-.415-.534-.468-.73a1 1 0 01.004-.528c.055-.195.196-.371.477-.724l1.77-2.213z"/>
  <path stroke="currentColor" stroke-linejoin="round" stroke-width="1.3" d="M10 3l3 5-3 8-3-8 3-5zM16.5 8h-13"/>
</svg>
