<svg xmlns="http://www.w3.org/2000/svg" data-name="Layer 1" viewBox="0 0 100 125" x="0px" y="0px"><title>a</title><path d="M23.331,29.486A1.364,1.364,0,0,1,24.7,28.122h27.72a1.364,1.364,0,1,1,0,2.727H24.7A1.364,1.364,0,0,1,23.331,29.486ZM24.7,40.436H57.2a1.364,1.364,0,0,0,0-2.727H24.7a1.364,1.364,0,1,0,0,2.727Zm0,9.587h41.49a1.364,1.364,0,0,0,0-2.728H24.7a1.364,1.364,0,1,0,0,2.728ZM84.951,37.24,87.232,39.2a1.36,1.36,0,0,1,.534,1.08V91.3a3.709,3.709,0,0,1-3.7,3.7H9.645a3.71,3.71,0,0,1-3.706-3.7V40.373c0-.032,0-.064,0-.1a1.364,1.364,0,0,1,.476-1.035l7.761-6.654V20.271a4.07,4.07,0,0,1,4.065-4.065H33.275l.007-.006L45.96,5.328a1.364,1.364,0,0,1,1.771,0L60.455,16.144c.023.02.044.041.065.062h1.624A16.57,16.57,0,1,1,84.951,37.24Zm-21.3-14.8A13.844,13.844,0,1,0,77.5,8.6,13.859,13.859,0,0,0,63.651,22.444ZM37.464,16.206H56.317L46.851,8.157ZM16.9,20.271V46.712l29.949,25.68L76.384,47.066V38.977A16.576,16.576,0,0,1,61.3,18.933H18.236A1.339,1.339,0,0,0,16.9,20.271Zm-7.5,20.005,4.778,4.1V36.179ZM85.039,91.3V43.237L57.973,66.445,76.4,82.243a1.364,1.364,0,0,1-1.776,2.07L55.878,68.242l-8.143,6.982a1.365,1.365,0,0,1-1.775,0l-8.143-6.982L19.074,84.313a1.363,1.363,0,0,1-1.775-2.07l18.423-15.8L14.805,48.509a1.326,1.326,0,0,1-.295-.253l-5.843-5.01V91.3a.979.979,0,0,0,.978.978H84.061A.979.979,0,0,0,85.039,91.3ZM82.079,38.37a16.441,16.441,0,0,1-2.968.566v5.792L84.3,40.276ZM69.21,23.867l6.462,5.209a1.367,1.367,0,0,0,.856.3,1.543,1.543,0,0,0,.167-.01,1.366,1.366,0,0,0,.922-.533l8.4-11.14a1.364,1.364,0,0,0-2.178-1.642L76.287,26.068l-5.365-4.324a1.364,1.364,0,1,0-1.712,2.123Z"/></svg>