<svg xmlns="http://www.w3.org/2000/svg" fill="currentColor" viewBox="0 0 20 20">
  <path d="M15.293 6.293l-.46.46.46-.46zm-9.655 10.38l.295-.58-.295.58zm-1.311-1.311l-.58.295.58-.295zm10.035 1.311l.295.58-.295-.58zm1.311-1.311l-.58-.295.58.295zm-4.473.988H8.8v1.3h2.4v-1.3zM8.8 3.65H11v-1.3H8.8v1.3zM4.65 12.2V7.8h-1.3v4.4h1.3zM15.35 8v4.2h1.3V8h-1.3zm-3.102-3.833l2.585 2.586.92-.92-2.586-2.586-.92.92zM8.8 2.35c-.83 0-1.49 0-2.023.043-.54.044-1.006.137-1.434.355l.59 1.158c.214-.109.49-.18.95-.217C7.35 3.65 7.949 3.65 8.8 3.65v-1.3zM4.65 7.8c0-.85 0-1.45.039-1.917.037-.46.108-.736.217-.95l-1.158-.59c-.218.428-.31.893-.355 1.434C3.349 6.31 3.35 6.97 3.35 7.8h1.3zm.693-5.052a3.65 3.65 0 00-1.595 1.595l1.158.59a2.35 2.35 0 011.027-1.027l-.59-1.158zm9.49 4.005c.331.33.517.78.517 1.247h1.3c0-.813-.323-1.592-.897-2.167l-.92.92zM8.8 16.35c-.85 0-1.45 0-1.917-.039-.46-.037-.736-.108-.95-.217l-.59 1.158c.428.218.893.31 1.434.355.533.044 1.194.043 2.023.043v-1.3zM3.35 12.2c0 .83 0 1.49.043 2.023.044.54.137 1.006.355 1.434l1.158-.59c-.109-.214-.18-.49-.217-.95-.038-.467-.039-1.066-.039-1.917h-1.3zm2.583 3.894a2.35 2.35 0 01-1.027-1.027l-1.158.59a3.65 3.65 0 001.595 1.595l.59-1.158zM11 3.65c.468 0 .917.186 1.248.517l.919-.92A3.064 3.064 0 0011 2.35v1.3zm.2 14c.83 0 1.49 0 2.023-.043.54-.044 1.006-.137 1.434-.355l-.59-1.158c-.214.109-.49.18-.95.217-.467.038-1.066.039-1.917.039v1.3zm4.15-5.45c0 .85 0 1.45-.039 1.918-.037.46-.108.735-.217.949l1.158.59c.218-.428.31-.893.355-1.434.044-.533.043-1.194.043-2.023h-1.3zm-.693 5.052a3.65 3.65 0 001.595-1.595l-1.158-.59a2.35 2.35 0 01-1.027 1.027l.59 1.158z"/>
  <path d="M11.546 6.891l.295-.58-.295.58zM16 6.35h-3.4v1.3H16v-1.3zm-4.35-.95V3h-1.3v2.4h1.3zm.95.95c-.29 0-.47 0-.604-.011-.126-.01-.155-.027-.155-.027l-.59 1.158c.214.11.432.147.64.164.199.017.44.016.709.016v-1.3zm-2.25-.95c0 .27 0 .51.016.71.017.207.055.425.164.64l1.158-.591s-.016-.029-.027-.155a8.373 8.373 0 01-.011-.604h-1.3zm1.491.912a.35.35 0 01-.153-.153l-1.158.59c.158.31.41.563.72.721l.591-1.158zM7 10.15h4v-1.3H7v1.3zM7 13.15h6v-1.3H7v1.3z"/>
</svg>
