<svg xmlns="http://www.w3.org/2000/svg"  fill="none" viewBox="0 0 20 20">
  <g class="icon= diskette">
    <path fill="currentColor" d="M16.972 5.68l.632-.151-.632.152zm-.44-.649l-.46.46.46-.46zm.32.36l.555-.339-.554.34zM14.32 3.029l-.152.632.152-.632zm.65.44l.46-.459-.46.46zm-.36-.32l-.34.554.34-.555zM4.637 16.672l.295-.58-.295.58zm-1.311-1.311l-.58.295.58-.295zm12.035 1.311l.295.58-.295-.58zm1.311-1.311l.58.295-.58-.295zm-4.473.988H7.8v1.3h4.4v-1.3zM7.8 3.65h6.037v-1.3H7.8v1.3zM3.65 12.2V7.8h-1.3v4.4h1.3zm12.7-6.037V12.2h1.3V6.163h-1.3zm-1.841-2.235l1.563 1.563.919-.92-1.563-1.562-.919.92zm3.141 2.235c0-.214.004-.427-.046-.634l-1.264.304c.006.022.01.054.01.33h1.3zm-1.578-.672c.195.195.214.22.226.24l1.109-.679c-.111-.182-.265-.33-.416-.48l-.92.919zm1.532.038a1.651 1.651 0 00-.197-.477l-1.109.68c.02.03.034.065.042.1l1.264-.303zM7.8 2.35c-.83 0-1.49 0-2.023.043-.54.044-1.006.137-1.434.355l.59 1.158c.214-.109.49-.18.95-.217C6.35 3.65 6.949 3.65 7.8 3.65v-1.3zM3.65 7.8c0-.85 0-1.45.039-1.917.037-.46.108-.736.217-.95l-1.158-.59c-.218.428-.31.893-.355 1.434C2.349 6.31 2.35 6.97 2.35 7.8h1.3zm.693-5.052a3.65 3.65 0 00-1.595 1.595l1.158.59a2.35 2.35 0 011.027-1.027l-.59-1.158zm9.494.902c.276 0 .308.004.33.01l.304-1.264c-.207-.05-.42-.046-.634-.046v1.3zm1.591-.641c-.15-.151-.298-.304-.48-.416l-.68 1.109c.02.012.046.031.241.226l.92-.919zm-1.26.65c.035.01.07.023.1.043l.68-1.109a1.65 1.65 0 00-.477-.197l-.303 1.264zM7.8 16.35c-.85 0-1.45 0-1.917-.039-.46-.037-.736-.108-.95-.217l-.59 1.158c.428.218.893.31 1.434.355.533.044 1.194.043 2.023.043v-1.3zM2.35 12.2c0 .83 0 1.49.043 2.023.044.54.137 1.006.355 1.434l1.158-.59c-.109-.214-.18-.49-.217-.95-.038-.467-.039-1.066-.039-1.917h-1.3zm2.583 3.894a2.35 2.35 0 01-1.027-1.027l-1.158.59a3.65 3.65 0 001.595 1.595l.59-1.158zM12.2 17.65c.83 0 1.49 0 2.023-.043.54-.044 1.006-.137 1.434-.355l-.59-1.158c-.214.109-.49.18-.95.217-.467.038-1.066.039-1.917.039v1.3zm4.15-5.45c0 .85 0 1.45-.039 1.918-.037.46-.108.735-.217.949l1.158.59c.218-.428.31-.893.355-1.434.044-.533.043-1.194.043-2.023h-1.3zm-.693 5.052a3.65 3.65 0 001.595-1.595l-1.158-.59a2.35 2.35 0 01-1.027 1.027l.59 1.158z" class="vector"/>
    <path fill="currentColor" d="M11.954 7.891l.295.58-.295-.58zm.437-.437l.58.295-.58-.295zM10.9 7.35H9.1v1.3h1.8v-1.3zM11.85 3v3.4h1.3V3h-1.3zm-3.7 3.4V3h-1.3v3.4h1.3zm.95.95c-.29 0-.47 0-.604-.011-.126-.01-.155-.027-.155-.027l-.59 1.158c.214.11.432.147.64.164.199.017.44.016.709.016v-1.3zM6.85 6.4c0 .27 0 .51.016.71.017.207.055.425.164.64l1.158-.591s-.016-.029-.027-.155A8.402 8.402 0 018.15 6.4h-1.3zm1.491.912a.35.35 0 01-.153-.153l-1.158.59c.158.31.41.563.72.721l.591-1.158zM10.9 8.65c.27 0 .51 0 .71-.016.207-.017.425-.055.64-.164l-.591-1.158s-.029.016-.155.027a8.403 8.403 0 01-.604.011v1.3zm.95-2.25c0 .29 0 .47-.011.604-.01.126-.027.155-.027.155l1.158.59c.11-.214.147-.432.164-.64.016-.199.016-.44.016-.709h-1.3zm.4 2.07c.31-.158.562-.41.72-.72l-1.158-.591a.35.35 0 01-.153.153l.59 1.158z" class="vector_2"/>
    <path stroke="currentColor" stroke-linejoin="round" stroke-width="1.3" d="M6 15.2c0-1.12 0-1.68.218-2.108a2 2 0 01.874-.874C7.52 12 8.08 12 9.2 12h1.6c1.12 0 1.68 0 2.108.218a2 2 0 01.874.874C14 13.52 14 14.08 14 15.2V17H6v-1.8z" class="vector_3"/>
  </g>
</svg>
