<svg xmlns="http://www.w3.org/2000/svg" fill="currentColor" viewBox="0 0 20 20">
  <path d="M15.618 9.098l.2-.618-.2.618zm1.284 1.284l.618-.2-.618.2zm-6.559-4.453l.607-.232-.607.232zm-5.705 9.744l-.295.58.295-.58zm-1.311-1.311l-.58.295.58-.295zm11.6 1.491l-.2-.618.2.618zm-4.156-8.14l.607-.231-.607.232zm1.535 1.259l-.108.64.108-.64zm.494 6.378h-5v1.3h5v-1.3zM6.847 4.65h.094v-1.3h-.094v1.3zM3.65 11.2V7.847h-1.3V11.2h1.3zm9.39-1.55h1.16v-1.3h-1.16v1.3zm1.16 0c.795 0 1.039.008 1.217.066l.402-1.236c-.424-.138-.925-.13-1.619-.13v1.3zm3.45 2.15c0-.694.008-1.195-.13-1.619l-1.236.402c.058.178.066.422.066 1.217h1.3zm-2.233-2.084c.411.134.733.456.867.867l1.236-.402A2.65 2.65 0 0015.82 8.48l-.402 1.236zM6.847 3.35c-.752 0-1.235-.004-1.65.09l.286 1.267c.238-.053.541-.057 1.364-.057v-1.3zM3.65 7.847c0-.823.004-1.126.057-1.364L2.44 6.198c-.093.414-.089.897-.089 1.649h1.3zm1.548-4.408a3.65 3.65 0 00-2.759 2.759l1.268.285a2.35 2.35 0 011.776-1.776L5.198 3.44zm6.04 3.434c-.107-.533-.174-.877-.288-1.176l-1.214.464c.065.172.11.385.227.966l1.274-.254zM6.94 4.65c.592 0 .81.002.991.033L8.15 3.4c-.315-.053-.665-.051-1.208-.051v1.3zm4.01 1.047a3.65 3.65 0 00-2.802-2.296l-.217 1.282A2.35 2.35 0 019.736 6.16l1.214-.464zM7.8 15.35c-.85 0-1.45 0-1.917-.039-.46-.037-.736-.108-.95-.217l-.59 1.158c.428.218.893.31 1.434.355.533.044 1.194.043 2.023.043v-1.3zM2.35 11.2c0 .83 0 1.49.043 2.023.044.54.137 1.006.355 1.434l1.158-.59c-.109-.214-.18-.49-.217-.95-.038-.467-.039-1.066-.039-1.917h-1.3zm2.583 3.894a2.35 2.35 0 01-1.027-1.027l-1.158.59a3.65 3.65 0 001.595 1.595l.59-1.158zM12.8 16.65c1.066 0 1.753.008 2.328-.179l-.402-1.236c-.33.107-.759.115-1.926.115v1.3zm3.55-4.85c0 1.167-.008 1.597-.115 1.926l1.236.402c.187-.575.179-1.262.179-2.328h-1.3zm-1.222 4.671a3.65 3.65 0 002.343-2.343l-1.236-.402a2.35 2.35 0 01-1.509 1.509l.402 1.236zM9.963 7.127c.069.347.117.598.201.819l1.215-.464c-.036-.094-.063-.214-.142-.61l-1.274.255zM13.04 8.35c-.404 0-.527-.002-.625-.019l-.217 1.282c.232.04.488.037.842.037v-1.3zm-2.876-.404a2.65 2.65 0 002.034 1.667l.216-1.282a1.35 1.35 0 01-1.035-.85l-1.215.465z"/>
  <path d="M4.638 15.673l-.295.58.295-.58zm-1.311-1.311l-.58.295.58-.295zm12.035 1.311l-.295-.58.295.58zm1.311-1.311l.58.295-.58-.295zm0-8.724l-.58.295.58-.295zM12.2 15.35H7.8v1.3h4.4v-1.3zm4.15-6.55v2.4h1.3V8.8h-1.3zM10 4.65h2.2v-1.3H10v1.3zm-2.2 0H10v-1.3H7.8v1.3zM3.65 11.2V8.8h-1.3v2.4h1.3zM7.8 3.35c-.83 0-1.49 0-2.023.043-.54.044-1.006.137-1.434.355l.59 1.158c.214-.109.49-.18.95-.217C6.35 4.65 6.949 4.65 7.8 4.65v-1.3zM3.65 8.8c0-.85 0-1.45.039-1.917.037-.46.108-.736.217-.95l-1.158-.59c-.218.428-.31.893-.355 1.434C2.349 7.31 2.35 7.97 2.35 8.8h1.3zm.693-5.052a3.65 3.65 0 00-1.595 1.595l1.158.59a2.35 2.35 0 011.027-1.027l-.59-1.158zM7.8 15.35c-.85 0-1.45 0-1.917-.039-.46-.037-.736-.108-.95-.217l-.59 1.158c.428.218.893.31 1.434.355.533.044 1.194.043 2.023.043v-1.3zM2.35 11.2c0 .83 0 1.49.043 2.023.044.54.137 1.006.355 1.434l1.158-.59c-.109-.214-.18-.49-.217-.95-.038-.467-.039-1.066-.039-1.917h-1.3zm2.583 3.894a2.35 2.35 0 01-1.027-1.027l-1.158.59a3.65 3.65 0 001.595 1.595l.59-1.158zM12.2 16.65c.83 0 1.49 0 2.023-.043.54-.044 1.006-.137 1.434-.355l-.59-1.158c-.214.109-.49.18-.95.217-.467.039-1.066.039-1.917.039v1.3zm4.15-5.45c0 .85 0 1.45-.039 1.918-.037.46-.108.735-.217.949l1.158.59c.218-.428.31-.893.355-1.434.044-.533.043-1.194.043-2.023h-1.3zm-.693 5.052a3.65 3.65 0 001.595-1.595l-1.158-.59a2.35 2.35 0 01-1.027 1.027l.59 1.158zM17.65 8.8c0-.83 0-1.49-.043-2.023-.044-.54-.137-1.006-.355-1.434l-1.158.59c.109.214.18.49.217.95.038.467.039 1.066.039 1.917h1.3zM12.2 4.65c.85 0 1.45 0 1.918.039.46.037.735.108.949.217l.59-1.158c-.428-.218-.893-.31-1.434-.355-.533-.044-1.194-.043-2.023-.043v1.3zm5.052.693a3.65 3.65 0 00-1.595-1.595l-.59 1.158a2.35 2.35 0 011.027 1.027l1.158-.59z"/>
</svg>
