<svg xmlns="http://www.w3.org/2000/svg" fill="none" viewBox="0 0 20 20">
  <path stroke="currentColor" stroke-width="1.3" d="M4.5 7h11v4.2c0 1.68 0 2.52-.327 3.162a3 3 0 01-1.311 1.311C13.22 16 12.38 16 10.7 16H9.3c-1.68 0-2.52 0-3.162-.327a3 3 0 01-1.311-1.311C4.5 13.72 4.5 12.88 4.5 11.2V7zM10 6.5V16"/>
  <path stroke="currentColor" stroke-linejoin="round" stroke-width="1.3" d="M3 7h14M4 11h12"/>
  <path stroke="currentColor" stroke-width="1.3" d="M6 6a2 2 0 012-2v0a2 2 0 012 2v1H6V6zM10 6a2 2 0 012-2v0a2 2 0 012 2v1h-4V6z"/>
</svg>
