<svg xmlns="http://www.w3.org/2000/svg" fill="none" viewBox="0 0 20 20">
  <path stroke="currentColor" stroke-linejoin="round" stroke-width="1.3" d="M6.725 5.057C7.879 3.98 8.455 3.44 9.112 3.238a3 3 0 011.776 0c.656.203 1.233.742 2.387 1.819l1.258 1.173c.924.863 1.386 1.295 1.425 1.668a1 1 0 01-.338.856C15.338 9 14.705 9 13.44 9H6.56c-1.265 0-1.898 0-2.18-.246a1 1 0 01-.338-.856c.039-.373.501-.805 1.426-1.668l1.257-1.173zM5 9l.504 4.03c.158 1.266.237 1.898.502 2.391a3 3 0 001.56 1.377C8.088 17 8.726 17 10 17v0c1.274 0 1.912 0 2.434-.202a3 3 0 001.56-1.377c.265-.493.344-1.125.502-2.39L15 9M10 11.5v3"/>
</svg>
