<svg width="15" height="16" viewBox="0 0 15 16" fill="none" xmlns="http://www.w3.org/2000/svg">
<path fill-rule="evenodd" clip-rule="evenodd" d="M7.23462 0C4.68798 0 2.62393 2.04648 2.62393 4.57143C2.62393 6.73371 4.64511 9.70795 6.01141 11.4702C6.63077 12.2695 7.83923 12.2695 8.45783 11.4702C9.82413 9.70795 11.8453 6.73371 11.8453 4.57143C11.8453 2.04648 9.78125 0 7.23462 0ZM7.23462 2.93899C8.14446 2.93899 8.88108 3.66933 8.88108 4.57143C8.88108 5.47276 8.14369 6.20387 7.23462 6.20387C6.32555 6.20387 5.58816 5.47352 5.58816 4.57143C5.58816 3.66933 6.32478 2.93899 7.23462 2.93899ZM1.31517 11.625C1.54878 11.0467 2.11391 10.6667 2.7425 10.6667H3.39238C3.81656 10.6667 4.16083 11.008 4.16083 11.4286C4.16083 11.8491 3.81656 12.1905 3.39238 12.1905H2.741L2.03109 13.9539C1.92965 14.2045 2.11477 14.4762 2.3868 14.4762H12.0824C12.3545 14.4762 12.5403 14.2045 12.4396 13.9539L11.7282 12.1905H11.0769C10.6527 12.1905 10.3084 11.8491 10.3084 11.4286C10.3084 11.008 10.6527 10.6667 11.0769 10.6667H11.7267C12.3553 10.6667 12.9205 11.0467 13.1541 11.625L14.0756 13.9107C14.479 14.9119 13.7371 16 12.6498 16H1.81947C0.732113 16 -0.00979841 14.9119 0.393636 13.9107L1.31517 11.625Z" fill="#1184D6"/>
</svg>
