<svg xmlns="http://www.w3.org/2000/svg" fill="currentColor" viewBox="0 0 20 20">
  <path fill-rule="evenodd" d="M7.8 2.35h-.028c-.816 0-1.468 0-1.995.043-.54.044-1.006.137-1.434.355a3.65 3.65 0 00-1.595 1.595c-.218.428-.31.893-.355 1.434-.043.526-.043 1.179-.043 1.995V12.228c0 .816 0 1.469.043 1.995.044.54.137 1.006.355 1.434a3.65 3.65 0 001.595 1.595c.428.218.893.31 1.434.355.527.043 1.179.043 1.995.043H12.228c.816 0 1.469 0 1.995-.043.54-.044 1.006-.137 1.434-.355a3.65 3.65 0 001.595-1.595c.218-.428.31-.893.355-1.434.043-.527.043-1.179.043-1.995V7.772c0-.816 0-1.469-.043-1.995-.044-.54-.137-1.006-.355-1.434a3.65 3.65 0 00-1.595-1.595c-.428-.218-.893-.31-1.434-.355-.526-.043-1.179-.043-1.995-.043H7.8zM4.933 3.906c.214-.109.49-.18.95-.217C6.35 3.65 6.949 3.65 7.8 3.65h4.4c.85 0 1.45 0 1.918.039.46.037.735.108.949.217a2.35 2.35 0 011.027 1.027c.109.214.18.49.217.95.039.467.04 1.066.04 1.917v4.4c0 .207 0 .4-.002.579a6.65 6.65 0 00-5.583.41A8.649 8.649 0 003.65 8.375V7.8c0-.85 0-1.45.039-1.917.037-.46.108-.736.217-.95a2.35 2.35 0 011.027-1.027zm6.32 10.503c.197.627.323 1.278.373 1.941h.574c.85 0 1.45 0 1.918-.039.46-.037.735-.108.949-.217a2.35 2.35 0 001.027-1.027c.104-.205.174-.467.213-.894a5.35 5.35 0 00-5.054.236zm-3.056-2.606a7.35 7.35 0 012.124 4.547h-2.52c-.852 0-1.45 0-1.918-.039-.46-.037-.736-.108-.95-.217a2.35 2.35 0 01-1.027-1.027c-.109-.214-.18-.49-.217-.95-.038-.467-.039-1.066-.039-1.917V9.679a7.35 7.35 0 014.547 2.124zM11.65 7.5a.85.85 0 111.7 0 .85.85 0 01-1.7 0zm.85-2.15a2.15 2.15 0 100 4.3 2.15 2.15 0 000-4.3z" clip-rule="evenodd"/>
</svg>
