<svg xmlns="http://www.w3.org/2000/svg" fill="none" viewBox="0 0 20 20">
  <path fill="currentColor" d="M10 3l.46-.46a.65.65 0 00-.92 0L10 3zm4.46 3.54l-4-4-.92.92 4 4 .92-.92zm-4.92-4l-4 4 .92.92 4-4-.92-.92z"/>
  <path fill="currentColor" d="M9.35 3v8h1.3V3h-1.3z"/>
  <path stroke="currentColor" stroke-linejoin="round" stroke-width="1.3" d="M4 9v3.2c0 1.68 0 2.52.327 3.162a3 3 0 001.311 1.311C6.28 17 7.12 17 8.8 17h2.4c1.68 0 2.52 0 3.162-.327a3 3 0 001.311-1.311C16 14.72 16 13.88 16 12.2V9"/>
</svg>
