<svg width="21" height="18" viewBox="0 0 21 18" fill="none" xmlns="http://www.w3.org/2000/svg">
<path fill-rule="evenodd" clip-rule="evenodd" d="M0.825195 2C0.825195 0.895 1.72788 0 2.84237 0H8.89389C10.0084 0 10.9111 0.895 10.9111 2V4H18.9798C20.0942 4 20.9969 4.895 20.9969 6V16C20.9969 17.105 20.0942 18 18.9798 18H10.9111H2.84237C1.72788 18 0.825195 17.105 0.825195 16V2ZM4.85954 2H2.84237V4H4.85954V2ZM6.87672 2H8.89389V4H6.87672V2ZM4.85954 6H2.84237V8H4.85954V6ZM6.87672 6H8.89389V8H6.87672V6ZM18.9798 6H10.9111V8H12.9282V10H10.9111V12H12.9282V14H10.9111V16H18.9798V6ZM14.9454 8V10H16.9626V8H14.9454ZM4.85954 10H2.84237V12H4.85954V10ZM6.87672 10H8.89389V12H6.87672V10ZM14.9454 14V12H16.9626V14H14.9454ZM2.84237 14H4.85954V16H2.84237V14ZM8.89389 14H6.87672V16H8.89389V14Z" fill="#1184D6"/>
</svg>
