<svg width="16" height="16" viewBox="0 0 16 16" fill="none" xmlns="http://www.w3.org/2000/svg">
<path fill-rule="evenodd" clip-rule="evenodd" d="M2.97139 0.8C2.97139 0.3584 3.33287 0 3.77826 0C4.22365 0 4.58513 0.3584 4.58513 0.8V1.6H11.0401V0.8C11.0401 0.3584 11.4016 0 11.847 0C12.2923 0 12.6538 0.3584 12.6538 0.8V1.6H13.4607C14.3483 1.6 15.0744 2.32 15.0744 3.2V14.4C15.0744 15.28 14.3483 16 13.4607 16H2.16452C1.27696 16 0.550781 15.28 0.550781 14.4V3.2C0.550781 2.32 1.27696 1.6 2.16452 1.6H2.97139V0.8ZM13.4607 5.6H2.16452V13.6C2.16452 14.0416 2.526 14.4 2.97139 14.4H12.6538C13.0992 14.4 13.4607 14.0416 13.4607 13.6V5.6Z" fill="#1184D6"/>
</svg>
