<svg xmlns="http://www.w3.org/2000/svg" fill="none" viewBox="0 0 20 20">
  <path stroke="currentColor" stroke-linejoin="round" stroke-width="1.3" d="M5.188 11.438l-.438.312v0c-.548.392-.823.588-.934.823a1 1 0 000 .854c.111.235.386.431.934.823l2.46 1.757c1.004.717 1.506 1.076 2.053 1.214a3 3 0 001.474 0c.547-.138 1.05-.497 2.053-1.214l2.46-1.757c.549-.392.823-.588.934-.823a1 1 0 000-.854c-.111-.235-.386-.431-.934-.823v0l-.438-.313"/>
  <path stroke="currentColor" stroke-linejoin="round" stroke-width="1.3" d="M5.188 8.438l-.438.312v0c-.548.392-.823.588-.934.823a1 1 0 000 .854c.111.235.386.431.934.823l2.46 1.757c1.004.717 1.506 1.076 2.053 1.214a3 3 0 001.474 0c.547-.138 1.05-.497 2.053-1.214l2.46-1.757c.549-.392.823-.588.934-.823a1 1 0 000-.854c-.111-.235-.386-.431-.934-.823v0l-.438-.313"/>
  <path stroke="currentColor" stroke-linejoin="round" stroke-width="1.3" d="M7.21 3.993c1.004-.717 1.506-1.076 2.053-1.214a3 3 0 011.474 0c.547.138 1.05.497 2.053 1.214l2.387 1.705c.615.44.922.659 1.031.93a1 1 0 010 .743c-.109.272-.416.492-1.03.931l-2.388 1.705c-1.004.717-1.506 1.076-2.053 1.214a3 3 0 01-1.474 0c-.547-.138-1.05-.497-2.053-1.214L4.823 8.302c-.615-.44-.922-.659-1.031-.93a1 1 0 010-.743c.109-.272.416-.492 1.03-.931L7.21 3.993z"/>
</svg>
