<svg width="63" height="28" viewBox="0 0 63 28" fill="none" xmlns="http://www.w3.org/2000/svg">
<path d="M20.2075 10.5857L17.4144 7.79322C17.3215 7.70034 17.2113 7.62666 17.0899 7.57639C16.9686 7.52612 16.8385 7.50024 16.7072 7.50024C16.5759 7.50024 16.4458 7.52612 16.3245 7.57639C16.2031 7.62666 16.0929 7.70034 16 7.79322L8.29313 15.5001C8.19987 15.5926 8.12593 15.7028 8.0756 15.8241C8.02528 15.9455 7.99959 16.0756 8.00001 16.207V19.0001C8.00001 19.2653 8.10536 19.5197 8.2929 19.7072C8.48043 19.8947 8.73479 20.0001 9.00001 20.0001H19.5C19.6326 20.0001 19.7598 19.9474 19.8536 19.8536C19.9473 19.7599 20 19.6327 20 19.5001C20 19.3675 19.9473 19.2403 19.8536 19.1465C19.7598 19.0528 19.6326 19.0001 19.5 19.0001H13.2075L20.2075 12.0001C20.3004 11.9072 20.3741 11.797 20.4243 11.6756C20.4746 11.5543 20.5005 11.4242 20.5005 11.2929C20.5005 11.1616 20.4746 11.0315 20.4243 10.9102C20.3741 10.7888 20.3004 10.6786 20.2075 10.5857ZM11.7931 19.0001H9.00001V16.207L14.5 10.707L17.2931 13.5001L11.7931 19.0001ZM18 12.7932L15.2075 10.0001L16.7075 8.50009L19.5 11.2932L18 12.7932Z" fill="#1DAEFF"/>
<path d="M31.0788 19V8.81818H37.7009V10.3643H32.9232V13.1286H37.3579V14.6747H32.9232V17.4538H37.7407V19H31.0788ZM42.4769 19.1342C41.877 19.1342 41.3401 18.9801 40.8661 18.6719C40.3922 18.3636 40.0176 17.9162 39.7425 17.3295C39.4675 16.7429 39.3299 16.0303 39.3299 15.1918C39.3299 14.3433 39.4691 13.6274 39.7475 13.044C40.0292 12.4574 40.4087 12.0149 40.886 11.7166C41.3633 11.415 41.8952 11.2642 42.4819 11.2642C42.9293 11.2642 43.2972 11.3404 43.5856 11.4929C43.8739 11.642 44.1026 11.8227 44.2717 12.0348C44.4407 12.2436 44.5716 12.4408 44.6644 12.6264H44.739V8.81818H46.5437V19H44.7738V17.7969H44.6644C44.5716 17.9825 44.4374 18.1797 44.2617 18.3885C44.0861 18.594 43.8541 18.7696 43.5657 18.9155C43.2773 19.0613 42.9144 19.1342 42.4769 19.1342ZM42.9791 17.6577C43.3602 17.6577 43.685 17.5549 43.9535 17.3494C44.222 17.1406 44.4258 16.8506 44.565 16.4794C44.7042 16.1082 44.7738 15.6757 44.7738 15.1818C44.7738 14.688 44.7042 14.2588 44.565 13.8942C44.4291 13.5296 44.2269 13.2462 43.9585 13.044C43.6933 12.8419 43.3668 12.7408 42.9791 12.7408C42.578 12.7408 42.2433 12.8452 41.9748 13.054C41.7063 13.2628 41.5041 13.5511 41.3683 13.919C41.2324 14.2869 41.1644 14.7079 41.1644 15.1818C41.1644 15.6591 41.2324 16.085 41.3683 16.4595C41.5075 16.8307 41.7113 17.1241 41.9798 17.3395C42.2515 17.5516 42.5846 17.6577 42.9791 17.6577ZM48.6015 19V11.3636H50.4012V19H48.6015ZM49.5063 10.2798C49.2213 10.2798 48.976 10.1854 48.7705 9.99645C48.565 9.80421 48.4623 9.57386 48.4623 9.3054C48.4623 9.03362 48.565 8.80327 48.7705 8.61435C48.976 8.42211 49.2213 8.32599 49.5063 8.32599C49.7947 8.32599 50.0399 8.42211 50.2421 8.61435C50.4476 8.80327 50.5503 9.03362 50.5503 9.3054C50.5503 9.57386 50.4476 9.80421 50.2421 9.99645C50.0399 10.1854 49.7947 10.2798 49.5063 10.2798ZM56.2051 11.3636V12.7557H51.8152V11.3636H56.2051ZM52.899 9.53409H54.6987V16.7031C54.6987 16.9451 54.7351 17.1307 54.8081 17.2599C54.8843 17.3859 54.9837 17.4721 55.1064 17.5185C55.229 17.5649 55.3649 17.5881 55.514 17.5881C55.6267 17.5881 55.7295 17.5798 55.8223 17.5632C55.9184 17.5466 55.9913 17.5317 56.041 17.5185L56.3443 18.9254C56.2482 18.9586 56.1106 18.995 55.9316 19.0348C55.756 19.0746 55.5405 19.0978 55.2853 19.1044C54.8346 19.1177 54.4286 19.0497 54.0673 18.9006C53.706 18.7481 53.4193 18.5128 53.2072 18.1946C52.9984 17.8764 52.8957 17.4787 52.899 17.0014V9.53409Z" fill="#1DAEFF"/>
</svg>
