<svg xmlns="http://www.w3.org/2000/svg" fill="none" viewBox="0 0 20 20">
    <path stroke="currentColor" strokeLineJoin="round" strokeWidth="1.3"
    d="M4 12.8c0-1.68 0-2.52.327-3.162a3 3 0 0 1 1.311-1.311C6.28 8 7.12 8 8.8 8h2.4c1.68 0 2.52 0 3.162.327a3 3 0 0 1 1.311 1.311C16 10.28 16 11.12 16 12.8v.4c0 1.68 0 2.52-.327 3.162a3 3 0 0 1-1.311 1.311C13.72 18 12.88 18 11.2 18H8.8c-1.68 0-2.52 0-3.162-.327a3 3 0 0 1-1.311-1.311C4 15.72 4 14.88 4 13.2v-.4zm6-1.3v3M7 6a3 3 0 0 1 3-3 3 3 0 0 1 3 3v2H7V6z" />
</svg>