<svg xmlns="http://www.w3.org/2000/svg" fill="none" viewBox="0 0 20 20">
  <path stroke="currentColor" stroke-linejoin="round" stroke-width="1.3" d="M3 8.8c0-1.68 0-2.52.327-3.162a3 3 0 011.311-1.311C5.28 4 6.12 4 7.8 4h4.4c1.68 0 2.52 0 3.162.327a3 3 0 011.311 1.311C17 6.28 17 7.12 17 8.8v2.4c0 1.68 0 2.52-.327 3.162a3 3 0 01-1.311 1.311C14.72 16 13.88 16 12.2 16H7.8c-1.68 0-2.52 0-3.162-.327a3 3 0 01-1.311-1.311C3 13.72 3 12.88 3 11.2V8.8z"/>
  <path stroke="currentColor" stroke-linejoin="round" stroke-width="1.3" d="M6 7l4 3 4-3"/>
</svg>
