<svg xmlns="http://www.w3.org/2000/svg" fill="currentColor" viewBox="0 0 20 20">
  <path d="M7.525 4.025l.249.6-.249-.6zm2.127-.483l.627.171.237-.868-.9.048.036.65zM4.025 7.525l.6.249-.6-.249zm0 4.95l-.6.249.6-.25zm3.5 3.5l-.248.6.248-.6zm4.95 0l.249.6-.249-.6zm3.5-3.5l.6.249-.6-.25zm.483-2.127l.649.035.048-.899-.868.237.17.627zm-3.58-.227l-.248.6.249-.6zm-3-3l-.6.25.6-.25zM7.775 4.626a5.815 5.815 0 011.913-.435l-.07-1.298a7.116 7.116 0 00-2.34.532l.497 1.2zM4.626 7.774a5.817 5.817 0 013.148-3.148l-.497-1.201a7.117 7.117 0 00-3.852 3.851l1.2.498zm0 4.452a5.817 5.817 0 010-4.452l-1.201-.498a7.117 7.117 0 000 5.448l1.2-.498zm3.148 3.148a5.818 5.818 0 01-3.148-3.148l-1.201.498a7.117 7.117 0 003.852 3.851l.497-1.2zm4.452 0a5.817 5.817 0 01-4.452 0l-.497 1.201a7.118 7.118 0 005.447 0l-.498-1.2zm3.148-3.148a5.817 5.817 0 01-3.148 3.148l.498 1.201a7.117 7.117 0 003.852-3.851l-1.202-.498zm.435-1.913a5.816 5.816 0 01-.434 1.913l1.2.498a7.117 7.117 0 00.532-2.34l-1.298-.07zm.478-.592a4.894 4.894 0 01-3.16-.2l-.497 1.2a6.193 6.193 0 003.999.254l-.342-1.254zm-3.16-.2a4.893 4.893 0 01-2.648-2.648l-1.2.497a6.193 6.193 0 003.351 3.352l.497-1.201zM10.48 6.873a4.893 4.893 0 01-.2-3.16l-1.254-.342a6.193 6.193 0 00.253 4l1.201-.498z"/>
</svg>
