<svg xmlns="http://www.w3.org/2000/svg"  fill="none" viewBox="0 0 20 20">
  <path fill="currentColor" d="M12.546 13.109l-.295-.58.295.58zm-.437.437l-.58-.295.58.295zM17 12.35h-3.4v1.3H17v-1.3zm-5.65 2.25V17h1.3v-2.4h-1.3zm2.25-2.25c-.27 0-.51 0-.71.016a1.676 1.676 0 00-.64.164l.591 1.158s.029-.016.155-.027c.134-.01.313-.011.604-.011v-1.3zm-.95 2.25c0-.29 0-.47.011-.604.01-.126.027-.155.027-.155l-1.158-.59a1.676 1.676 0 00-.164.64c-.016.199-.016.44-.016.709h1.3zm-.4-2.07a1.65 1.65 0 00-.72.72l1.158.591a.35.35 0 01.153-.153l-.59-1.158z"/>
  <path fill="currentColor" fill-rule="evenodd" d="M17.65 8.721v2.369c0 .659 0 1.098-.1 1.52-.09.372-.238.728-.438 1.055-.226.369-.537.68-1.003 1.146l-.055.055-1.188 1.188-.055.055c-.466.466-.777.777-1.146 1.003a3.65 3.65 0 01-1.055.437c-.422.101-.861.101-1.52.101H7.771c-.816 0-1.468 0-1.995-.043-.54-.044-1.006-.137-1.434-.355a3.65 3.65 0 01-1.595-1.595c-.218-.428-.31-.893-.355-1.434-.043-.527-.043-1.179-.043-1.995V7.772c0-.816 0-1.469.043-1.995.044-.54.137-1.006.355-1.434a3.65 3.65 0 011.595-1.595c.428-.218.893-.31 1.434-.355.527-.043 1.179-.043 1.995-.043h3.507a4.977 4.977 0 00-.267 1.3H7.8c-.85 0-1.45 0-1.917.039-.46.037-.736.108-.95.217a2.35 2.35 0 00-1.027 1.027c-.109.214-.18.49-.217.95C3.65 6.35 3.65 6.949 3.65 7.8v4.4c0 .85 0 1.45.039 1.918.037.46.108.735.217.949a2.35 2.35 0 001.027 1.027c.214.109.49.18.95.217.467.038 1.066.039 1.917.039h3.212c.765 0 1.041-.004 1.294-.065a2.35 2.35 0 00.68-.281c.221-.136.42-.329.96-.87l1.189-1.188c.54-.54.733-.739.869-.96.129-.211.224-.44.281-.68.06-.253.065-.53.065-1.294V8.988a4.977 4.977 0 001.3-.267z" clip-rule="evenodd"/>
  <circle cx="16" cy="4" r="3" fill="currentColor"/>
</svg>
