<svg xmlns="http://www.w3.org/2000/svg" fill="currentColor" viewBox="0 0 20 20">
  <path fill-rule="evenodd" d="M15.41 3.884a2.65 2.65 0 00-3.748 0l-6.56 6.559a2.65 2.65 0 00-.765 1.633l-.288 3.168a.65.65 0 00.707.707l3.167-.288a2.65 2.65 0 001.634-.766l4.789-4.788.003-.003.002-.003 1.765-1.765a2.65 2.65 0 000-3.747l-.707-.707zm-1.52 4.843l1.307-1.308a1.35 1.35 0 000-1.91l-.707-.706a1.35 1.35 0 00-1.91 0L11.274 6.11l2.616 2.616zM10.352 7.03l-4.331 4.332a1.35 1.35 0 00-.39.832l-.217 2.391 2.39-.217a1.35 1.35 0 00.833-.39l4.332-4.332-2.617-2.616z" clip-rule="evenodd"/>
</svg>
