<svg xmlns="http://www.w3.org/2000/svg" fill="currentColor" viewBox="0 0 20 20">
  <path stroke="#212C33" d="M5 11.112h0c.318.462.566.882.765 1.223l.018.03c.193.33.322.552.431.693l.802.887c.148.132.335.31.515.48l.052.05c.212.2.408.386.548.505l-.324.38M5 11.113l7.906 4.497M5 11.112c-.153-.222-.395-.519-.63-.808a88.12 88.12 0 01-.16-.198c-.301-.372-.546-.689-.648-.879L5 11.112zm2.807 4.249l.322-.383c.208.176.313.41.369.605a2.302 2.302 0 01.078.644l.25.004c.312.006.625.011.938.013.554.005 1.024-.003 1.322-.038a.443.443 0 00.055-.038c.061-.049.137-.124.221-.223.168-.196.329-.438.431-.612v-.002a.908.908 0 01.742-.447c.336-.013.644.168.814.493m-5.542-.016c.218.183.269.551.269.858m-.269-.858a17.55 17.55 0 01-.618-.571c-.192-.182-.381-.362-.526-.49l1.413 1.92m5.273-.843l-.443.232m.443-.232s0 0 0 0l-.443.232m.443-.232c.05.095.186.321.348.525.081.101.16.184.226.24.044.037.07.05.076.054m-1.093-.587c.125.238.61 1.016 1 1.079m.093-.492l-.014-.002-.079.494m.093-.492l.003.002-.016-.004-.08.494m.093-.492l-.093.492m-5.872.03l.505.008-.505-.007zm0 0s.042-.224.042-.499m-.042.5l.042-.5m4.457-8.527c.028-.127.046-.277.06-.414l.017-.177.026-.262c.016-.146.034-.277.059-.387a.74.74 0 01.062-.195h0a.614.614 0 01.172-.154.925.925 0 01.125-.07c.034-.016.051-.02.051-.02h-.002l-.088-.492.087.492a2.29 2.29 0 01.782-.01l.095-.49-.096.49c-.001 0-.001 0 0 0 .004.002.022.008.056.026a1.278 1.278 0 01.254.194c.03.03.042.047.043.048.018.03.05.1.087.227.036.123.07.27.1.426.059.31.098.624.115.788h0a.584.584 0 00.029.13h0a.508.508 0 00.401.334.502.502 0 00.497-.225h0a.541.541 0 00.07-.152l.034-.126.018-.068c.043-.153.097-.31.163-.415h0c.083-.13.334-.258.583-.22.105.016.188.06.25.133.061.073.133.213.144.478.02.539.02.6.02.863v.18c0 .507-.012.806-.04 1.165-.031.413-.115 1.263-.223 1.643a5.504 5.504 0 01-.57 1.217l-.031.037a13.324 13.324 0 00-.524.665 8.028 8.028 0 00-.432.638c-.12.202-.247.446-.295.674-.096.457-.1.611-.104.81-.001.067-.003.139-.008.23L8.84 4.84l-.493.078c.072.458.172.993.26 1.468l.038.2c.048.263.091.498.123.686.033.2.047.312.049.348l.998.015c.012-.184 0-.444-.01-.678a39.345 39.345 0 01-.006-.13c-.013-.302-.015-.524.005-.635h0a.618.618 0 01.127-.256.43.43 0 01.19-.149l-.143-.48.143.48a1.45 1.45 0 01.672-.044h.001c.084.017.186.06.28.122a.549.549 0 01.154.139l.432-.252-.432.25c.126.217.21.602.258.987a8.416 8.416 0 01.048.52l.006.08v.001a.88.88 0 00.008.073l.013.056a.512.512 0 00.14.23.5.5 0 00.534.098c.16-.066.23-.192.245-.217h0c.038-.068.05-.13.053-.139 0 0 0 0 0 0zm0 0l-.001.003-.488-.111.489.108s0 0 0 0zm2.099 8.988l.004.02c.278-.018.504-.047.504-.047s-.061-.225-.098-.492a9.769 9.769 0 01-.498.043 4.446 4.446 0 00.088.476zM9.055 6.057l-.235-.042.235.042zM7.546 9.476l-.012-.084a26.86 26.86 0 00-.346-2.02h0c-.111-.494-.153-.64-.237-.94l-.05-.177a18.582 18.582 0 01-.199-.791c-.033-.143-.069-.296-.113-.474-.083-.346-.227-1.028-.264-1.392h0a4.868 4.868 0 01-.02-.882c.027-.32.097-.51.166-.59l1.075 7.35zm4.01-2a.17.17 0 010-.004v.004zm.555-.415c.035-.37.075-.793.2-1.032.088.294.137.598.168.836a9.32 9.32 0 01.059.656l-.003-.022a.456.456 0 00-.035-.115h0c-.008-.018-.04-.092-.114-.162a.5.5 0 00-.278-.131l.003-.03zM7.868 3.084s0 0 0 0l.456-.204-.456.204z"/>
  <path fill-rule="evenodd" stroke="#212C33" stroke-linecap="round" stroke-linejoin="round" stroke-width=".75" d="M5.831 13.38c-.284-.36-.629-1.093-1.243-1.984-.348-.504-1.21-1.453-1.468-1.935-.223-.426-.199-.617-.146-.97.094-.628.738-1.117 1.425-1.051.52.049.96.392 1.355.716.24.195.533.574.71.788.163.196.203.277.377.509.23.307.302.459.214.12-.07-.495-.187-1.342-.355-2.091-.128-.568-.159-.657-.28-1.093-.13-.464-.196-.79-.317-1.281-.084-.348-.235-1.06-.276-1.46-.057-.546-.087-1.438.264-1.848.275-.321.906-.418 1.297-.22.512.259.803 1.003.936 1.3.24.534.387 1.15.516 1.96.164 1.032.466 2.463.476 2.764.024-.37-.068-1.146-.004-1.5.058-.321.328-.694.666-.795.286-.085.621-.116.916-.055.313.064.643.288.766.499.362.624.37 1.899.384 1.83.086-.375.071-1.228.284-1.583.14-.234.497-.445.687-.48.294-.051.655-.067.964-.007.25.049.586.345.677.487.218.344.342 1.317.38 1.658.014.14.073-.392.292-.736.406-.64 1.843-.763 1.898.639.025.654.02.624.02 1.064 0 .517-.012.828-.04 1.202-.03.4-.117 1.304-.242 1.742-.086.3-.37.978-.652 1.384 0 0-1.074 1.25-1.19 1.813-.119.562-.08.566-.103.965-.023.398.121.922.121.922s-.802.104-1.234.035c-.39-.063-.875-.841-1-1.08-.172-.327-.539-.264-.682-.022-.225.383-.709 1.07-1.05 1.113-.669.084-2.055.03-3.14.02 0 0 .185-1.011-.227-1.358-.305-.26-.83-.784-1.144-1.06l-.832-.921z" clip-rule="evenodd"/>
  <path fill-rule="evenodd" d="M14.066 13.734v-3.459z" clip-rule="evenodd"/>
  <path stroke="#212C33" stroke-linecap="round" stroke-width=".75" d="M14.066 13.734v-3.459"/>
  <path fill-rule="evenodd" d="M12.05 13.746l-.015-3.473z" clip-rule="evenodd"/>
  <path stroke="#212C33" stroke-linecap="round" stroke-width=".75" d="M12.05 13.746l-.015-3.473"/>
  <g>
    <path fill-rule="evenodd" d="M10.055 10.305l.02 3.426z" clip-rule="evenodd"/>
    <path stroke="#212C33" stroke-linecap="round" stroke-width=".75" d="M10.055 10.305l.02 3.426"/>
  </g>
</svg>
