<svg width="16" height="16" viewBox="0 0 19 16" fill="none" xmlns="http://www.w3.org/2000/svg">
<path fill-rule="evenodd" clip-rule="evenodd" d="M7.76514 -3.52755e-05C7.52385 -0.00345306 7.29131 0.0941924 7.11952 0.271066C6.94773 0.44794 6.85102 0.689288 6.85102 0.941141H2.35437C1.35789 0.941141 0.550781 1.78349 0.550781 2.82349V8.47055C0.550781 9.50867 1.35969 10.3529 2.35437 10.3529H16.7831C17.7778 10.3529 18.5867 9.50867 18.5867 8.47055V2.82349C18.5867 1.78349 17.7796 0.941141 16.7831 0.941141H12.2865C12.2864 0.689288 12.1897 0.44794 12.018 0.271066C11.8462 0.0941924 11.6136 -0.00345309 11.3723 -3.52755e-05H7.76514ZM9.56874 6.5882C10.0665 6.5882 10.4705 7.00985 10.4705 7.52938C10.4705 8.04891 10.0665 8.47055 9.56874 8.47055C9.07094 8.47055 8.66694 8.04891 8.66694 7.52938C8.66694 7.00985 9.07094 6.5882 9.56874 6.5882ZM0.550781 14.1176V11.7114C1.08374 12.0351 1.69426 12.2353 2.35437 12.2353H16.7831C17.4432 12.2353 18.0537 12.0351 18.5867 11.7114V14.1176C18.5867 15.1576 17.7796 16 16.7831 16H2.35437C1.35789 16 0.550781 15.1576 0.550781 14.1176Z" fill="#1184D6"/>
</svg>
