<svg xmlns="http://www.w3.org/2000/svg" fill="currentColor" viewBox="0 0 20 20">
  <path fill-rule="evenodd" d="M2.35 10a7.65 7.65 0 0115.3 0v.29c0 1.277-.36 2.528-1.035 3.608l.521 2.468a.65.65 0 01-.77.77l-2.468-.521a6.806 6.806 0 01-3.608 1.035H10A7.65 7.65 0 012.35 10zM10 3.65a6.35 6.35 0 000 12.7h.29c1.087 0 2.15-.322 3.054-.925a.835.835 0 01.636-.122l1.678.355-.355-1.678a.835.835 0 01.122-.636 5.505 5.505 0 00.925-3.054V10A6.35 6.35 0 0010 3.65zm-2.5 5.5v-1.3h5v1.3h-5zm0 1.7v1.3h5v-1.3h-5z" clip-rule="evenodd"/>
</svg>
