<svg width="21" height="18" viewBox="0 0 21 18" fill="none" xmlns="http://www.w3.org/2000/svg">
<path fill-rule="evenodd" clip-rule="evenodd" d="M0.550781 1C0.550781 0.448 1.00263 0 1.55937 0H19.7139C20.2707 0 20.7225 0.448 20.7225 1V11C20.7225 11.552 20.2707 12 19.7139 12H1.55937C1.00263 12 0.550781 11.552 0.550781 11V1ZM17.7854 2H3.4879C3.33549 2.42591 2.99753 2.761 2.56796 2.91211V9.08789C2.99753 9.239 3.33549 9.57409 3.4879 10H17.7854C17.9378 9.57409 18.2758 9.239 18.7053 9.08789V2.91211C18.2758 2.761 17.9378 2.42591 17.7854 2ZM10.6367 3C8.96557 3 7.61089 4.34315 7.61089 6C7.61089 7.65685 8.96557 9 10.6367 9C12.3077 9 13.6624 7.65685 13.6624 6C13.6624 4.34315 12.3077 3 10.6367 3ZM4.58513 6C4.58513 5.447 5.03698 5 5.59372 5C6.15046 5 6.6023 5.447 6.6023 6C6.6023 6.553 6.15046 7 5.59372 7C5.03698 7 4.58513 6.553 4.58513 6ZM15.6796 5C15.1228 5 14.671 5.447 14.671 6C14.671 6.553 15.1228 7 15.6796 7C16.2363 7 16.6882 6.553 16.6882 6C16.6882 5.447 16.2363 5 15.6796 5ZM17.9272 17.9688L2.55811 14H10.5638L16.5719 15.5508C16.8271 15.1788 17.236 14.9394 17.6889 14.9004L17.9272 14H20.0114L19.1565 17.252C19.0163 17.786 18.4668 18.1077 17.9272 17.9688Z" fill="#1184D6"/>
</svg>
