<svg xmlns="http://www.w3.org/2000/svg" fill="none" viewBox="0 0 20 20">
  <path stroke="currentColor" stroke-linecap="round" stroke-linejoin="round" stroke-width="1.3" d="M7.582 5.29c.834-.962 1.25-1.443 1.746-1.62a2 2 0 011.344 0c.495.177.912.658 1.746 1.62l2.266 2.614c.644.743.966 1.115 1.088 1.532a2 2 0 010 1.127c-.122.418-.444.79-1.088 1.533l-2.266 2.614c-.834.962-1.25 1.443-1.746 1.62a2 2 0 01-1.344 0c-.495-.177-.912-.658-1.746-1.62l-2.266-2.614c-.644-.743-.966-1.115-1.088-1.533a2 2 0 010-1.127c.122-.417.444-.789 1.088-1.532L7.582 5.29z"/>
</svg>
