<svg xmlns="http://www.w3.org/2000/svg" fill="currentColor" viewBox="0 0 20 20">
  <path fill-rule="evenodd" d="M10.431 4.65c.98 0 1.334.007 1.646.101.296.09.57.237.81.434.252.207.454.498.997 1.313l1.392 2.088c.456.684.584.892.633 1.1.05.206.05.422 0 .629-.05.207-.177.415-.633 1.1l-1.392 2.087c-.543.815-.745 1.106-.997 1.313a2.352 2.352 0 01-.81.434c-.312.094-.666.101-1.646.101H8.715l2.143-3.214.06-.09c.369-.553.645-.967.755-1.428a2.65 2.65 0 000-1.236c-.11-.461-.386-.875-.755-1.428l-.06-.09L8.715 4.65h1.716zm-3.278 0c-.523.003-.931.011-1.27.039-.46.037-.736.108-.95.217a2.35 2.35 0 00-1.027 1.027c-.109.214-.18.49-.217.95C3.65 7.35 3.65 7.949 3.65 8.8v2.4c0 .85 0 1.45.039 1.918.037.46.108.735.217.949a2.35 2.35 0 001.027 1.027c.214.109.49.18.95.217.339.028.747.036 1.27.038l2.623-3.934c.456-.684.584-.893.633-1.1.05-.207.05-.423 0-.63-.05-.207-.177-.415-.633-1.1L7.153 4.652zm5.302-1.143c-.52-.157-1.081-.157-1.923-.157H7.772c-.816 0-1.469 0-1.995.043-.54.044-1.006.137-1.434.355a3.65 3.65 0 00-1.595 1.595c-.218.428-.31.893-.355 1.434-.043.526-.043 1.179-.043 1.995v2.456c0 .816 0 1.469.043 1.995.044.54.137 1.006.355 1.434a3.65 3.65 0 001.595 1.595c.428.218.893.31 1.434.355.526.043 1.179.043 1.995.043h2.759c.843 0 1.404 0 1.924-.157a3.65 3.65 0 001.257-.673c.42-.345.731-.812 1.198-1.513l.056-.084 1.392-2.087.06-.09c.369-.553.645-.967.755-1.428a2.65 2.65 0 000-1.236c-.11-.461-.386-.875-.755-1.428l-.06-.09-1.392-2.087-.056-.084c-.467-.7-.778-1.168-1.198-1.513a3.65 3.65 0 00-1.257-.673z" clip-rule="evenodd"/>
</svg>
