<svg width="24" height="24" viewBox="0 0 24 24" fill="none" xmlns="http://www.w3.org/2000/svg">
<path fill-rule="evenodd" clip-rule="evenodd" d="M12.7619 4.2538C13.5802 3.92668 14.1576 3.13347 14.1576 2.20689C14.1576 0.98806 13.1586 0 11.9262 0C10.6937 0 9.69469 0.98806 9.69469 2.20689C9.69469 3.13266 10.2711 3.92529 11.0883 4.25294V6.38317C6.55143 6.80073 3 10.5764 3 15.1724C3 20.0477 6.99623 24 11.9258 24C16.8554 24 20.8517 20.0477 20.8517 15.1724C20.8517 10.5759 17.2995 6.7999 12.7619 6.38303V4.2538ZM11.8901 20.8143C8.78629 20.8143 6.26249 18.3582 6.19734 15.304H17.5829C17.5177 18.3582 14.9939 20.8143 11.8901 20.8143ZM10.2895 12.6896C10.2895 13.4514 9.66509 14.0689 8.89484 14.0689C8.12459 14.0689 7.50018 13.4514 7.50018 12.6896C7.50018 11.9279 8.12459 11.3103 8.89484 11.3103C9.66509 11.3103 10.2895 11.9279 10.2895 12.6896ZM14.8946 14.0688C15.6648 14.0688 16.2892 13.4513 16.2892 12.6895C16.2892 11.9278 15.6648 11.3102 14.8946 11.3102C14.1243 11.3102 13.4999 11.9278 13.4999 12.6895C13.4999 13.4513 14.1243 14.0688 14.8946 14.0688Z" fill="url(#paint0_linear_30_457)"/>
<defs>
<linearGradient id="paint0_linear_30_457" x1="11.9258" y1="0" x2="11.9258" y2="24" gradientUnits="userSpaceOnUse">
<stop stop-color="#1DAEFF"/>
<stop offset="1" stop-color="#A564F8"/>
</linearGradient>
</defs>
</svg>
