<svg xmlns="http://www.w3.org/2000/svg"  fill="none" viewBox="0 0 20 20">
  <rect width="14" height="14" x="3" y="3" stroke="currentColor" stroke-width="1.3" rx="7"/>
  <path fill="currentColor" d="M7.5 9.1c0-.56 0-.84.109-1.054a1 1 0 01.437-.437C8.26 7.5 8.54 7.5 9.1 7.5h1.8c.56 0 .84 0 1.054.109a1 1 0 01.437.437c.109.214.109.494.109 1.054v1.8c0 .56 0 .84-.109 1.054a1 1 0 01-.437.437c-.214.109-.494.109-1.054.109H9.1c-.56 0-.84 0-1.054-.109a1 1 0 01-.437-.437C7.5 11.74 7.5 11.46 7.5 10.9V9.1z"/>
</svg>
