<svg xmlns="http://www.w3.org/2000/svg"  fill="none" viewBox="0 0 20 20">
  <g class="icon=template">
    <path stroke="currentColor" stroke-linejoin="round" stroke-width="1.3" d="M3 4.6c0-.56 0-.84.109-1.054a1 1 0 01.437-.437C3.76 3 4.04 3 4.6 3h2.3c.56 0 .84 0 1.054.109a1 1 0 01.437.437C8.5 3.76 8.5 4.04 8.5 4.6v2.3c0 .56 0 .84-.109 1.054a1 1 0 01-.437.437C7.74 8.5 7.46 8.5 6.9 8.5H4.6c-.56 0-.84 0-1.054-.109a1 1 0 01-.437-.437C3 7.74 3 7.46 3 6.9V4.6z" class="vector"/>
    <path stroke="currentColor" stroke-linejoin="round" stroke-width="1.3" d="M3 14.25a2.75 2.75 0 012.75-2.75v0a2.75 2.75 0 012.75 2.75v0A2.75 2.75 0 015.75 17v0A2.75 2.75 0 013 14.25v0z" class="vector_2"/>
    <path stroke="currentColor" stroke-linejoin="round" stroke-width="1.3" d="M11.5 13.1c0-.56 0-.84.109-1.054a1 1 0 01.437-.437c.214-.109.494-.109 1.054-.109h2.3c.56 0 .84 0 1.054.109a1 1 0 01.437.437C17 12.26 17 12.54 17 13.1v2.3c0 .56 0 .84-.109 1.054a1 1 0 01-.437.437C16.24 17 15.96 17 15.4 17h-2.3c-.56 0-.84 0-1.054-.109a1 1 0 01-.437-.437c-.109-.214-.109-.494-.109-1.054v-2.3z" class="vector_3"/>
    <path stroke="currentColor" stroke-linejoin="round" stroke-width="1.3" d="M14.25 8.5l-2.044-2.999c-.554-.81-.83-1.216-.813-1.553a1 1 0 01.393-.744C12.055 3 12.546 3 13.527 3h1.446c.981 0 1.472 0 1.74.204a1 1 0 01.393.744c.018.337-.258.742-.812 1.553L14.25 8.5z" class="vector_4"/>
  </g>
</svg>
