<svg xmlns="http://www.w3.org/2000/svg" fill="none" viewBox="0 0 20 20">
  <path stroke="currentColor" stroke-linejoin="round" stroke-width="1.3" d="M7 8V5.906C7 4.3 8.3 3 9.906 3v0c1.25 0 2.36.8 2.756 1.987L13 6M4 12.8c0-1.68 0-2.52.327-3.162a3 3 0 011.311-1.311C6.28 8 7.12 8 8.8 8h2.4c1.68 0 2.52 0 3.162.327a3 3 0 011.311 1.311C16 10.28 16 11.12 16 12.8v.4c0 1.68 0 2.52-.327 3.162a3 3 0 01-1.311 1.311C13.72 18 12.88 18 11.2 18H8.8c-1.68 0-2.52 0-3.162-.327a3 3 0 01-1.311-1.311C4 15.72 4 14.88 4 13.2v-.4zM10 11.5v3"/>
</svg>
