<svg xmlns="http://www.w3.org/2000/svg" fill="none" viewBox="0 0 20 20">
  <path stroke="currentColor" stroke-width="1.3" d="M14 8l.269-.269c.856-.856 1.285-1.285 1.652-1.314a1 1 0 01.84.348c.239.28.239.886.239 2.098v1.812c0 1.336 0 2.004-.255 2.288a1 1 0 01-.877.325c-.379-.05-.813-.558-1.683-1.572L14 11.5"/>
  <path stroke="currentColor" stroke-linejoin="round" stroke-width="1.3" d="M3 8.8c0-1.68 0-2.52.327-3.162a3 3 0 011.311-1.311C5.28 4 6.12 4 7.8 4h1.4c1.68 0 2.52 0 3.162.327a3 3 0 011.311 1.311C14 6.28 14 7.12 14 8.8v2.4c0 1.68 0 2.52-.327 3.162a3 3 0 01-1.311 1.311C11.72 16 10.88 16 9.2 16H7.8c-1.68 0-2.52 0-3.162-.327a3 3 0 01-1.311-1.311C3 13.72 3 12.88 3 11.2V8.8z"/>
</svg>
