<svg xmlns="http://www.w3.org/2000/svg" fill="none" viewBox="0 0 20 20">
  <path stroke="currentColor" stroke-linejoin="round" stroke-width="1.3" d="M3 7.8c0-1.68 0-2.52.327-3.162a3 3 0 011.311-1.311C5.28 3 6.12 3 7.8 3h4.4c1.68 0 2.52 0 3.162.327a3 3 0 011.311 1.311C17 5.28 17 6.12 17 7.8v4.4c0 1.68 0 2.52-.327 3.162a3 3 0 01-1.311 1.311C14.72 17 13.88 17 12.2 17H7.8c-1.68 0-2.52 0-3.162-.327a3 3 0 01-1.311-1.311C3 14.72 3 13.88 3 12.2V7.8zM5.5 6h3"/>
  <path stroke="currentColor" stroke-linejoin="round" stroke-width="1.3" d="M17 8h-2a2 2 0 00-2 2v0a2 2 0 002 2h2"/>
</svg>
