<svg xmlns="http://www.w3.org/2000/svg" fill="currentColor" viewBox="0 0 20 20">
  <path fill-rule="evenodd" d="M9.1 1.85h-.024c-.26 0-.492 0-.686.016a1.675 1.675 0 00-.64.164 1.65 1.65 0 00-.72.72 1.675 1.675 0 00-.164.64c-.016.194-.016.427-.016.686v.277a15.48 15.48 0 00-1.073.04c-.54.044-1.006.137-1.434.355a3.65 3.65 0 00-1.595 1.595c-.218.428-.31.893-.355 1.434-.043.526-.043 1.179-.043 1.995v2.456c0 .816 0 1.469.043 1.995.044.54.137 1.006.355 1.434a3.65 3.65 0 001.595 1.595c.428.218.893.31 1.434.355.526.043 1.179.043 1.995.043H12.228c.816 0 1.469 0 1.995-.043.54-.044 1.006-.137 1.434-.355a3.65 3.65 0 001.595-1.595c.218-.428.31-.893.355-1.434.043-.527.043-1.179.043-1.995V9.772c0-.816 0-1.469-.043-1.995-.044-.54-.137-1.006-.355-1.434a3.65 3.65 0 00-1.595-1.595c-.428-.218-.893-.31-1.434-.355a15.477 15.477 0 00-1.073-.04v-.277c0-.26 0-.492-.016-.686a1.676 1.676 0 00-.164-.64 1.65 1.65 0 00-.72-.72 1.675 1.675 0 00-.64-.164 9.005 9.005 0 00-.686-.016H9.1zm2.75 2.5h-3.7V4.1c0-.29 0-.47.011-.604a.471.471 0 01.027-.155.35.35 0 01.153-.153s.03-.016.155-.027c.134-.01.313-.011.604-.011h1.8c.29 0 .47 0 .604.011.126.01.155.027.155.027a.35.35 0 01.153.153s.016.03.027.155c.01.134.011.313.011.604v.25zM8.5 8.65h3v-1.3h-3v1.3zM5.883 5.689c-.46.037-.736.108-.95.217a2.35 2.35 0 00-1.027 1.027c-.102.2-.17.453-.21.86A8.774 8.774 0 005.16 8.95c1.11.701 2.741 1.4 4.841 1.4s3.731-.699 4.84-1.4a8.775 8.775 0 001.463-1.156c-.039-.408-.107-.661-.21-.86a2.35 2.35 0 00-1.026-1.028c-.214-.109-.49-.18-.95-.217-.467-.038-1.066-.039-1.917-.039H7.8c-.85 0-1.45 0-1.917.039zm10.467 3.79c-.236.183-.508.377-.815.57-1.266.8-3.135 1.601-5.535 1.601a10.295 10.295 0 01-6.35-2.171V12.2c0 .85 0 1.45.039 1.918.037.46.108.735.217.949a2.35 2.35 0 001.027 1.027c.214.109.49.18.95.217.467.038 1.066.039 1.917.039h4.4c.85 0 1.45 0 1.918-.039.46-.037.735-.108.949-.217a2.35 2.35 0 001.027-1.027c.109-.214.18-.49.217-.95.038-.467.039-1.066.039-1.917V9.8v-.322z" clip-rule="evenodd"/>
</svg>
