<svg width="104" height="104" viewBox="0 0 104 104" fill="none" xmlns="http://www.w3.org/2000/svg">
<g clip-path="url(#clip0_346_79575)">
<path fill-rule="evenodd" clip-rule="evenodd" d="M23.0047 35.1405C31.3781 19.9414 43.3729 4.14951 60.2846 6.7767C79.3059 9.73161 92.8667 26.8903 94.8567 46.3026C96.8305 65.5577 86.5342 84.1783 69.0249 92.0404C51.9541 99.7055 31.7646 94.4788 19.9893 79.9197C9.68064 67.1739 15.0314 49.6134 23.0047 35.1405Z" fill="#C6CACC"/>
<path fill-rule="evenodd" clip-rule="evenodd" d="M5.33369 37.3396C8.97913 30.7225 14.2012 23.8473 21.5639 24.9911C29.845 26.2776 35.7489 33.7478 36.6152 42.1991C37.4746 50.582 32.9919 58.6887 25.3691 62.1115C17.9371 65.4486 9.14741 63.1731 4.02089 56.8347C-0.467086 51.2857 1.86244 43.6405 5.33369 37.3396Z" fill="#778085"/>
<path fill-rule="evenodd" clip-rule="evenodd" d="M59.5259 8.286C65.0175 12.1128 68.9493 17.4389 72.0803 23.3859C75.4354 29.7587 79.0881 36.4589 78.1191 43.602C77.1169 50.99 72.7649 57.7777 66.8158 62.1927C61.1677 66.3843 53.819 66.4915 46.8114 66.8363C40.1979 67.1617 33.5138 67.1682 27.6149 64.1216C21.5035 60.9651 16.1983 56.0364 13.5365 49.6505C10.9064 43.3406 11.798 36.3132 13.2384 29.6306C14.6713 22.9824 17.1141 16.6212 21.7246 11.662C26.6431 6.37147 32.7296 1.59759 39.8951 0.957653C47.0142 0.321857 53.6392 4.18384 59.5259 8.286Z" stroke="#C6CACC"/>
<g opacity="0.45">
<ellipse cx="100.712" cy="20.6237" rx="2.35227" ry="2.37626" fill="#C6CACC"/>
<ellipse cx="100.712" cy="11.1187" rx="2.35227" ry="2.37626" fill="#C6CACC"/>
<ellipse cx="91.303" cy="20.6237" rx="2.35227" ry="2.37626" fill="#C6CACC"/>
<ellipse cx="91.303" cy="11.1187" rx="2.35227" ry="2.37626" fill="#C6CACC"/>
<ellipse cx="81.894" cy="20.6237" rx="2.35226" ry="2.37626" fill="#C6CACC"/>
<ellipse cx="81.894" cy="11.1187" rx="2.35226" ry="2.37626" fill="#C6CACC"/>
</g>
<g style="mix-blend-mode:multiply" opacity="0.2">
<path fill-rule="evenodd" clip-rule="evenodd" d="M88.0106 76.1945C88.095 83.7668 86.937 92.3534 79.9826 95.0501C72.1606 98.0833 63.366 94.5559 58.4634 87.652C53.6006 80.8041 53.5117 71.5188 58.4495 64.7266C63.2636 58.1045 72.0129 55.6753 79.5768 58.6096C86.1986 61.1784 87.9303 68.984 88.0106 76.1945Z" fill="#778085"/>
</g>
</g>
<defs>
<clipPath id="clip0_346_79575">
<rect width="104" height="104" fill="white"/>
</clipPath>
</defs>
</svg>
