
<svg  viewBox="0 0 264 184" fill="none" xmlns="http://www.w3.org/2000/svg">
<ellipse cx="194.056" cy="17.0822" rx="2.05641" ry="2.08311" transform="rotate(-180 194.056 17.0822)" fill="#E3E5E5"/>
<ellipse cx="194.056" cy="25.4152" rx="2.05641" ry="2.08311" transform="rotate(-180 194.056 25.4152)" fill="#E3E5E5"/>
<ellipse cx="202.281" cy="17.0822" rx="2.05641" ry="2.08311" transform="rotate(-180 202.281 17.0822)" fill="#E3E5E5"/>
<ellipse cx="202.281" cy="25.4152" rx="2.05641" ry="2.08311" transform="rotate(-180 202.281 25.4152)" fill="#E3E5E5"/>
<ellipse cx="210.507" cy="17.0821" rx="2.05641" ry="2.08311" transform="rotate(-180 210.507 17.0821)" fill="#E3E5E5"/>
<ellipse cx="210.507" cy="25.4152" rx="2.05641" ry="2.08311" transform="rotate(-180 210.507 25.4152)" fill="#E3E5E5"/>
<path d="M119.5 75.0742C74.9408 75.0742 38.8184 110.929 38.8184 155.157H200.182C200.182 110.929 164.06 75.0742 119.5 75.0742Z" fill="#434C52"/>
<path d="M154.16 16.9097L152.257 17.1014C120.972 20.2521 98.1468 48.1426 101.246 79.4333L103.023 97.365C103.65 103.697 108.768 108.645 115.118 109.056L135.96 110.408C159.947 111.963 183.492 103.419 200.899 86.8412C204.409 83.4984 204.953 78.0941 202.181 74.1181L166.127 22.4089C163.43 18.5416 158.851 16.4373 154.16 16.9097Z" fill="#C6CACC"/>
<path fill-rule="evenodd" clip-rule="evenodd" d="M179.502 101.984C164.651 85.4351 143.097 75.025 119.112 75.025C112.794 75.025 106.645 75.7473 100.742 77.1139L102.765 97.6156C103.389 103.949 108.507 108.898 114.857 109.312L135.726 110.671C150.979 111.664 166.055 108.593 179.502 101.984Z" fill="#778085"/>
<g style="mix-blend-mode:multiply" opacity="0.2">
<path d="M148.34 33.3034L145.459 34.4696C140.163 36.6133 136.887 41.964 137.386 47.6558L138.264 57.6628C138.984 65.8687 147.057 71.3447 154.947 68.9794L161.982 66.8705C169.932 64.4872 173.643 55.3654 169.615 48.1087L164.584 39.0444C161.396 33.3025 154.427 30.8395 148.34 33.3034Z" fill="#778085"/>
</g>
<path d="M149.153 32.7815C153.53 32.4871 162.802 35.9844 169.552 50.757C171.801 55.6799 168.817 61.2416 163.547 62.476C153.647 64.7949 142.254 66.0595 141.235 60.9176C139.858 53.9705 148.694 56.402 153.285 58.4861" stroke="#354047" stroke-linecap="round"/>
<path d="M167.19 79.2664C168.86 75.9127 165.103 75.0742 163.015 75.0742C158.84 75.0742 155.245 77.869 153.97 79.2664C157.681 80.6638 165.52 82.6202 167.19 79.2664Z" fill="#778085"/>
<path d="M122.634 41.1942L138.416 36.457C139.516 36.1268 140.206 35.0383 140.036 33.9026C139.826 32.5077 138.426 31.6252 137.077 32.0381L121.321 36.861C120.112 37.2311 119.44 38.52 119.83 39.723C120.209 40.8946 121.455 41.5482 122.634 41.1942Z" fill="#434C52"/>
<path d="M156.399 27.0481L172.486 29.8257C173.649 30.0265 174.788 29.3573 175.177 28.2443C175.669 26.836 174.774 25.3259 173.301 25.0801L157.198 22.3934C155.921 22.1804 154.708 23.0323 154.477 24.3046C154.244 25.5937 155.106 26.8249 156.399 27.0481Z" fill="#434C52"/>
<path d="M161.243 62.9854C161.139 64.248 161.776 67.7713 164.893 72.5433C165.353 73.2479 164.833 74.2561 163.996 74.3391C161.053 74.6308 156.785 75.7642 153.97 78.8509" stroke="#354047" stroke-linecap="round"/>
<path d="M139.575 40.3211C137.667 45.853 132.572 55.5337 127.454 50.0019" stroke="#354047" stroke-linecap="round"/>
<path d="M158.374 35.9626C162.037 37.8746 169.377 40.3589 169.44 34.9991" stroke="#354047" stroke-linecap="round"/>
<path d="M102.704 55.2871L100.003 53.595C96.2234 51.2272 91.255 52.1984 88.6452 55.8151V55.8151C85.8417 59.7002 86.8185 65.1357 90.7993 67.8015L98.7942 73.1555C100.574 74.3473 102.844 74.5319 104.793 73.6432L110.031 71.2547" stroke="#354047" stroke-linecap="round"/>
<path d="M96.3936 62.2306L103.969 66.0081" stroke="#354047" stroke-linecap="round"/>
<path d="M32 115.116L130.292 132.778C135.665 133.743 139.576 138.419 139.576 143.878V143.878C139.576 150.107 134.526 155.157 128.297 155.157H32V115.116Z" fill="#E3E5E5"/>
<path d="M187.132 103.782C185.977 100.611 185.746 93.6977 194.061 91.4144C202.376 89.1311 204.125 81.5836 203.96 78.0952" stroke="#354047" stroke-linecap="round"/>
<path d="M209.256 78.8509C209.43 82.1562 208.314 89.8057 202.454 93.9609" stroke="#354047" stroke-linecap="round"/>
<path d="M216.08 79.6067C216.235 82.9854 214.786 90.8888 207.758 95.4722" stroke="#354047" stroke-linecap="round"/>
<path d="M219.568 84.8949C219.667 87.0315 219.17 90.8319 217.222 94.6187C214.149 100.59 203.751 101.758 203.707 108.474C203.705 108.769 203.72 109.077 203.753 109.398C204.456 116.3 239.628 129.76 230.483 151.157C223.168 168.275 201.173 169.103 191.091 167.377" stroke="#354047" stroke-linecap="round"/>
</svg>
