<svg width="264" height="264" viewBox="0 0 264 264" fill="none" xmlns="http://www.w3.org/2000/svg">
<rect x="197.105" y="100.582" width="76.3887" height="76.3887" rx="17" transform="rotate(42.8622 197.105 100.582)" fill="#778085"/>
<g style="mix-blend-mode:multiply" opacity="0.2">
<circle cx="200.202" cy="103.428" r="34.4123" transform="rotate(15 200.202 103.428)" fill="#778085"/>
</g>
<g style="mix-blend-mode:multiply">
<ellipse cx="48.6549" cy="69.2968" rx="38.6549" ry="38.1835" fill="#778085"/>
</g>
<g style="mix-blend-mode:multiply">
<circle cx="83.5387" cy="38.6549" r="38.6549" fill="#778085"/>
</g>
<path d="M161.578 166.306C162.999 164.484 165.664 164.241 167.39 165.776L190.032 185.909C191.759 187.445 191.829 190.119 190.186 191.743L125.566 255.613C124.066 257.095 121.672 257.159 120.096 255.757L106.197 243.398C104.621 241.997 104.404 239.612 105.701 237.949L161.578 166.306Z" fill="#F0F0F0"/>
<path d="M121.205 239.711C121.397 239.513 121.714 239.507 121.912 239.699C122.111 239.892 122.116 240.208 121.924 240.406L121.205 239.711ZM84.0435 249.545L83.8118 249.989L84.0435 249.545ZM87.2059 186.138L87.4785 185.719L87.2059 186.138ZM44.1541 198.518C43.9616 198.32 43.9661 198.003 44.1641 197.811C44.3622 197.618 44.6787 197.623 44.8712 197.821L44.1541 198.518ZM121.924 240.406C118.02 244.439 112.185 248.747 105.487 251.096C98.7803 253.448 91.1815 253.842 83.8118 249.989L84.2752 249.102C91.3412 252.797 98.6414 252.437 105.156 250.153C111.679 247.865 117.386 243.656 121.205 239.711L121.924 240.406ZM83.8118 249.989C67.2594 241.333 63.9644 222.534 66.7956 207.38C68.2128 199.795 71.1755 193.039 74.8574 188.836C76.6989 186.733 78.747 185.239 80.9018 184.63C83.0756 184.015 85.3159 184.313 87.4785 185.719L86.9334 186.557C85.0056 185.304 83.0623 185.058 81.174 185.592C79.2665 186.131 77.3735 187.481 75.6096 189.495C72.0805 193.524 69.1741 200.095 67.7786 207.564C64.9843 222.52 68.2889 240.743 84.2752 249.102L83.8118 249.989ZM87.4785 185.719C90.8304 187.898 91.4483 191.736 90.1708 195.621C88.8948 199.503 85.7135 203.543 81.2719 206.396C76.8217 209.254 71.0809 210.939 64.6691 210.07C58.2557 209.201 51.2159 205.784 44.1541 198.518L44.8712 197.821C51.8083 204.958 58.6523 208.245 64.8034 209.079C70.956 209.913 76.4602 208.298 80.7314 205.554C85.0111 202.805 88.0273 198.939 89.2209 195.309C90.413 191.683 89.7723 188.403 86.9334 186.557L87.4785 185.719Z" fill="#354047"/>
<ellipse opacity="0.6" cx="218.199" cy="235.142" rx="2.79984" ry="2.82841" fill="#E3E5E5"/>
<ellipse opacity="0.6" cx="218.199" cy="223.828" rx="2.79984" ry="2.82841" fill="#E3E5E5"/>
<ellipse opacity="0.6" cx="207" cy="235.142" rx="2.79984" ry="2.82841" fill="#E3E5E5"/>
<ellipse opacity="0.6" cx="207" cy="223.828" rx="2.79984" ry="2.82841" fill="#E3E5E5"/>
<ellipse opacity="0.6" cx="195.8" cy="235.142" rx="2.79984" ry="2.82841" fill="#E3E5E5"/>
<ellipse opacity="0.6" cx="195.8" cy="223.828" rx="2.79984" ry="2.82841" fill="#E3E5E5"/>
<path d="M48.8748 53.0435C49.9553 48.6472 53.8545 45.5252 58.3807 45.4324L109.596 44.3818C115.438 44.262 120.137 49.1541 119.783 54.9859L113.342 161.048C112.971 167.158 107.247 171.504 101.262 170.22L34.2135 155.834C28.7 154.651 25.2545 149.145 26.6004 143.669L48.8748 53.0435Z" fill="#F0F0F0"/>
<path d="M97.1817 81.7805C93.3333 80.259 95.7056 75.7051 97.9718 73.2007C98.4078 72.7188 99.0765 72.5444 99.7119 72.6808L101.601 73.0861C102.579 73.2959 103.26 74.1973 103.095 75.1837C102.506 78.705 100.809 83.2146 97.1817 81.7805Z" fill="#778085"/>
<path d="M133.511 131.349L110.35 77.5522C109.605 75.8221 107.1 75.987 106.588 77.7998L96.493 113.566C96.239 114.466 96.6425 115.422 97.4646 115.867L130.721 133.898C132.389 134.803 134.262 133.092 133.511 131.349Z" fill="#778085"/>
<path d="M125.755 85.7498C122.767 84.5698 124.482 81.1038 126.241 79.0853C126.668 78.5959 127.337 78.4228 127.972 78.559L128.927 78.7638C129.904 78.9736 130.588 79.8763 130.401 80.8586C129.881 83.5956 128.526 86.8441 125.755 85.7498Z" fill="#778085"/>
<path d="M70.5801 66.3438L132.594 79.6495" stroke="#354047" stroke-linecap="round"/>
<path d="M77.8828 87.4609C80.4514 89.9955 85.2359 90.8433 88.7886 90.9362C93.3984 91.0566 97.2589 89.8301 100.793 86.8386" stroke="#354047" stroke-linecap="round"/>
<path d="M119.34 93.691C120.651 93.9723 121.91 94.2761 123.262 94.2334C125.747 94.155 127.527 93.5083 129.717 92.3836" stroke="#354047" stroke-linecap="round"/>
<path d="M120.382 60.1611C122.843 59.3013 125.338 58.2514 127.69 57.1395C128.732 56.6475 129.759 56.1511 130.893 56.3943C131.985 56.6287 132.562 57.506 132.972 58.4924C133.305 59.291 133.89 59.9038 134.197 60.6787" stroke="#354047" stroke-width="3" stroke-linecap="round"/>
<path d="M130.175 56.6163C128.231 56.1992 126.275 55.8848 124.54 57.0068C123.658 57.5775 123.358 58.3754 122.29 58.7718C122.188 58.8095 121.178 59.0045 121.352 58.7587C121.834 58.0774 123.453 57.5967 124.164 57.2502C126.177 56.2676 128.31 54.8405 130.488 54.279C131.227 54.0885 132.05 54.3842 132.784 54.5416C135.355 55.0931 134.758 57.1819 134.364 59.0205" stroke="#354047" stroke-width="3" stroke-linecap="round"/>
<path d="M65.5353 55.132C69.7355 55.1571 74.0734 53.6119 78.1825 52.8065C81.1258 52.2297 84.0332 51.4221 86.9679 50.792C89.107 50.3327 91.3555 49.5693 93.5384 50.0376C94.4283 50.2285 95.6082 50.2763 96.4083 50.6952C97.1162 51.0658 97.9149 51.9232 98.5168 52.4649C99.3541 53.2185 100.174 53.7927 100.936 54.6358C101.961 55.7678 102.842 56.9854 103.865 58.087C104.6 58.8776 105.326 59.9995 106.129 60.6428" stroke="#354047" stroke-width="3" stroke-linecap="round"/>
<path d="M104.383 59.1379C102.824 58.8036 101.723 58.7769 100.798 57.4279C100.35 56.7755 99.7417 56.2338 99.3075 55.6027C99.0306 55.2001 98.4295 54.9383 98.2219 54.5229C97.8237 53.726 97.0418 53.2153 96.3612 52.6705C95.4273 51.923 94.3087 50.5783 93.102 50.3194C88.5087 49.3339 84.419 51.1478 80.0537 52.3707C78.4506 52.8197 76.7141 53.1318 75.1672 53.7059C73.4749 54.3339 71.4539 55.0606 69.6481 55.2608" stroke="#354047" stroke-width="3" stroke-linecap="round"/>
<path d="M107.064 111.559C107.214 111.791 107.523 111.857 107.755 111.707C107.987 111.557 108.053 111.248 107.903 111.016L107.064 111.559ZM126.084 128.691C126.256 128.907 126.57 128.943 126.787 128.772C127.003 128.6 127.039 128.285 126.868 128.069L126.084 128.691ZM107.903 111.016C107 109.618 104.894 107.809 102.761 106.536C101.688 105.895 100.576 105.371 99.5705 105.102C98.5893 104.839 97.5865 104.787 96.8424 105.268L97.3854 106.108C97.7608 105.865 98.4029 105.825 99.3119 106.068C100.196 106.305 101.22 106.781 102.249 107.394C104.318 108.63 106.278 110.344 107.064 111.559L107.903 111.016ZM96.8424 105.268C95.2448 106.301 94.3974 108.524 94.8587 110.658C95.3309 112.842 97.1472 114.884 100.761 115.66L100.97 114.682C97.67 113.974 96.2109 112.18 95.8361 110.446C95.4503 108.662 96.1839 106.885 97.3854 106.108L96.8424 105.268ZM100.761 115.66C104.199 116.397 108.952 117.657 113.641 119.738C118.335 121.822 122.928 124.712 126.084 128.691L126.868 128.069C123.572 123.914 118.817 120.941 114.047 118.824C109.272 116.705 104.446 115.428 100.97 114.682L100.761 115.66Z" fill="#354047"/>
<path d="M78.623 59.294C86.9641 57.8694 103.632 58.6815 103.576 73.3262" stroke="#354047" stroke-linecap="round"/>
<path d="M129.194 66.287C125.671 64.7276 117.921 64.4469 115.1 75.7983" stroke="#354047" stroke-linecap="round"/>
<path d="M105.402 132.061L81.4034 131.726L104.798 136.746C105.878 136.978 106.941 136.29 107.173 135.21L107.33 134.481C107.594 133.247 106.664 132.079 105.402 132.061Z" fill="#778085"/>
<path d="M106.596 138.458C107.053 139.165 107.624 140.342 107.847 141.551C108.071 142.764 107.929 143.897 107.127 144.677L107.824 145.394C108.972 144.277 109.082 142.732 108.831 141.369C108.578 140.001 107.945 138.702 107.436 137.915L106.596 138.458ZM107.127 144.677C107.035 144.766 106.767 144.878 106.173 144.874C105.612 144.871 104.875 144.767 103.989 144.571C102.223 144.181 99.9554 143.445 97.5028 142.534C92.6025 140.714 87.0307 138.221 83.3956 136.479L82.9635 137.38C86.6147 139.13 92.2161 141.637 97.1547 143.471C99.6216 144.388 101.94 145.142 103.773 145.548C104.688 145.75 105.504 145.871 106.168 145.874C106.799 145.878 107.428 145.778 107.824 145.394L107.127 144.677Z" fill="#354047"/>
<path d="M50.6691 72.3169C50.901 72.4668 51.2105 72.4004 51.3604 72.1685C51.5103 71.9366 51.4439 71.6271 51.212 71.4771L50.6691 72.3169ZM41.6502 112.813C41.5923 113.083 41.7642 113.349 42.0342 113.407C42.3042 113.465 42.57 113.293 42.6279 113.023L41.6502 112.813ZM36.6497 86.9595L36.325 87.3397L36.6497 86.9595ZM51.212 71.4771L49.1423 70.1391L48.5994 70.9789L50.6691 72.3169L51.212 71.4771ZM36.325 87.3397L42.9511 92.9994L43.6006 92.2391L36.9745 86.5793L36.325 87.3397ZM44.7566 98.3353L41.6502 112.813L42.6279 113.023L45.7343 98.5451L44.7566 98.3353ZM42.9511 92.9994C44.4872 94.3115 45.1804 96.3601 44.7566 98.3353L45.7343 98.5451C46.2352 96.2108 45.416 93.7897 43.6006 92.2391L42.9511 92.9994ZM33.4228 74.9402C31.5743 79.2632 32.75 84.286 36.325 87.3397L36.9745 86.5793C33.732 83.8097 32.6658 79.2542 34.3423 75.3333L33.4228 74.9402ZM49.1423 70.1391C43.5469 66.5218 36.0423 68.8139 33.4228 74.9402L34.3423 75.3333C36.7181 69.777 43.5246 67.6981 48.5994 70.9789L49.1423 70.1391Z" fill="#354047"/>
</svg>
