<svg xmlns="http://www.w3.org/2000/svg" width="264" height="264" fill="none" viewBox="0 0 264 264">
  <g clip-path="url(#clip0_642_146110)">
    <path d="M0 0h264v264H0z"/>
    <g opacity=".2">
      <circle cx="53.867" cy="82.963" r="38.855" fill="#B56150"/>
      <circle cx="53.867" cy="82.963" r="38.855" fill="#fff" fill-opacity=".16"/>
    </g>
    <g opacity=".2">
      <circle cx="232.625" cy="164.06" r="16.5" fill="#559E7A" transform="rotate(25.977 232.625 164.06)"/>
      <circle cx="232.625" cy="164.06" r="16.5" fill="#fff" fill-opacity=".48" transform="rotate(25.977 232.625 164.06)"/>
    </g>
    <g opacity=".6">
      <path fill="#508199" d="M222.598 22.842c5.675-2.391 11.811 2.258 11.044 8.368l-9.922 79.113c-.767 6.11-7.86 9.1-12.769 5.381l-63.552-48.15c-4.909-3.719-3.951-11.357 1.724-13.749l73.475-30.963z"/>
      <path fill="#fff" fill-opacity=".48" d="M222.598 22.842c5.675-2.391 11.811 2.258 11.044 8.368l-9.922 79.113c-.767 6.11-7.86 9.1-12.769 5.381l-63.552-48.15c-4.909-3.719-3.951-11.357 1.724-13.749l73.475-30.963z"/>
    </g>
    <rect width="53.07" height="18.954" x="138.119" y="105" fill="#D9ADA4" opacity=".6" rx="9.477" transform="rotate(25.364 138.119 105)"/>
    <g opacity=".6">
      <rect width="53.07" height="18.954" x="34" y="180" fill="#4998C9" rx="9.477"/>
      <rect width="53.07" height="18.954" x="34" y="180" fill="#fff" fill-opacity=".82" rx="9.477"/>
    </g>
    <g opacity=".6">
      <path fill="#F0C165" d="M163.563 161.77c4.101-1.099 8.229 1.677 8.757 5.89l7.076 56.401a7 7 0 01-5.133 7.633l-67.678 18.134c-4.499 1.206-8.899-2.237-8.81-6.893l1.102-58.593a6.998 6.998 0 015.187-6.629l59.499-15.943z"/>
      <path fill="#fff" fill-opacity=".48" d="M163.563 161.77c4.101-1.099 8.229 1.677 8.757 5.89l7.076 56.401a7 7 0 01-5.133 7.633l-67.678 18.134c-4.499 1.206-8.899-2.237-8.81-6.893l1.102-58.593a6.998 6.998 0 015.187-6.629l59.499-15.943z"/>
    </g>
    <g opacity=".6">
      <rect width="33" height="19" x="185.812" y="55.349" fill="#505099" rx="9.5" transform="rotate(-111.82 185.812 55.349)"/>
      <rect width="33" height="19" x="185.812" y="55.349" fill="#fff" fill-opacity=".48" rx="9.5" transform="rotate(-111.82 185.812 55.349)"/>
    </g>
    <g opacity=".6">
      <ellipse cx="75.179" cy="167.993" fill="#E3E5E5" opacity=".6" rx="3.364" ry="3.399"/>
      <ellipse cx="75.179" cy="154.399" fill="#E3E5E5" opacity=".6" rx="3.364" ry="3.399"/>
      <ellipse cx="60.821" cy="167.993" fill="#E3E5E5" opacity=".6" rx="3.364" ry="3.399"/>
      <ellipse cx="60.821" cy="154.399" fill="#E3E5E5" opacity=".6" rx="3.364" ry="3.399"/>
      <ellipse cx="47.364" cy="167.993" fill="#E3E5E5" opacity=".6" rx="3.364" ry="3.399"/>
      <ellipse cx="47.364" cy="154.399" fill="#E3E5E5" opacity=".6" rx="3.364" ry="3.399"/>
    </g>
    <path stroke="#212C33" stroke-linecap="round" d="M117.361 235.539c-.699-73.441-33.897-123.565-60.177-148.868M147.688 186.735c.473-24.166 8.718-78.752 37.907-103.771"/>
    <path fill="#212C33" d="M165.396 214.26a.5.5 0 01-.658-.753l.658.753zm61.626-6.189l-.384-.321.384.321zm-.346-41.137a.5.5 0 11.607.795l-.607-.795zm-61.938 46.573c19.575-17.075 37.228-21.02 49.03-19.409 5.889.804 10.352 2.998 12.837 5.673 1.245 1.34 2.01 2.82 2.175 4.32.167 1.51-.281 2.992-1.375 4.301l-.767-.642c.93-1.112 1.283-2.327 1.148-3.55-.136-1.233-.775-2.522-1.913-3.748-2.281-2.456-6.502-4.58-12.241-5.363-11.452-1.564-28.825 2.24-48.236 19.171l-.658-.753zm62.667-5.115c-1.191 1.425-2.613 2.227-4.13 2.453-1.512.225-3.073-.127-4.542-.924-2.932-1.59-5.564-4.976-6.929-9.39-2.745-8.875-.403-21.952 14.872-33.597l.607.795c-15 11.435-17.125 24.097-14.524 32.506 1.308 4.229 3.802 7.371 6.45 8.807 1.32.716 2.663 1.001 3.918.814 1.25-.186 2.459-.847 3.511-2.106l.767.642z"/>
    <g opacity=".6">
      <path fill="#AD6D3B" d="M75 49.912c0-4.204 3.68-7.46 7.853-6.947l20 2.456A7 7 0 01109 52.369v21.606c0 4.573-4.312 7.918-8.741 6.78l-20-5.136A7 7 0 0175 68.839V49.912z"/>
      <path fill="#fff" fill-opacity=".82" d="M75 49.912c0-4.204 3.68-7.46 7.853-6.947l20 2.456A7 7 0 01109 52.369v21.606c0 4.573-4.312 7.918-8.741 6.78l-20-5.136A7 7 0 0175 68.839V49.912z"/>
    </g>
  </g>
  <defs>
    <clipPath id="clip0_642_146110">
      <path fill="#fff" d="M0 0h264v264H0z"/>
    </clipPath>
  </defs>
</svg>
