<svg xmlns="http://www.w3.org/2000/svg" width="588" height="446" fill="none" viewBox="0 0 588 446">
  <g clip-path="url(#clip0_1049_94628)">
    <path fill="#F9F9F9" d="M445.875 123.388c-5.907-3.205-8.86-4.808-10.492-7.182a11.996 11.996 0 01-2.108-7.11c.075-2.88 1.677-5.834 4.883-11.74l38.412-70.78c1.648-3.038 2.472-4.556 3.623-5.742a12.007 12.007 0 013.55-2.52c1.498-.697 3.204-.975 6.614-1.53l41.496-6.76c5.015-.818 7.522-1.226 9.781-.722a11.998 11.998 0 015.368 2.752c1.729 1.54 2.861 3.814 5.126 8.362l20.416 41.005c1.629 3.272 2.444 4.908 2.745 6.62.267 1.517.239 3.07-.081 4.576-.361 1.7-1.233 3.307-2.977 6.52l-38.141 70.28c-3.205 5.907-4.808 8.861-7.182 10.493a12.003 12.003 0 01-7.11 2.108c-2.88-.075-5.834-1.678-11.741-4.884l-62.182-33.746z"/>
    <circle cx="513" cy="330" r="64" fill="#E0EEE7"/>
    <g opacity=".2">
      <path fill="#B56150" d="M96.941 317l100.103 23.941-23.941 100.103L73 417.103z"/>
      <path fill="#fff" fill-opacity=".16" d="M96.941 317l100.103 23.941-23.941 100.103L73 417.103z"/>
    </g>
    <path fill="#FCF4E3" fill-rule="evenodd" d="M60.62 104.815c33.445-13.319 74.161-21.2 97.494 6.236 26.158 30.758 25.611 77.58.985 109.561-21.468 27.88-61.294 23.215-94.695 12.138-29.23-9.693-55.044-31.305-55.954-62.096-.915-30.955 23.415-54.387 52.17-65.839z" clip-rule="evenodd"/>
    <path stroke="#C6CACC" stroke-linecap="round" d="M128.611 214.615c11.455 19.907 20.138 44.9 4.936 62.132-17.042 19.318-46.659 23.235-69.096 10.595-19.56-11.019-20.238-36.593-16.284-58.693 3.46-19.341 14.758-37.608 34.119-40.986 19.464-3.396 36.475 9.835 46.325 26.952z" clip-rule="evenodd" opacity=".4"/>
  </g>
  <defs>
    <clipPath id="clip0_1049_94628">
      <path fill="#fff" d="M0 0h588v446H0z"/>
    </clipPath>
  </defs>
</svg>
