<svg xmlns="http://www.w3.org/2000/svg" fill="none" viewBox="0 0 40 40">
  <path fill="#745099" d="M-43 0H83v40H-43z"/>
  <path fill="#000" fill-opacity=".26" d="M-43 0H83v40H-43z"/>
  <path fill="#745099" fill-rule="evenodd" d="M18.34 18.815c6.038.485 11.525 2.84 16.66 6.04 5.504 3.429 11.389 6.977 13.837 12.963 2.533 6.19 2.161 13.432-.533 19.555-2.558 5.812-8.29 9.224-13.646 12.665-5.056 3.248-10.31 6.28-16.319 6.586-6.225.317-12.613-1.108-17.577-4.861-4.905-3.709-7.363-9.57-9.234-15.41-1.861-5.812-2.8-11.858-1.402-17.797 1.49-6.335 4.131-12.799 9.48-16.54 5.313-3.718 12.26-3.72 18.733-3.2z" clip-rule="evenodd"/>
  <path fill="#fff" fill-opacity=".16" fill-rule="evenodd" d="M18.34 18.815c6.038.485 11.525 2.84 16.66 6.04 5.504 3.429 11.389 6.977 13.837 12.963 2.533 6.19 2.161 13.432-.533 19.555-2.558 5.812-8.29 9.224-13.646 12.665-5.056 3.248-10.31 6.28-16.319 6.586-6.225.317-12.613-1.108-17.577-4.861-4.905-3.709-7.363-9.57-9.234-15.41-1.861-5.812-2.8-11.858-1.402-17.797 1.49-6.335 4.131-12.799 9.48-16.54 5.313-3.718 12.26-3.72 18.733-3.2z" clip-rule="evenodd"/>
  <g opacity=".2" style="mix-blend-mode:multiply">
    <path fill="#745099" fill-rule="evenodd" d="M40.093 4.377c3.853.98 7.256 3.288 9.032 6.854 1.927 3.87 2.505 8.483.528 12.341-2.026 3.953-6.178 6.037-10.481 7.078-4.728 1.142-10.285 2.145-13.8-1.21-3.44-3.285-2.4-8.798-1.615-13.508.645-3.871 2.292-7.488 5.492-9.752 3.154-2.23 7.112-2.75 10.844-1.803z" clip-rule="evenodd"/>
    <path fill="#000" fill-opacity=".56" fill-rule="evenodd" d="M40.093 4.377c3.853.98 7.256 3.288 9.032 6.854 1.927 3.87 2.505 8.483.528 12.341-2.026 3.953-6.178 6.037-10.481 7.078-4.728 1.142-10.285 2.145-13.8-1.21-3.44-3.285-2.4-8.798-1.615-13.508.645-3.871 2.292-7.488 5.492-9.752 3.154-2.23 7.112-2.75 10.844-1.803z" clip-rule="evenodd"/>
  </g>
  <g>
    <path stroke="#745099" d="M7.614 7.844v-28.545a5.466 5.466 0 0110.931 0V7.844a5.466 5.466 0 11-10.931 0z"/>
    <path stroke="#fff" stroke-opacity=".48" d="M7.614 7.844v-28.545a5.466 5.466 0 0110.931 0V7.844a5.466 5.466 0 11-10.931 0z"/>
  </g>
  <defs>
    <clipPath id="clip0_95_23617">
      <path fill="#fff" d="M0 19.2C0 12.48 0 9.12 1.308 6.552a12 12 0 015.244-5.244C9.12 0 12.48 0 19.2 0h1.6c6.72 0 10.08 0 12.648 1.308a12 12 0 015.244 5.244C40 9.12 40 12.48 40 19.2v1.6c0 6.72 0 10.08-1.308 12.648a12 12 0 01-5.244 5.244C30.88 40 27.52 40 20.8 40h-1.6c-6.72 0-10.08 0-12.648-1.308a12 12 0 01-5.244-5.244C0 30.88 0 27.52 0 20.8v-1.6z"/>
    </clipPath>
    <clipPath id="clip1_95_23617">
      <path fill="#fff" d="M0 0h126v40H0z" transform="translate(-43)"/>
    </clipPath>
  </defs>
</svg>
