<svg xmlns="http://www.w3.org/2000/svg" fill="none" viewBox="0 0 40 40">
      <path fill="#508199" d="M-43 0H83v40H-43z"/>
      <path fill="#000" fill-opacity=".26" d="M-43 0H83v40H-43z"/>
      <path fill="#508199" d="M-15.796 30.238a5.952 5.952 0 015.953-5.952h32.481a5.952 5.952 0 010 11.905H-9.843a5.952 5.952 0 01-5.953-5.953z"/>
      <path fill="#fff" fill-opacity=".48" d="M-15.796 30.238a5.952 5.952 0 015.953-5.952h32.481a5.952 5.952 0 010 11.905H-9.843a5.952 5.952 0 01-5.953-5.953z"/>
      <path fill="#508199" d="M-29.16 14.048a5.952 5.952 0 015.953-5.953H9.275a5.952 5.952 0 010 11.905h-32.482a5.952 5.952 0 01-5.952-5.952z"/>
      <path fill="#000" fill-opacity=".56" d="M-29.16 14.048a5.952 5.952 0 015.953-5.953H9.275a5.952 5.952 0 010 11.905h-32.482a5.952 5.952 0 01-5.952-5.952z"/>
      <g opacity=".32" style="mix-blend-mode:multiply">
        <path fill="#508199" fill-rule="evenodd" d="M64.715 40.697c-.782 7.776-4.33 15.456-11.167 19.315-6.808 3.843-15.361 3.149-22.34-.4-6.245-3.176-8.726-9.996-11.04-16.575-2.49-7.08-6.27-14.909-2.269-21.26 4.103-6.512 12.861-7.71 20.6-7.837 7.111-.117 13.994 2.118 18.958 7.185 5.137 5.243 7.989 12.298 7.258 19.572z" clip-rule="evenodd"/>
        <path fill="#000" fill-opacity=".56" fill-rule="evenodd" d="M64.715 40.697c-.782 7.776-4.33 15.456-11.167 19.315-6.808 3.843-15.361 3.149-22.34-.4-6.245-3.176-8.726-9.996-11.04-16.575-2.49-7.08-6.27-14.909-2.269-21.26 4.103-6.512 12.861-7.71 20.6-7.837 7.111-.117 13.994 2.118 18.958 7.185 5.137 5.243 7.989 12.298 7.258 19.572z" clip-rule="evenodd"/>
      </g>
      <g>
        <rect width="22.837" height="22.837" y=".706" stroke="#508199" rx="11.418" transform="rotate(44.935 31.678 39.815)"/>
        <rect width="22.837" height="22.837" y=".706" stroke="#fff" stroke-opacity=".16" rx="11.418" transform="rotate(44.935 31.678 39.815)"/>
      </g>
  <defs>
    <clipPath id="clip0_95_23613">
      <path fill="#fff" d="M0 19.2C0 12.48 0 9.12 1.308 6.552a12 12 0 015.244-5.244C9.12 0 12.48 0 19.2 0h1.6c6.72 0 10.08 0 12.648 1.308a12 12 0 015.244 5.244C40 9.12 40 12.48 40 19.2v1.6c0 6.72 0 10.08-1.308 12.648a12 12 0 01-5.244 5.244C30.88 40 27.52 40 20.8 40h-1.6c-6.72 0-10.08 0-12.648-1.308a12 12 0 01-5.244-5.244C0 30.88 0 27.52 0 20.8v-1.6z"/>
    </clipPath>
    <clipPath id="clip1_95_23613">
      <path fill="#fff" d="M0 0h126v40H0z" transform="translate(-43)"/>
    </clipPath>
  </defs>
</svg>
