<svg xmlns="http://www.w3.org/2000/svg" fill="none" viewBox="0 0 40 40">
  <path fill="#FCF0E4" d="M-43 0H83v40H-43z"/>
  <path fill="#000" fill-opacity=".26" d="M-43 0H83v40H-43z"/>
  <path fill="#FCF0E4" fill-rule="evenodd" d="M25.395 19.869c3.35 2.306 5.75 5.516 7.66 9.1 2.047 3.84 4.276 7.878 3.685 12.183-.612 4.452-3.267 8.543-6.897 11.204-3.447 2.526-7.93 2.59-12.207 2.798-4.035.196-8.114.2-11.713-1.636-3.73-1.902-6.966-4.872-8.59-8.72-1.605-3.803-1.061-8.039-.182-12.066.874-4.006 2.364-7.84 5.178-10.829 3-3.188 6.715-6.065 11.087-6.45 4.344-.384 8.387 1.944 11.979 4.416z" clip-rule="evenodd"/>
  <path fill="#000" fill-opacity=".56" fill-rule="evenodd" d="M25.395 19.869c3.35 2.306 5.75 5.516 7.66 9.1 2.047 3.84 4.276 7.878 3.685 12.183-.612 4.452-3.267 8.543-6.897 11.204-3.447 2.526-7.93 2.59-12.207 2.798-4.035.196-8.114.2-11.713-1.636-3.73-1.902-6.966-4.872-8.59-8.72-1.605-3.803-1.061-8.039-.182-12.066.874-4.006 2.364-7.84 5.178-10.829 3-3.188 6.715-6.065 11.087-6.45 4.344-.384 8.387 1.944 11.979 4.416z" clip-rule="evenodd"/>
  <g style="mix-blend-mode:soft-light">
    <path fill="#FCF0E4" fill-rule="evenodd" d="M39.417-4.502c2.825 1.99 4.77 4.871 6.269 8.127 1.605 3.488 3.36 7.153 2.627 11.206-.758 4.192-3.291 8.147-6.609 10.814-3.15 2.532-7.087 2.814-10.85 3.22-3.55.383-7.13.589-10.197-.95-3.177-1.593-5.87-4.209-7.104-7.726-1.22-3.475-.531-7.461.44-11.27.967-3.788 2.465-7.445 5.083-10.378 2.792-3.129 6.194-6.002 10.05-6.579 3.83-.573 7.262 1.402 10.29 3.536z" clip-rule="evenodd"/>
    <path fill="#fff" fill-opacity=".16" fill-rule="evenodd" d="M39.417-4.502c2.825 1.99 4.77 4.871 6.269 8.127 1.605 3.488 3.36 7.153 2.627 11.206-.758 4.192-3.291 8.147-6.609 10.814-3.15 2.532-7.087 2.814-10.85 3.22-3.55.383-7.13.589-10.197-.95-3.177-1.593-5.87-4.209-7.104-7.726-1.22-3.475-.531-7.461.44-11.27.967-3.788 2.465-7.445 5.083-10.378 2.792-3.129 6.194-6.002 10.05-6.579 3.83-.573 7.262 1.402 10.29 3.536z" clip-rule="evenodd"/>
  </g>
  <g style="mix-blend-mode:soft-light">
    <path fill="#FCF0E4" fill-rule="evenodd" d="M34.392 9.781c-1.781.56-3.659.452-5.551.029-2.028-.454-4.18-.9-5.686-2.54-1.558-1.697-2.432-4.077-2.495-6.372-.06-2.18 1.107-3.96 2.163-5.706.997-1.648 2.08-3.25 3.745-4.06 1.726-.842 3.734-1.14 5.653-.519 1.895.615 3.387 2.214 4.71 3.876 1.315 1.654 2.4 3.494 2.806 5.575.434 2.221.558 4.62-.455 6.462-1.006 1.83-2.98 2.654-4.89 3.255z" clip-rule="evenodd"/>
    <path fill="#fff" fill-opacity=".16" fill-rule="evenodd" d="M34.392 9.781c-1.781.56-3.659.452-5.551.029-2.028-.454-4.18-.9-5.686-2.54-1.558-1.697-2.432-4.077-2.495-6.372-.06-2.18 1.107-3.96 2.163-5.706.997-1.648 2.08-3.25 3.745-4.06 1.726-.842 3.734-1.14 5.653-.519 1.895.615 3.387 2.214 4.71 3.876 1.315 1.654 2.4 3.494 2.806 5.575.434 2.221.558 4.62-.455 6.462-1.006 1.83-2.98 2.654-4.89 3.255z" clip-rule="evenodd"/>
  </g>
  <g>
    <path stroke="#FCF0E4" d="M-6.525 7.09c2.736.218 5.222 1.28 7.55 2.722 2.493 1.546 5.16 3.146 6.27 5.844 1.147 2.791.978 6.056-.243 8.816-1.159 2.62-3.756 4.159-6.183 5.71-2.29 1.464-4.672 2.831-7.394 2.969-2.821.143-5.716-.5-7.965-2.191-2.223-1.672-3.336-4.314-4.184-6.948-.844-2.62-1.269-5.345-.636-8.023.676-2.856 1.872-5.77 4.296-7.457 2.407-1.676 5.555-1.676 8.489-1.442z" clip-rule="evenodd"/>
    <path stroke="#fff" stroke-opacity=".48" d="M-6.525 7.09c2.736.218 5.222 1.28 7.55 2.722 2.493 1.546 5.16 3.146 6.27 5.844 1.147 2.791.978 6.056-.243 8.816-1.159 2.62-3.756 4.159-6.183 5.71-2.29 1.464-4.672 2.831-7.394 2.969-2.821.143-5.716-.5-7.965-2.191-2.223-1.672-3.336-4.314-4.184-6.948-.844-2.62-1.269-5.345-.636-8.023.676-2.856 1.872-5.77 4.296-7.457 2.407-1.676 5.555-1.676 8.489-1.442z" clip-rule="evenodd"/>
  </g>
  <defs>
    <clipPath id="clip0_95_23619">
      <path fill="#fff" d="M0 19.2C0 12.48 0 9.12 1.308 6.552a12 12 0 015.244-5.244C9.12 0 12.48 0 19.2 0h1.6c6.72 0 10.08 0 12.648 1.308a12 12 0 015.244 5.244C40 9.12 40 12.48 40 19.2v1.6c0 6.72 0 10.08-1.308 12.648a12 12 0 01-5.244 5.244C30.88 40 27.52 40 20.8 40h-1.6c-6.72 0-10.08 0-12.648-1.308a12 12 0 01-5.244-5.244C0 30.88 0 27.52 0 20.8v-1.6z"/>
    </clipPath>
    <clipPath id="clip1_95_23619">
      <path fill="#fff" d="M0 0h126v40H0z" transform="translate(-43)"/>
    </clipPath>
  </defs>
</svg>
