<svg xmlns="http://www.w3.org/2000/svg" fill="none" viewBox="0 0 40 40">
  <path fill="#EB4C8A" d="M-43 0H83v40H-43z"/>
  <path fill="#000" fill-opacity=".26" d="M-43 0H83v40H-43z"/>
  <g style="mix-blend-mode:multiply">
    <path fill="#EB4C8A" d="M1.625 6.19c8.567 0 15.512 6.945 15.512 15.512v31.834c0 8.567-6.945 15.512-15.512 15.512s-15.511-6.945-15.511-15.512V21.702c0-8.567 6.944-15.512 15.511-15.512z"/>
    <path fill="#000" fill-opacity=".56" d="M1.625 6.19c8.567 0 15.512 6.945 15.512 15.512v31.834c0 8.567-6.945 15.512-15.512 15.512s-15.511-6.945-15.511-15.512V21.702c0-8.567 6.944-15.512 15.511-15.512z"/>
  </g>
  <path fill="#EB4C8A" d="M35.511 30.476C26.945 30.476 20 23.532 20 14.965V-16.87c0-8.566 6.945-15.511 15.511-15.511 8.567 0 15.512 6.945 15.512 15.511v31.835c0 8.567-6.945 15.511-15.512 15.511z"/>
  <path fill="#fff" fill-opacity=".48" d="M35.511 30.476C26.945 30.476 20 23.532 20 14.965V-16.87c0-8.566 6.945-15.511 15.511-15.511 8.567 0 15.512 6.945 15.512 15.511v31.835c0 8.567-6.945 15.511-15.512 15.511z"/>
  <path stroke="#EB4C8A" d="M22.407-11.13c3.35 2.307 5.75 5.517 7.66 9.1 2.047 3.841 4.276 7.88 3.685 12.184-.612 4.453-3.267 8.543-6.897 11.204-3.447 2.526-7.93 2.59-12.207 2.798-4.035.196-8.114.2-11.713-1.636-3.73-1.902-6.966-4.872-8.59-8.72-1.605-3.803-1.061-8.038-.182-12.066.874-4.006 2.364-7.84 5.178-10.829 3-3.188 6.715-6.065 11.087-6.45 4.344-.384 8.386 1.944 11.979 4.416z" clip-rule="evenodd"/>
  <path stroke="#fff" stroke-opacity=".48" d="M22.407-11.13c3.35 2.307 5.75 5.517 7.66 9.1 2.047 3.841 4.276 7.88 3.685 12.184-.612 4.453-3.267 8.543-6.897 11.204-3.447 2.526-7.93 2.59-12.207 2.798-4.035.196-8.114.2-11.713-1.636-3.73-1.902-6.966-4.872-8.59-8.72-1.605-3.803-1.061-8.038-.182-12.066.874-4.006 2.364-7.84 5.178-10.829 3-3.188 6.715-6.065 11.087-6.45 4.344-.384 8.386 1.944 11.979 4.416z" clip-rule="evenodd"/>
  <g style="mix-blend-mode:soft-light">
    <path fill="#EB4C8A" fill-rule="evenodd" d="M42.148 50.345c-2.524.794-5.184.64-7.865.04-2.873-.642-5.922-1.274-8.056-3.598-2.206-2.404-3.445-5.776-3.534-9.027-.085-3.087 1.568-5.61 3.064-8.083 1.413-2.335 2.946-4.604 5.307-5.754 2.445-1.191 5.29-1.614 8.007-.733 2.686.87 4.799 3.136 6.672 5.49 1.864 2.344 3.4 4.95 3.977 7.899.615 3.146.791 6.544-.644 9.154-1.426 2.592-4.222 3.76-6.928 4.612z" clip-rule="evenodd"/>
    <path fill="#fff" fill-opacity=".16" fill-rule="evenodd" d="M42.148 50.345c-2.524.794-5.184.64-7.865.04-2.873-.642-5.922-1.274-8.056-3.598-2.206-2.404-3.445-5.776-3.534-9.027-.085-3.087 1.568-5.61 3.064-8.083 1.413-2.335 2.946-4.604 5.307-5.754 2.445-1.191 5.29-1.614 8.007-.733 2.686.87 4.799 3.136 6.672 5.49 1.864 2.344 3.4 4.95 3.977 7.899.615 3.146.791 6.544-.644 9.154-1.426 2.592-4.222 3.76-6.928 4.612z" clip-rule="evenodd"/>
  </g>
  <defs>
    <clipPath id="clip0_95_23620">
      <path fill="#fff" d="M0 19.2C0 12.48 0 9.12 1.308 6.552a12 12 0 015.244-5.244C9.12 0 12.48 0 19.2 0h1.6c6.72 0 10.08 0 12.648 1.308a12 12 0 015.244 5.244C40 9.12 40 12.48 40 19.2v1.6c0 6.72 0 10.08-1.308 12.648a12 12 0 01-5.244 5.244C30.88 40 27.52 40 20.8 40h-1.6c-6.72 0-10.08 0-12.648-1.308a12 12 0 01-5.244-5.244C0 30.88 0 27.52 0 20.8v-1.6z"/>
    </clipPath>
    <clipPath id="clip1_95_23620">
      <path fill="#fff" d="M0 0h126v40H0z" transform="translate(-43)"/>
    </clipPath>
  </defs>
</svg>
