<svg xmlns="http://www.w3.org/2000/svg" fill="none" viewBox="0 0 40 40">
      <path fill="#505099" d="M-43 0H83v40H-43z"/>
      <path fill="#000" fill-opacity=".26" d="M-43 0H83v40H-43z"/>
      <ellipse cx="10.454" cy="38.095" fill="#505099" rx="20.046" ry="20"/>
      <ellipse cx="10.454" cy="38.095" fill="#fff" fill-opacity=".16" rx="20.046" ry="20"/>
      <g opacity=".2" style="mix-blend-mode:multiply">
        <path fill="#505099" d="M38.136-2.619L24.701 15.37C16.848 25.888 2.37 28.865-8.994 22.3A32.705 32.705 0 01-25.341-6.02v-2.074L38.136-2.62z"/>
        <path fill="#000" fill-opacity=".56" d="M38.136-2.619L24.701 15.37C16.848 25.888 2.37 28.865-8.994 22.3A32.705 32.705 0 01-25.341-6.02v-2.074L38.136-2.62z"/>
      </g>
      <g opacity=".24">
        <path stroke="#505099" d="M30.624 19.582c-7.562-2.037-14.577-6.78-17.28-14.14-2.691-7.328-.61-15.634 4.036-21.926 4.159-5.63 11.307-6.961 18.19-8.167 7.407-1.298 15.764-3.742 21.393 1.231 5.771 5.1 5.528 13.917 4.393 21.556-1.043 7.02-4.375 13.43-10.194 17.491-6.023 4.203-13.464 5.86-20.538 3.955z" clip-rule="evenodd"/>
        <path stroke="#fff" stroke-opacity=".48" d="M30.624 19.582c-7.562-2.037-14.577-6.78-17.28-14.14-2.691-7.328-.61-15.634 4.036-21.926 4.159-5.63 11.307-6.961 18.19-8.167 7.407-1.298 15.764-3.742 21.393 1.231 5.771 5.1 5.528 13.917 4.393 21.556-1.043 7.02-4.375 13.43-10.194 17.491-6.023 4.203-13.464 5.86-20.538 3.955z" clip-rule="evenodd"/>
      </g>
      <g opacity=".24">
        <path stroke="#505099" d="M33.99 7.487c-3.762-1.013-7.253-3.373-8.597-7.035-1.339-3.645-.304-7.778 2.008-10.908 2.069-2.801 5.625-3.463 9.05-4.063 3.684-.646 7.843-1.862 10.643.612 2.871 2.538 2.75 6.924 2.185 10.724C48.76.31 47.103 3.5 44.207 5.52 41.212 7.61 37.51 8.435 33.99 7.487z" clip-rule="evenodd"/>
        <path stroke="#fff" stroke-opacity=".48" d="M33.99 7.487c-3.762-1.013-7.253-3.373-8.597-7.035-1.339-3.645-.304-7.778 2.008-10.908 2.069-2.801 5.625-3.463 9.05-4.063 3.684-.646 7.843-1.862 10.643.612 2.871 2.538 2.75 6.924 2.185 10.724C48.76.31 47.103 3.5 44.207 5.52 41.212 7.61 37.51 8.435 33.99 7.487z" clip-rule="evenodd"/>
      </g>
  <defs>
    <clipPath id="clip0_95_23615">
      <path fill="#fff" d="M0 19.2C0 12.48 0 9.12 1.308 6.552a12 12 0 015.244-5.244C9.12 0 12.48 0 19.2 0h1.6c6.72 0 10.08 0 12.648 1.308a12 12 0 015.244 5.244C40 9.12 40 12.48 40 19.2v1.6c0 6.72 0 10.08-1.308 12.648a12 12 0 01-5.244 5.244C30.88 40 27.52 40 20.8 40h-1.6c-6.72 0-10.08 0-12.648-1.308a12 12 0 01-5.244-5.244C0 30.88 0 27.52 0 20.8v-1.6z"/>
    </clipPath>
    <clipPath id="clip1_95_23615">
      <path fill="#fff" d="M0 0h126v40H0z" transform="translate(-43)"/>
    </clipPath>
  </defs>
</svg>
