<svg xmlns="http://www.w3.org/2000/svg" fill="none" viewBox="0 0 40 40">
      <path fill="#A79184" d="M-43 0H82v40H-43z"/>
      <path fill="#000" fill-opacity=".26" d="M-43 0H82v40H-43z"/>
      <path fill="#A79184" d="M5.811 27.94l-17.087 14.441H50.75l-.186-.668A27.82 27.82 0 005.81 27.941z"/>
      <path fill="#fff" fill-opacity=".16" d="M5.811 27.94l-17.087 14.441H50.75l-.186-.668A27.82 27.82 0 005.81 27.941z"/>
      <g opacity=".24" style="mix-blend-mode:multiply">
        <path fill="#A79184" fill-rule="evenodd" d="M10.214-20.25c7.09-3.196 15.465-3.95 22.171.043C39.063-16.231 42.69-8.485 43.078-.68c.347 6.985-4.308 12.528-8.836 17.807-4.874 5.68-9.758 12.85-17.21 12.551C9.389 29.372 4.03 22.39.096 15.758-3.519 9.665-4.992 2.597-3.076-4.221c1.983-7.056 6.656-13.037 13.29-16.027z" clip-rule="evenodd"/>
        <path fill="#000" fill-opacity=".56" fill-rule="evenodd" d="M10.214-20.25c7.09-3.196 15.465-3.95 22.171.043C39.063-16.231 42.69-8.485 43.078-.68c.347 6.985-4.308 12.528-8.836 17.807-4.874 5.68-9.758 12.85-17.21 12.551C9.389 29.372 4.03 22.39.096 15.758-3.519 9.665-4.992 2.597-3.076-4.221c1.983-7.056 6.656-13.037 13.29-16.027z" clip-rule="evenodd"/>
      </g>
      <g>
        <ellipse cx="-6.542" cy="-5.714" stroke="#A79184" rx="19.886" ry="20"/>
        <ellipse cx="-6.542" cy="-5.714" stroke="#fff" stroke-opacity=".48" rx="19.886" ry="20"/>
      </g>
  <defs>
    <clipPath id="clip0_95_23599">
      <path fill="#fff" d="M0 12C0 5.373 5.373 0 12 0h16c6.627 0 12 5.373 12 12v16c0 6.627-5.373 12-12 12H12C5.373 40 0 34.627 0 28V12z"/>
    </clipPath>
    <clipPath id="clip1_95_23599">
      <path fill="#fff" d="M0 0h125v40H0z" transform="translate(-43)"/>
    </clipPath>
  </defs>
</svg>
