<svg xmlns="http://www.w3.org/2000/svg" fill="none" viewBox="0 0 40 40">
  <path fill="#4998C9" d="M-43 0H83v40H-43z"/>
  <path fill="#000" fill-opacity=".26" d="M-43 0H83v40H-43z"/>
  <g opacity=".2" style="mix-blend-mode:multiply">
    <path fill="#4998C9" fill-rule="evenodd" d="M31.035 7.288c3.397-2.062 7.431-2.873 11.227-1.646 4.12 1.333 7.829 4.148 9.209 8.257 1.414 4.21.003 8.628-2.263 12.424-2.489 4.17-5.657 8.834-10.519 8.992-4.76.156-7.98-4.442-10.805-8.297-2.321-3.168-3.76-6.872-3.142-10.737.608-3.81 3.004-6.995 6.293-8.993z" clip-rule="evenodd"/>
    <path fill="#fff" fill-opacity=".16" fill-rule="evenodd" d="M31.035 7.288c3.397-2.062 7.431-2.873 11.227-1.646 4.12 1.333 7.829 4.148 9.209 8.257 1.414 4.21.003 8.628-2.263 12.424-2.489 4.17-5.657 8.834-10.519 8.992-4.76.156-7.98-4.442-10.805-8.297-2.321-3.168-3.76-6.872-3.142-10.737.608-3.81 3.004-6.995 6.293-8.993z" clip-rule="evenodd"/>
  </g>
  <path fill="#4998C9" fill-rule="evenodd" d="M39.74 15.72c10.441-.117 22.282 1.492 26 11.158 4.183 10.871-.681 23.095-10.201 29.909-9.444 6.758-22.248 6.882-31.614.02-9.131-6.692-12.481-18.852-8.435-29.365 3.543-9.204 14.306-11.61 24.25-11.722z" clip-rule="evenodd"/>
  <path fill="#fff" fill-opacity=".48" fill-rule="evenodd" d="M39.74 15.72c10.441-.117 22.282 1.492 26 11.158 4.183 10.871-.681 23.095-10.201 29.909-9.444 6.758-22.248 6.882-31.614.02-9.131-6.692-12.481-18.852-8.435-29.365 3.543-9.204 14.306-11.61 24.25-11.722z" clip-rule="evenodd"/>
  <path fill="#4998C9" fill-rule="evenodd" d="M-5.544-25.71c6.66-.078 13.745.73 18.428 5.448 4.664 4.7 5.09 11.747 5.193 18.353.104 6.748-.264 13.755-4.618 18.926-4.698 5.579-11.712 9.655-19.003 9.128-6.979-.506-12.111-6.21-16.427-11.694-3.714-4.718-5.38-10.37-5.653-16.36-.29-6.36-.252-13.242 4.087-17.92 4.453-4.8 11.431-5.802 17.993-5.88z" clip-rule="evenodd"/>
  <path fill="#000" fill-opacity=".56" fill-rule="evenodd" d="M-5.544-25.71c6.66-.078 13.745.73 18.428 5.448 4.664 4.7 5.09 11.747 5.193 18.353.104 6.748-.264 13.755-4.618 18.926-4.698 5.579-11.712 9.655-19.003 9.128-6.979-.506-12.111-6.21-16.427-11.694-3.714-4.718-5.38-10.37-5.653-16.36-.29-6.36-.252-13.242 4.087-17.92 4.453-4.8 11.431-5.802 17.993-5.88z" clip-rule="evenodd"/>
  <g>
    <path stroke="#4998C9" d="M5.235 14.492c5.096.409 9.725 2.397 14.058 5.098 4.644 2.895 9.609 5.891 11.675 10.945 2.137 5.226 1.823 11.34-.45 16.509-2.159 4.907-6.995 7.788-11.514 10.693-4.266 2.742-8.699 5.302-13.77 5.56-5.252.268-10.642-.935-14.83-4.104-4.139-3.13-6.212-8.078-7.79-13.01-1.571-4.906-2.363-10.01-1.184-15.025 1.257-5.349 3.486-10.805 7.998-13.965 4.483-3.139 10.345-3.14 15.807-2.701z" clip-rule="evenodd"/>
    <path stroke="#fff" stroke-opacity=".48" d="M5.235 14.492c5.096.409 9.725 2.397 14.058 5.098 4.644 2.895 9.609 5.891 11.675 10.945 2.137 5.226 1.823 11.34-.45 16.509-2.159 4.907-6.995 7.788-11.514 10.693-4.266 2.742-8.699 5.302-13.77 5.56-5.252.268-10.642-.935-14.83-4.104-4.139-3.13-6.212-8.078-7.79-13.01-1.571-4.906-2.363-10.01-1.184-15.025 1.257-5.349 3.486-10.805 7.998-13.965 4.483-3.139 10.345-3.14 15.807-2.701z" clip-rule="evenodd"/>
  </g>
  <defs>
    <clipPath id="clip0_95_23618">
      <path fill="#fff" d="M0 19.2C0 12.48 0 9.12 1.308 6.552a12 12 0 015.244-5.244C9.12 0 12.48 0 19.2 0h1.6c6.72 0 10.08 0 12.648 1.308a12 12 0 015.244 5.244C40 9.12 40 12.48 40 19.2v1.6c0 6.72 0 10.08-1.308 12.648a12 12 0 01-5.244 5.244C30.88 40 27.52 40 20.8 40h-1.6c-6.72 0-10.08 0-12.648-1.308a12 12 0 01-5.244-5.244C0 30.88 0 27.52 0 20.8v-1.6z"/>
    </clipPath>
    <clipPath id="clip1_95_23618">
      <path fill="#fff" d="M0 0h126v40H0z" transform="translate(-43)"/>
    </clipPath>
  </defs>
</svg>
