<svg xmlns="http://www.w3.org/2000/svg" fill="none" viewBox="0 0 40 40">
      <path fill="#F0C165" d="M-43 0H83v40H-43z"/>
      <path fill="#000" fill-opacity=".26" d="M-43 0H83v40H-43z"/>
      <path fill="#F0C165" fill-rule="evenodd" d="M10.225-26.899c6.04.484 11.526 2.84 16.662 6.04 5.504 3.428 11.388 6.977 13.837 12.962 2.533 6.191 2.16 13.433-.534 19.555-2.558 5.813-8.29 9.224-13.646 12.666-5.055 3.247-10.31 6.28-16.319 6.586C4 31.226-2.388 29.802-7.352 26.049c-4.905-3.709-7.363-9.57-9.234-15.41-1.861-5.812-2.8-11.858-1.402-17.797 1.49-6.335 4.131-12.799 9.48-16.54 5.313-3.719 12.26-3.72 18.733-3.201z" clip-rule="evenodd"/>
      <path fill="#fff" fill-opacity=".16" fill-rule="evenodd" d="M10.225-26.899c6.04.484 11.526 2.84 16.662 6.04 5.504 3.428 11.388 6.977 13.837 12.962 2.533 6.191 2.16 13.433-.534 19.555-2.558 5.813-8.29 9.224-13.646 12.666-5.055 3.247-10.31 6.28-16.319 6.586C4 31.226-2.388 29.802-7.352 26.049c-4.905-3.709-7.363-9.57-9.234-15.41-1.861-5.812-2.8-11.858-1.402-17.797 1.49-6.335 4.131-12.799 9.48-16.54 5.313-3.719 12.26-3.72 18.733-3.201z" clip-rule="evenodd"/>
      <g opacity=".2" style="mix-blend-mode:multiply">
        <path fill="#F0C165" fill-rule="evenodd" d="M56.638 37.334c-2 5.093-5.749 9.345-10.942 11.16-5.637 1.97-12.062 1.972-17.016-1.388-5.075-3.44-7.225-9.464-7.916-15.518-.76-6.65-1.186-14.408 4.016-18.633 5.092-4.136 12.476-1.775 18.802.102 5.199 1.542 9.878 4.408 12.436 9.165 2.52 4.686 2.558 10.179.62 15.112z" clip-rule="evenodd"/>
        <path fill="#000" fill-opacity=".56" fill-rule="evenodd" d="M56.638 37.334c-2 5.093-5.749 9.345-10.942 11.16-5.637 1.97-12.062 1.972-17.016-1.388-5.075-3.44-7.225-9.464-7.916-15.518-.76-6.65-1.186-14.408 4.016-18.633 5.092-4.136 12.476-1.775 18.802.102 5.199 1.542 9.878 4.408 12.436 9.165 2.52 4.686 2.558 10.179.62 15.112z" clip-rule="evenodd"/>
      </g>
      <path stroke="#F0C165" d="M4.756 36.643H.657a5.452 5.452 0 010-10.905h4.099a5.199 5.199 0 015.199 5.2v.506c0 2.871-2.328 5.199-5.2 5.199z"/>
      <path stroke="#fff" stroke-opacity=".48" d="M4.756 36.643H.657a5.452 5.452 0 010-10.905h4.099a5.199 5.199 0 015.199 5.2v.506c0 2.871-2.328 5.199-5.2 5.199z"/>
      <g>
        <path stroke="#F0C165" stroke-linejoin="round" stroke-width="1.3" d="M9.023 10.714c0-3.546 4.104-5.515 6.87-3.295v0a4.226 4.226 0 010 6.591v0c-2.766 2.22-6.87.25-6.87-3.296v0z"/>
        <path stroke="#000" stroke-linejoin="round" stroke-opacity=".56" stroke-width="1.3" d="M9.023 10.714c0-3.546 4.104-5.515 6.87-3.295v0a4.226 4.226 0 010 6.591v0c-2.766 2.22-6.87.25-6.87-3.296v0z"/>
      </g>
  <defs>
    <clipPath id="clip0_95_23616">
      <path fill="#fff" d="M0 19.2C0 12.48 0 9.12 1.308 6.552a12 12 0 015.244-5.244C9.12 0 12.48 0 19.2 0h1.6c6.72 0 10.08 0 12.648 1.308a12 12 0 015.244 5.244C40 9.12 40 12.48 40 19.2v1.6c0 6.72 0 10.08-1.308 12.648a12 12 0 01-5.244 5.244C30.88 40 27.52 40 20.8 40h-1.6c-6.72 0-10.08 0-12.648-1.308a12 12 0 01-5.244-5.244C0 30.88 0 27.52 0 20.8v-1.6z"/>
    </clipPath>
    <clipPath id="clip1_95_23616">
      <path fill="#fff" d="M0 0h126v40H0z" transform="translate(-43)"/>
    </clipPath>
  </defs>
</svg>
