<svg xmlns="http://www.w3.org/2000/svg" fill="none" viewBox="0 0 40 40">
      <path fill="#142A38" d="M-43 0H83v40H-43z"/>
      <path fill="#556570" fill-rule="evenodd" d="M8.535 26.216c5.078-9.104 12.352-18.563 22.609-16.989 11.536 1.77 19.76 12.048 20.967 23.675 1.197 11.534-5.048 22.687-15.667 27.396-10.353 4.592-22.597 1.461-29.738-7.26-6.252-7.634-3.007-18.152 1.829-26.821z" clip-rule="evenodd"/>
      <path fill="#0B1D29" fill-rule="evenodd" d="M-6.345 16.342C-3.37 11.01.89 5.469 6.898 6.391c6.757 1.037 11.574 7.056 12.28 13.867.702 6.756-2.956 13.289-9.175 16.047-6.064 2.689-13.236.855-17.419-4.253-3.662-4.471-1.761-10.632 1.071-15.71z" clip-rule="evenodd"/>
      <path stroke="#C9D1D6" d="M22.407-11.13c3.35 2.307 5.75 5.517 7.66 9.1 2.047 3.841 4.276 7.88 3.685 12.184-.612 4.453-3.267 8.543-6.897 11.204-3.447 2.526-7.93 2.59-12.207 2.798-4.035.196-8.114.2-11.713-1.636-3.73-1.902-6.966-4.872-8.59-8.72-1.605-3.803-1.061-8.038-.183-12.066.875-4.006 2.365-7.84 5.179-10.829 3-3.188 6.715-6.065 11.087-6.45 4.344-.384 8.386 1.944 11.979 4.416z" clip-rule="evenodd"/>
      <path fill="#0B1D29" fill-rule="evenodd" d="M52.139 43.624c.069 6.103-.876 13.022-6.55 15.195-6.383 2.445-13.559-.398-17.559-5.962-3.968-5.518-4.04-13-.011-18.474 3.928-5.337 11.067-7.294 17.238-4.93 5.403 2.07 6.816 8.36 6.882 14.171z" clip-rule="evenodd" opacity=".2"/>
  <defs>
    <clipPath id="clip0_95_23621">
      <path fill="#fff" d="M0 19.2C0 12.48 0 9.12 1.308 6.552a12 12 0 015.244-5.244C9.12 0 12.48 0 19.2 0h1.6c6.72 0 10.08 0 12.648 1.308a12 12 0 015.244 5.244C40 9.12 40 12.48 40 19.2v1.6c0 6.72 0 10.08-1.308 12.648a12 12 0 01-5.244 5.244C30.88 40 27.52 40 20.8 40h-1.6c-6.72 0-10.08 0-12.648-1.308a12 12 0 01-5.244-5.244C0 30.88 0 27.52 0 20.8v-1.6z"/>
    </clipPath>
    <clipPath id="clip1_95_23621">
      <path fill="#fff" d="M0 0h126v40H0z" transform="translate(-43)"/>
    </clipPath>
  </defs>
</svg>
