<svg xmlns="http://www.w3.org/2000/svg" fill="none" viewBox="0 0 40 40">
      <path fill="#AD6D3B" d="M-43 0H83v40H-43z"/>
      <path fill="#000" fill-opacity=".26" d="M-43 0H83v40H-43z"/>
      <path fill="#AD6D3B" d="M38.136-2.619L24.701 15.37C16.848 25.888 2.37 28.865-8.995 22.3A32.705 32.705 0 01-25.34-6.02v-2.074L38.136-2.62z"/>
      <path fill="#fff" fill-opacity=".16" d="M38.136-2.619L24.701 15.37C16.848 25.888 2.37 28.865-8.995 22.3A32.705 32.705 0 01-25.34-6.02v-2.074L38.136-2.62z"/>
      <g opacity=".24" style="mix-blend-mode:multiply">
        <path fill="#A79184" fill-rule="evenodd" d="M15.862 15.728c7.562 2.037 14.577 6.78 17.28 14.14 2.69 7.328.61 15.634-4.036 21.926-4.159 5.63-11.308 6.961-18.19 8.167C3.51 61.26-4.849 63.703-10.477 58.73c-5.772-5.1-5.528-13.917-4.393-21.555 1.043-7.02 4.375-13.431 10.194-17.492 6.023-4.203 13.463-5.86 20.538-3.955z" clip-rule="evenodd"/>
        <path fill="#000" fill-opacity=".56" fill-rule="evenodd" d="M15.862 15.728c7.562 2.037 14.577 6.78 17.28 14.14 2.69 7.328.61 15.634-4.036 21.926-4.159 5.63-11.308 6.961-18.19 8.167C3.51 61.26-4.849 63.703-10.477 58.73c-5.772-5.1-5.528-13.917-4.393-21.555 1.043-7.02 4.375-13.431 10.194-17.492 6.023-4.203 13.463-5.86 20.538-3.955z" clip-rule="evenodd"/>
      </g>
      <ellipse cx="40.045" cy="-5.714" fill="#AD6D3B" rx="20.046" ry="20"/>
      <ellipse cx="40.045" cy="-5.714" fill="#fff" fill-opacity=".48" rx="20.046" ry="20"/>
      <g>
        <path stroke="#AD6D3B" d="M27.861 22.405h32.482a5.452 5.452 0 010 10.904H27.861a5.452 5.452 0 110-10.904z"/>
        <path stroke="#fff" stroke-opacity=".16" d="M27.861 22.405h32.482a5.452 5.452 0 010 10.904H27.861a5.452 5.452 0 110-10.904z"/>
      </g>
  <defs>
    <clipPath id="clip0_95_23614">
      <path fill="#fff" d="M0 19.2C0 12.48 0 9.12 1.308 6.552a12 12 0 015.244-5.244C9.12 0 12.48 0 19.2 0h1.6c6.72 0 10.08 0 12.648 1.308a12 12 0 015.244 5.244C40 9.12 40 12.48 40 19.2v1.6c0 6.72 0 10.08-1.308 12.648a12 12 0 01-5.244 5.244C30.88 40 27.52 40 20.8 40h-1.6c-6.72 0-10.08 0-12.648-1.308a12 12 0 01-5.244-5.244C0 30.88 0 27.52 0 20.8v-1.6z"/>
    </clipPath>
    <clipPath id="clip1_95_23614">
      <path fill="#fff" d="M0 0h126v40H0z" transform="translate(-43)"/>
    </clipPath>
  </defs>
</svg>
