<svg width="661" height="427" viewBox="0 0 661 427" fill="none" xmlns="http://www.w3.org/2000/svg">
<path d="M526.749 164.634L526.179 163.519C528.809 162.179 531.502 160.707 534.189 159.135C570.636 137.843 585.447 98.3017 587.15 68.4172C588.672 41.8644 580.782 19.4135 566.046 8.37906C545.38 -7.08921 517.675 5.42318 485.567 19.9145C455.395 33.5416 421.201 48.966 383 47.0873C368.321 46.3609 333.411 29.4806 323.447 24.6272L323.998 23.5C333.862 28.3033 368.616 45.1209 383.057 45.8348C420.945 47.7135 454.988 32.333 485.029 18.7747C517.493 4.12059 545.536 -8.53584 566.772 7.3708C581.84 18.6432 589.943 41.5137 588.377 68.4924C586.655 98.7025 571.67 138.663 534.796 160.212C532.116 161.797 529.398 163.287 526.749 164.634Z" fill="#113952"/>
<path d="M265.059 239.001C258.784 239.011 252.524 238.393 246.372 237.153C228.919 233.609 213.851 224.954 202.804 212.103C197.682 206.154 193.937 197.888 191.369 186.74L192.59 186.459C195.133 197.374 198.79 205.497 203.781 211.289C229.125 240.723 268.347 241.681 296.603 232.757C332.049 221.56 356.955 194.199 360.055 163.056C362.86 134.775 337.51 105.974 315.197 80.5668C292.502 54.7592 272.9 32.4649 286.27 16.0635C293.015 7.77826 306.542 14.0846 324.916 23.8978L324.29 25C306.454 15.4748 293.353 9.3063 287.21 16.8588C274.51 32.4649 293.785 54.3897 316.105 79.7715C338.618 105.372 364.132 134.386 361.27 163.212C359.648 179.526 352.346 194.894 340.153 207.676C328.799 219.575 313.85 228.661 296.942 233.978C286.632 237.266 275.881 238.96 265.059 239.001Z" fill="#113952"/>
<path d="M188.188 166.773C186.704 152.076 186.447 135.33 186.196 119.135C185.42 68.9101 184.612 16.9693 149.248 6.81784C118.562 -1.9496 95.2155 21.2215 80.9872 42.2446C65.5252 65.1276 57.265 90.4279 57.1899 90.6847L56 90.2964C56.0814 90.0459 64.3917 64.5702 79.9539 41.5432C89.1159 27.9849 98.9667 17.9087 109.231 11.5836C122.125 3.64278 135.696 1.63253 149.574 5.61545C185.896 16.0237 186.679 68.4341 187.462 119.116C187.712 135.286 187.969 152 189.447 166.648L188.188 166.773Z" fill="#113952"/>
<path d="M192.305 14.0444L149.537 30.6158L161.681 61.9561L204.449 45.3846L192.305 14.0444Z" fill="black"/>
<path d="M176.999 38.6339C176.945 38.6433 176.89 38.6433 176.836 38.6339L149.375 31.2504L149.701 30.0418L176.717 37.3062L191.784 13.7406L192.836 14.4107L177.525 38.3207C177.471 38.4136 177.395 38.4911 177.303 38.546C177.21 38.6008 177.106 38.6311 176.999 38.6339Z" fill="#057CFF"/>
<path d="M592.005 95.2086L569.48 88.0957L564.269 104.599L586.793 111.712L592.005 95.2086Z" fill="black"/>
<path d="M577.626 102.824C577.532 102.823 577.44 102.799 577.357 102.752C577.274 102.705 577.203 102.638 577.149 102.556L568.996 90.4258L569.95 89.6725L577.844 101.394L590.538 96.7652L590.915 97.9781L577.814 102.753C577.755 102.788 577.692 102.812 577.626 102.824Z" fill="#057CFF"/>
<path d="M330.5 425.945C513.03 425.945 661 423.933 661 421.452C661 418.97 513.03 416.959 330.5 416.959C147.97 416.959 0 418.97 0 421.452C0 423.933 147.97 425.945 330.5 425.945Z" fill="#DFEFEC"/>
<path d="M292.462 402.255C296.2 402.255 299.23 399.225 299.23 395.487C299.23 391.749 296.2 388.718 292.462 388.718C288.724 388.718 285.693 391.749 285.693 395.487C285.693 399.225 288.724 402.255 292.462 402.255Z" fill="#FFBA55"/>
<path d="M306.552 384.795C308.184 384.795 309.508 383.472 309.508 381.839C309.508 380.207 308.184 378.883 306.552 378.883C304.919 378.883 303.596 380.207 303.596 381.839C303.596 383.472 304.919 384.795 306.552 384.795Z" fill="#FFBA55"/>
<path d="M294.821 355.053C296.123 355.053 297.178 353.998 297.178 352.695C297.178 351.393 296.123 350.338 294.821 350.338C293.518 350.338 292.463 351.393 292.463 352.695C292.463 353.998 293.518 355.053 294.821 355.053Z" fill="#FFBA55"/>
<path d="M153.876 363.657C156.251 363.657 158.176 361.731 158.176 359.357C158.176 356.982 156.251 355.057 153.876 355.057C151.501 355.057 149.576 356.982 149.576 359.357C149.576 361.731 151.501 363.657 153.876 363.657Z" fill="#FFBA55"/>
<path d="M156.025 340.314C157.212 340.314 158.175 339.352 158.175 338.164C158.175 336.977 157.212 336.014 156.025 336.014C154.838 336.014 153.875 336.977 153.875 338.164C153.875 339.352 154.838 340.314 156.025 340.314Z" fill="#FFBA55"/>
<path d="M455.678 406.599C457.624 406.599 459.201 405.021 459.201 403.076C459.201 401.13 457.624 399.552 455.678 399.552C453.732 399.552 452.154 401.13 452.154 403.076C452.154 405.021 453.732 406.599 455.678 406.599Z" fill="#FFBA55"/>
<path d="M467.768 383.064C468.437 383.064 468.978 382.523 468.978 381.855C468.978 381.186 468.437 380.645 467.768 380.645C467.1 380.645 466.559 381.186 466.559 381.855C466.559 382.523 467.1 383.064 467.768 383.064Z" fill="#FFBA55"/>
<path d="M520.005 356.958C520.53 356.958 520.956 356.532 520.956 356.007C520.956 355.482 520.53 355.057 520.005 355.057C519.48 355.057 519.055 355.482 519.055 356.007C519.055 356.532 519.48 356.958 520.005 356.958Z" fill="#FFBA55"/>
<path d="M522.221 392.937C522.916 392.937 523.48 392.373 523.48 391.678C523.48 390.983 522.916 390.42 522.221 390.42C521.526 390.42 520.963 390.983 520.963 391.678C520.963 392.373 521.526 392.937 522.221 392.937Z" fill="#FFBA55"/>
<path d="M529.872 413.626C531.813 413.626 533.385 412.053 533.385 410.113C533.385 408.173 531.813 406.6 529.872 406.6C527.932 406.6 526.359 408.173 526.359 410.113C526.359 412.053 527.932 413.626 529.872 413.626Z" fill="#FFBA55"/>
<path d="M93.1952 413.491C111.642 411.228 103.883 348.267 72.5324 349.455C41.1818 350.642 80.3705 415.065 93.1952 413.491Z" fill="#499DA0"/>
<path d="M125.283 412.756C140.788 413.032 146.005 380.071 123.442 368.908C100.88 357.746 106.937 412.431 125.283 412.756Z" fill="#2C878D"/>
<path d="M95.2631 413.301C95.0715 413.301 94.9109 413.154 94.8962 412.961C92.7197 384.258 67.564 350.896 67.3091 350.561C67.1867 350.399 67.2177 350.168 67.3798 350.046C67.5389 349.922 67.7732 349.954 67.897 350.115C68.152 350.451 93.4388 383.982 95.63 412.903C95.6462 413.106 95.493 413.283 95.2911 413.3C95.2822 413.301 95.2719 413.301 95.2631 413.301Z" fill="white"/>
<path d="M125.281 413.125C125.253 413.125 125.226 413.122 125.198 413.116C124.999 413.072 124.875 412.873 124.921 412.675C131.623 383.22 114.749 368.509 114.576 368.364C114.423 368.233 114.402 368.001 114.535 367.844C114.666 367.69 114.899 367.672 115.055 367.802C115.229 367.95 132.439 382.952 125.642 412.839C125.602 413.01 125.45 413.125 125.281 413.125Z" fill="white"/>
<path d="M77.2828 364.785H60.7786C60.5752 364.785 60.4102 364.62 60.4102 364.417C60.4102 364.213 60.5752 364.048 60.7786 364.048H76.9704L79.2338 350.279C79.2662 350.077 79.449 349.942 79.6582 349.975C79.8586 350.008 79.9957 350.198 79.9618 350.398L77.6468 364.476C77.6173 364.654 77.4626 364.785 77.2828 364.785Z" fill="white"/>
<path d="M84.3948 378.326C84.3889 378.326 84.3815 378.326 84.3741 378.326L63.8912 377.234C63.6879 377.224 63.5331 377.05 63.5435 376.847C63.5552 376.645 63.7011 376.49 63.9325 376.499L84.0986 377.573L88.5621 355.765C88.6033 355.567 88.8023 355.435 88.9968 355.478C89.1972 355.519 89.3254 355.714 89.2842 355.913L84.7573 378.031C84.7204 378.204 84.5686 378.326 84.3948 378.326Z" fill="white"/>
<path d="M90.1145 391.521C90.0983 391.521 90.0836 391.521 90.0659 391.518L69.2455 388.768C69.0436 388.742 68.9036 388.556 68.9287 388.354C68.9552 388.152 69.1261 388.004 69.3428 388.038L89.8773 390.749L98.0513 370.047C98.1264 369.858 98.3372 369.761 98.5287 369.839C98.7188 369.914 98.8102 370.128 98.7365 370.316L90.4579 391.285C90.4004 391.43 90.2648 391.521 90.1145 391.521Z" fill="white"/>
<path d="M94.0253 404.826C93.9929 404.826 93.959 404.822 93.9281 404.813L76.3216 399.949C76.1256 399.894 76.0107 399.691 76.0637 399.495C76.1182 399.3 76.3142 399.182 76.5176 399.237L93.8441 404.025L102.497 388.226C102.594 388.046 102.823 387.983 102.998 388.08C103.176 388.178 103.241 388.402 103.145 388.58L94.351 404.633C94.2817 404.756 94.1565 404.826 94.0253 404.826Z" fill="white"/>
<path d="M120.845 376.178C120.824 376.178 120.805 376.177 120.784 376.174L110.121 374.405C109.921 374.373 109.784 374.183 109.818 373.981C109.852 373.779 110.045 373.644 110.242 373.677L120.476 375.374V367.877C120.476 367.674 120.641 367.509 120.845 367.509C121.048 367.509 121.213 367.674 121.213 367.877V375.808C121.213 375.916 121.166 376.019 121.083 376.09C121.015 376.149 120.93 376.178 120.845 376.178Z" fill="white"/>
<path d="M124.882 385.511C124.873 385.511 124.865 385.511 124.856 385.511L108.863 384.358C108.66 384.344 108.508 384.167 108.522 383.963C108.537 383.762 108.714 383.608 108.916 383.623L124.599 384.753L127.801 371.759C127.85 371.563 128.055 371.442 128.248 371.489C128.447 371.538 128.566 371.737 128.519 371.936L125.242 385.232C125.199 385.396 125.05 385.511 124.882 385.511Z" fill="white"/>
<path d="M126.875 400.768C126.837 400.768 126.797 400.762 126.759 400.749L110.065 395.204C109.872 395.14 109.767 394.931 109.832 394.738C109.898 394.545 110.106 394.44 110.297 394.504L126.728 399.962C127.848 398.319 134.654 388.213 136.208 382.865L137.929 376.938C137.986 376.742 138.198 376.632 138.386 376.688C138.582 376.745 138.693 376.949 138.637 377.145L136.916 383.071C135.198 388.988 127.505 400.137 127.179 400.607C127.11 400.71 126.995 400.768 126.875 400.768Z" fill="white"/>
<path d="M125.717 411.022C125.67 411.022 125.622 411.013 125.577 410.994L115.369 406.824C115.181 406.747 115.092 406.532 115.167 406.343C115.245 406.156 115.456 406.063 115.648 406.141L125.695 410.245C126.916 409.588 135.294 404.926 137.731 399.401C137.814 399.215 138.036 399.13 138.216 399.214C138.403 399.297 138.487 399.513 138.404 399.7C135.68 405.872 126.281 410.774 125.883 410.981C125.833 411.009 125.774 411.022 125.717 411.022Z" fill="white"/>
<path d="M95.8232 426.745C95.8129 426.745 95.8011 426.745 95.7908 426.744C95.5889 426.726 95.4401 426.546 95.4563 426.344C95.4607 426.29 95.9278 420.795 94.8919 412.985C94.8653 412.783 95.0068 412.599 95.2087 412.571C95.4209 412.543 95.5962 412.687 95.6228 412.888C96.669 420.785 96.1945 426.353 96.1901 426.409C96.1724 426.601 96.0118 426.745 95.8232 426.745Z" fill="#113952"/>
<path d="M120.047 426.744C119.975 426.744 119.901 426.723 119.838 426.679C119.67 426.564 119.627 426.334 119.743 426.166C119.782 426.112 123.557 420.565 124.916 412.695C124.948 412.496 125.131 412.357 125.342 412.394C125.542 412.429 125.676 412.62 125.641 412.82C124.256 420.857 120.39 426.529 120.35 426.585C120.278 426.688 120.163 426.744 120.047 426.744Z" fill="#113952"/>
<path d="M429.941 185.176C429.941 185.176 417.09 246.019 414.561 288.578C412.033 331.136 414.561 370.745 414.561 370.745L436.754 365.268C436.754 365.268 437.597 338.862 437.878 317.512C438.159 296.162 440.125 282.959 440.125 282.959C440.125 282.959 437.106 280.405 438.159 277.96C439.213 275.516 440.688 273.198 441.742 267.087C442.795 260.977 449.116 215.468 449.116 215.468C449.116 215.468 456.279 220.157 456.7 223.501C457.122 226.844 472.08 308.169 476.295 328.185C480.508 348.201 484.09 366.951 484.09 366.951L508.108 359.366C508.108 359.366 498.838 317.861 499.048 313.016C499.259 308.17 500.945 305.642 498.205 304.588C495.466 303.535 496.309 303.113 496.73 299.532C497.152 295.95 484.721 222.421 482.826 211.466C480.929 200.51 481.293 181.676 481.293 181.676L429.941 185.176Z" fill="#376F92"/>
<path d="M456.273 184.33C456.273 184.33 477.959 187.64 481.548 198.183L481.289 181.676L456.273 184.33Z" fill="#113952"/>
<path d="M463.017 99.062L452.061 101.274C452.061 101.274 446.794 100.326 445.002 101.274C443.212 102.221 412.768 116.864 412.768 116.864C412.768 116.864 427.411 123.712 429.938 132.772C429.938 132.772 442.895 126.556 443.632 127.61C444.369 128.664 441.103 138.846 435.626 155.561C430.149 172.276 425.373 186.041 425.373 186.041C425.373 186.041 440.823 183.794 457.257 184.355C473.69 184.916 484.786 180.562 484.786 180.562V150.645C484.786 150.645 491.388 138.566 505.293 137.302C505.293 137.302 499.674 109.491 497.779 108.017C495.884 106.543 493.355 107.174 493.355 107.174L474.815 100.116L463.017 99.062Z" fill="#F63C51"/>
<path d="M459.953 79.9967C459.953 79.9967 452.062 77.048 452.062 70.0956C452.062 63.1432 461.226 56.0847 466.388 58.1919C471.55 60.2992 476.291 67.0408 476.291 67.0408C476.291 67.0408 488.09 67.3562 490.196 72.0967C492.303 76.8373 493.356 107.176 493.356 107.176C493.356 107.176 479.346 107.28 474.816 100.117L463.017 99.0635L459.669 101.065L452.061 101.275L459.953 79.9967Z" fill="#5E1212"/>
<path d="M484.602 74.9133C483.057 74.399 481.437 74.7114 480.127 75.5853C480.127 75.5853 466.996 75.3554 464.374 69.3019C464.374 69.3019 464.374 69.3019 464.373 69.3019C464.368 69.324 463.079 75.9551 460.39 76.2042C460.366 76.4134 460.318 76.6138 460.306 76.826C459.855 80.398 459.027 88.3539 460.537 88.8432C462.491 89.4753 468.179 89.58 463.017 99.0611C463.017 99.0611 465.018 108.753 474.816 100.115C474.816 100.115 472.372 90.4376 479.177 84.4784C479.178 84.4769 479.18 84.4754 479.181 84.474C479.701 84.9706 480.324 85.3655 481.042 85.6057C483.802 86.5237 486.836 84.8748 487.819 81.9217C488.802 78.9701 487.362 75.8314 484.602 74.9133Z" fill="#FF8F6A"/>
<path d="M480.928 82.4932C480.928 82.4932 480.453 76.9201 486.055 78.5912L480.928 82.4932Z" fill="#F55A29"/>
<path d="M462.91 89.5411C466.18 90.5844 471.763 88.2665 471.763 88.2665C471.763 88.2665 471.828 93.2561 464.633 95.4753C464.633 95.4753 466.285 90.8467 462.91 89.5411Z" fill="#F55A29"/>
<path d="M469.405 82.4056C470.729 82.4056 471.803 81.922 471.803 81.3255C471.803 80.7289 470.729 80.2454 469.405 80.2454C468.081 80.2454 467.008 80.7289 467.008 81.3255C467.008 81.922 468.081 82.4056 469.405 82.4056Z" fill="#F55A29"/>
<path d="M461.696 81.6838C462.364 81.6838 462.906 81.3625 462.906 80.9662C462.906 80.5698 462.364 80.2485 461.696 80.2485C461.028 80.2485 460.486 80.5698 460.486 80.9662C460.486 81.3625 461.028 81.6838 461.696 81.6838Z" fill="#F55A29"/>
<path d="M469.034 78.6013C469.507 78.6013 469.89 78.218 469.89 77.7452C469.89 77.2723 469.507 76.889 469.034 76.889C468.561 76.889 468.178 77.2723 468.178 77.7452C468.178 78.218 468.561 78.6013 469.034 78.6013Z" fill="#5E1212"/>
<path d="M461.874 78.6013C462.347 78.6013 462.73 78.218 462.73 77.7452C462.73 77.2723 462.347 76.889 461.874 76.889C461.401 76.889 461.018 77.2723 461.018 77.7452C461.018 78.218 461.401 78.6013 461.874 78.6013Z" fill="#5E1212"/>
<path d="M463.018 99.062L467.336 103.699L463.018 108.858C463.018 108.858 460.43 105.065 459.67 101.063L463.018 99.062Z" fill="#F7E4CB"/>
<path d="M467.34 103.701L471.134 108.86C471.134 108.86 474.543 107.609 476.578 102.178L474.821 100.116C474.821 100.118 470.392 103.072 467.34 103.701Z" fill="#F7E4CB"/>
<path d="M429.938 132.773C429.938 132.773 428.78 124.135 412.768 116.866L409.186 119.289C409.186 119.289 424.672 128.77 426.673 135.09L429.938 132.773Z" fill="#F7E4CB"/>
<path d="M484.791 150.646L485.774 154.93C485.774 154.93 495.184 141.937 505.859 141.376L505.298 137.303C505.299 137.303 493.571 137.233 484.791 150.646Z" fill="#F7E4CB"/>
<path d="M503.652 141.668L507.471 159.286C507.471 159.286 514.495 146.435 520.815 135.97C527.135 125.506 533.105 115.814 536.545 115.954C536.545 115.954 541.743 111.178 544.691 110.266C547.642 109.352 552.487 108.511 552.487 108.511C552.487 108.511 553.611 110.898 549.537 112.022C545.464 113.147 542.935 116.517 542.935 116.517C542.935 116.517 545.954 118.764 546.165 119.607C546.376 120.45 545.604 121.854 545.604 121.854C545.604 121.854 546.446 123.399 546.446 124.594C546.446 125.789 544.55 125.858 544.55 125.858C544.55 125.858 545.464 126.63 545.111 127.965C544.761 129.3 541.249 132.249 541.249 132.249C541.249 132.249 539.914 132.249 540.688 130.283C540.688 130.283 538.23 131.055 536.122 131.055C534.015 131.055 530.293 136.885 526.781 147.138C523.27 157.391 514.316 179.97 512.946 181.76C511.575 183.551 500.936 185.973 499.673 184.921C498.41 183.869 487.77 152.475 487.77 152.475C487.77 152.475 493.934 144.03 503.652 141.668Z" fill="#FF8F6A"/>
<path d="M409.187 119.291L406.765 120.556C406.765 120.556 394.861 113.631 381.061 105.717C367.261 97.802 362.205 96.1163 358.939 94.958C355.674 93.7998 338.608 94.958 338.608 94.958C338.608 94.958 338.082 96.8545 343.349 97.3806C348.615 97.9067 352.619 99.0664 352.619 99.0664C352.619 99.0664 349.037 103.07 349.354 103.912C349.669 104.754 350.723 106.978 351.776 107.5C352.83 108.02 352.83 108.02 352.83 108.02C352.83 108.02 354.726 111.496 355.253 111.602C355.779 111.707 362.943 111.813 362.943 111.813C362.943 111.813 363.575 109.141 361.468 108.95C361.468 108.95 365.892 109.916 367.156 109.39C368.421 108.864 406.028 140.256 409.187 140.256C412.347 140.256 412.348 140.256 412.348 140.256L424.968 132.088C424.968 132.087 418.247 124.137 409.187 119.291Z" fill="#FF8F6A"/>
<path d="M409.186 119.289C409.186 119.289 419.306 127.002 421.198 134.521L424.965 132.084C424.966 132.084 418.456 124.451 409.186 119.289Z" fill="#F55A29"/>
<path d="M503.842 142.553C503.842 142.553 495.391 146.63 489.526 157.61L487.77 152.471C487.77 152.471 495.09 143.08 503.65 141.667L503.842 142.553Z" fill="#F55A29"/>
<path d="M443.674 128.896L445.74 120.869L440.588 128.177C440.589 128.177 444.347 126.705 443.674 128.896Z" fill="#BC3043"/>
<path d="M484.791 150.646V136.46L488.633 145.75C488.634 145.751 486.126 148.084 484.791 150.646Z" fill="#BC3043"/>
<path d="M449.112 215.469L434.153 205.566C434.153 205.566 425.125 237.596 445.02 244.652L449.112 215.469Z" fill="#113952"/>
<path d="M414.557 370.745L436.749 365.267V372.43L415.084 377.486L414.557 370.745Z" fill="#B3D1CE"/>
<path d="M484.09 366.952L485.986 374.43L510.004 366.424L508.108 359.367L484.09 366.952Z" fill="#B3D1CE"/>
<path d="M420.506 376.223L421.586 396.308L433.104 393.64V373.282L420.506 376.223Z" fill="#FF8F6A"/>
<path d="M492.295 372.326L497.046 392.934L508.107 388.58L504.209 368.355L492.295 372.326Z" fill="#FF8F6A"/>
<path d="M421.586 396.308L433.104 393.639L434.579 425.945H397.708C397.708 425.945 397.393 420.151 406.662 418.465C415.932 416.779 421.657 411.442 421.586 396.308Z" fill="#499DA0"/>
<path d="M497.042 392.938C497.042 392.938 495.146 394.87 497.042 395.922C498.939 396.974 501.15 406.35 500.94 407.826C500.729 409.301 498.576 425.945 498.576 425.945H518.075C518.075 425.945 519.585 421.204 518.847 420.046C518.11 418.888 511.578 405.403 510.735 400.558C509.892 395.713 508.101 388.583 508.101 388.583C508.101 388.583 500.94 388.9 497.042 392.938Z" fill="#499DA0"/>
<path d="M473.736 134.526C476.398 134.526 478.556 132.368 478.556 129.706C478.556 127.044 476.398 124.885 473.736 124.885C471.074 124.885 468.916 127.044 468.916 129.706C468.916 132.368 471.074 134.526 473.736 134.526Z" fill="#FFBA55"/>
<path d="M492.295 372.326L492.598 373.641C492.598 373.641 498.978 371.693 505.229 373.641L504.21 368.355L492.295 372.326Z" fill="#F55A29"/>
<path d="M420.506 376.222C420.506 376.222 429.521 376.537 433.104 379.909V373.282L420.506 376.222Z" fill="#F55A29"/>
<path d="M583.595 395.351C571.852 392.161 551.409 412.894 551.409 412.894C551.409 412.894 565.327 397.236 557.063 396.014C548.799 394.793 536.186 425.943 536.186 425.943H544.884C544.886 418.983 595.34 398.54 583.595 395.351Z" fill="#499DA0"/>
<path d="M569.53 417.241C564.746 415.066 547.783 425.94 547.783 425.94H558.657C558.657 425.941 574.314 419.416 569.53 417.241Z" fill="#499DA0"/>
<path d="M200.551 64.4606C200.518 64.4606 200.483 64.4562 200.449 64.4459C189.297 61.2305 183.841 58.1595 183.787 58.1301C183.61 58.0299 183.55 57.8044 183.65 57.6276C183.749 57.4493 183.976 57.3889 184.152 57.4891C184.205 57.52 189.596 60.5497 200.652 63.7371C200.848 63.7931 200.96 63.9979 200.904 64.1939C200.858 64.356 200.711 64.4606 200.551 64.4606Z" fill="#113952"/>
<path d="M262.761 72.0976C250.128 72.0976 238.122 71.346 226.953 69.8533C226.751 69.8268 226.611 69.6411 226.636 69.4392C226.661 69.2373 226.836 69.087 227.05 69.1239C241.24 71.0204 256.788 71.7189 273.259 71.1928C273.458 71.2046 273.631 71.346 273.639 71.5494C273.645 71.7528 273.486 71.9222 273.282 71.9296C269.732 72.0416 266.222 72.0976 262.761 72.0976Z" fill="#113952"/>
<path d="M274.104 90.3364L275.552 71.4553C275.552 71.4553 276.594 69.6 278.669 71.4553L277.132 90.3364H274.104Z" fill="#5E1212"/>
<path d="M201.68 96.9104C201.68 96.9104 181.751 93.0938 179.582 96.9104C177.414 100.727 146.805 149.574 147.315 150.722C147.825 151.869 161.089 170.596 161.089 170.596L174.494 156.461L169.634 149.064C169.634 149.064 183.408 132.688 185.449 132.906C187.489 133.122 181.878 192.682 181.878 192.682L238.249 189.876L234.678 163.987C234.678 163.987 248.962 179.801 253.299 177.122C257.635 174.443 280.336 121.9 280.336 121.9L259.037 113.227L247.176 141.03C247.176 141.03 246.283 136.056 244.497 141.285C244.497 141.285 236.718 109.529 233.401 108.636C230.085 107.743 213.192 102.075 213.192 102.075L201.68 96.9104Z" fill="#FFBA55"/>
<path d="M195.023 79.1741C195.023 79.1741 191.38 74.2302 192.145 71.5527C192.909 68.8737 200.945 64.2835 200.945 64.2835C200.945 64.2835 197.788 63.1356 198.745 59.5002C199.701 55.8649 204.77 55.1959 205.441 58.0649C205.441 58.0649 205.92 51.6415 210.606 51.0757C215.293 50.5084 218.831 53.1873 219.023 57.2044C219.023 57.2044 221.796 55.8649 222.848 59.0213C222.848 59.0213 229.736 60.934 228.396 66.4821C227.057 72.0302 222.371 71.647 222.371 71.647C222.371 71.647 222.965 74.8889 219.751 74.9906L195.023 79.1741Z" fill="#5E1212"/>
<path d="M219.687 72.6243C213.825 74.229 209.22 67.9486 209.22 67.9486C209.429 72.4843 205.452 72.6243 205.452 72.6243C206.022 74.5326 205.774 75.9605 205.288 76.9891C204.251 75.5346 202.559 74.5783 200.636 74.5783C197.475 74.5783 194.914 77.1409 194.914 80.3002C194.914 83.4611 197.477 86.0222 200.636 86.0222C201.152 86.0222 201.641 85.9323 202.116 85.8041C202.192 86.2182 202.278 86.6411 202.381 87.0685C202.939 89.3717 205.102 89.7194 205.312 90.8364C205.521 91.9534 201.684 96.9076 201.684 96.9076C206.499 105.421 213.198 102.071 213.198 102.071C213.198 95.0229 215.152 91.7427 217.805 91.7427C220.454 91.7442 219.687 72.6243 219.687 72.6243Z" fill="#FF8F6A"/>
<path d="M203.623 82.2646C203.623 82.2646 200.658 75.1869 196.545 78.725L203.623 82.2646Z" fill="#F55A29"/>
<path d="M216.418 92.0806C212.101 93.2654 206.873 90.7146 206.873 90.7146C206.873 90.7146 208.51 96.5648 213.59 97.2117C213.59 97.2117 214.175 93.202 216.418 92.0806Z" fill="#F55A29"/>
<path d="M210.306 81.5466C210.235 83.1705 214.227 83.3164 214.037 81.5466C213.844 79.7769 210.353 80.4473 210.306 81.5466Z" fill="#F55A29"/>
<path d="M218.493 80.7561C218.444 81.8834 221.213 81.9836 221.08 80.7561C220.948 79.5286 218.525 79.9942 218.493 80.7561Z" fill="#F55A29"/>
<path d="M211.77 79.1727C212.167 79.1727 212.489 78.8508 212.489 78.4536C212.489 78.0565 212.167 77.7345 211.77 77.7345C211.373 77.7345 211.051 78.0565 211.051 78.4536C211.051 78.8508 211.373 79.1727 211.77 79.1727Z" fill="#5E1212"/>
<path d="M218.754 78.6942C219.151 78.6942 219.473 78.3722 219.473 77.9751C219.473 77.5779 219.151 77.256 218.754 77.256C218.357 77.256 218.035 77.5779 218.035 77.9751C218.035 78.3722 218.357 78.6942 218.754 78.6942Z" fill="#5E1212"/>
<path d="M171.383 159.743C171.383 159.743 174.581 165.55 176.61 166.266C178.639 166.982 178.639 166.982 178.639 166.982H184.088L183.913 169.132C183.913 169.132 186.238 170.126 188.148 169.648C190.058 169.171 192.127 169.807 192.525 171.319C192.525 171.319 189.262 172.354 185.204 171.797C185.204 171.797 191.809 172.354 191.888 174.502C191.888 174.502 188.387 174.9 185.045 174.502C185.045 174.502 192.604 174.741 192.525 177.287C192.525 177.287 187.772 176.97 185.522 176.889C185.522 176.889 190.058 179.913 189.103 183.494C189.103 183.494 186.557 179.356 183.931 179.197C181.305 179.038 172.681 176.014 171.383 174.025C170.085 172.035 165.232 166.422 165.232 166.422L171.383 159.743Z" fill="#FF8F6A"/>
<path d="M201.211 96.8227L202.533 95.769L209.459 102.723L206.492 108.379L201.211 96.8227Z" fill="#F7E4CB"/>
<path d="M209.459 102.724L210.797 107.71L214.043 102.358L213.239 100.351L209.459 102.724Z" fill="#F7E4CB"/>
<path d="M174.495 156.459L176.649 159.647L163.257 174.187L161.09 170.594L174.495 156.459Z" fill="#F7E4CB"/>
<path d="M259.039 113.224L280.338 121.897L281.868 117.56L260.825 108.951L259.039 113.224Z" fill="#F7E4CB"/>
<path d="M266.266 111.156C266.266 111.156 268.606 107.365 268.19 103.798C267.775 100.229 267.775 100.229 267.775 100.229C267.775 100.229 267.748 95.1376 269.995 94.442C271.439 93.9941 272.381 92.743 272.867 91.9075C273.205 91.3283 273.611 90.792 274.107 90.3381L276.532 88.1159C276.532 88.1159 279.989 86.464 279.572 89.3036C279.157 92.1432 278.511 94.4023 278.511 94.4023C278.511 94.4023 280.864 93.3206 281.144 95.8169C281.144 95.8169 283.756 95.0683 283.09 98.4812C283.09 98.4812 285.503 99.4803 284.671 102.143C283.838 104.807 280.343 108.552 278.511 109.468C276.679 110.385 275.299 114.851 275.299 114.851L266.266 111.156Z" fill="#FF8F6A"/>
<path d="M234.68 163.984L231.938 144.344C231.938 144.344 239.833 167.773 243.585 172.606C243.586 172.605 236.131 165.738 234.68 163.984Z" fill="#E49524"/>
<path d="M184.723 133.17C187.552 130.951 191.569 129.421 191.569 129.421L185.891 136.213C185.891 136.212 186.159 132.074 184.723 133.17Z" fill="#E49524"/>
<path d="M184.727 192.679L171.807 372.251L198.844 369.191L204.71 302.107C204.71 302.107 202.415 300.321 202.67 299.556C202.924 298.791 206.495 297.26 206.495 294.964C206.495 292.668 206.495 292.668 206.495 292.668L210.32 235.022L226.135 292.668L242.459 369.191L265.671 363.069C265.671 363.069 242.459 237.829 239.399 220.993C236.338 204.159 233.289 190.121 233.289 190.121L184.727 192.679Z" fill="#376F92"/>
<path d="M210.32 235.019L212.106 207.726C212.106 207.726 231.234 241.837 217.588 261.513L210.32 235.019Z" fill="#113952"/>
<path d="M171.803 372.25L198.841 369.189L197.884 375.247L170.91 378.881L171.803 372.25Z" fill="#B3D1CE"/>
<path d="M242.459 369.191L243.224 374.038L266.563 369.191L265.671 363.068L242.459 369.191Z" fill="#B3D1CE"/>
<path d="M248.312 372.979L251.83 393.039L263.882 389.595L261.058 370.332L248.312 372.979Z" fill="#FF8F6A"/>
<path d="M176.436 378.139V395.145L187.937 393.04L190.003 376.311L176.436 378.139Z" fill="#FF8F6A"/>
<path d="M251.83 393.038L253.743 425.942H293.917C293.917 425.942 293.534 418.481 281.483 416.185C269.432 413.889 266.046 404.343 263.883 389.594L251.83 393.038Z" fill="#F63C51"/>
<path d="M176.435 395.142C176.435 395.142 182.963 389.402 187.936 393.038C187.936 393.038 188.509 399.925 189.084 405.282C189.657 410.638 190.003 425.943 190.003 425.943H170.91C170.91 425.943 171.483 419.247 173.779 414.082C176.075 408.917 176.075 408.917 176.075 408.917L176.435 395.142Z" fill="#F63C51"/>
<path d="M266.647 110.461C266.647 110.461 271.516 112.744 276.277 112.379L275.299 114.851L266.266 111.155L266.647 110.461Z" fill="#F55A29"/>
<path d="M169.123 171.058C169.123 171.058 170.647 166.584 173.934 163.712L173.479 163.085L167.713 169.346L169.123 171.058Z" fill="#F55A29"/>
<path d="M176.436 379.362C176.436 379.362 184.393 378.074 189.385 381.316L190.004 376.311L176.436 378.139V379.362Z" fill="#F55A29"/>
<path d="M248.312 372.979L248.915 376.42C248.915 376.42 253.504 371.578 261.227 371.499L261.056 370.332L248.312 372.979Z" fill="#F55A29"/>
<path d="M277.108 97.0694H277.08C277.098 96.9765 277.136 96.8911 277.136 96.7923C277.136 95.92 276.429 95.2141 275.557 95.2141C274.684 95.2141 273.979 95.9214 273.979 96.7923C273.979 96.8911 274.017 96.9765 274.035 97.0694H274.006C274.006 97.0694 274.752 101.857 275.01 101.857C275.277 101.857 276.865 97.6249 276.865 97.6249C276.951 97.4908 277.013 97.3493 277.055 97.1917L277.108 97.0694Z" fill="#5E1212"/>
<path opacity="0.6" d="M569.441 177.185H438.165C433.629 177.185 429.951 173.507 429.951 168.971V111.626C429.951 107.091 433.629 103.413 438.165 103.413H569.441C573.977 103.413 577.655 107.091 577.655 111.626V168.971C577.655 173.507 573.979 177.185 569.441 177.185Z" fill="#B3D1CE"/>
<g clip-path="url(#clip0_1810_2156)">
<path d="M526.65 120.35C525.803 119.502 524.785 119.078 523.595 119.078H480.327C479.137 119.078 478.119 119.502 477.271 120.35C476.423 121.198 476 122.218 476 123.41V156.335C476 157.526 476.423 158.546 477.271 159.395C478.119 160.243 479.137 160.667 480.327 160.667H523.595C524.785 160.667 525.803 160.243 526.651 159.395C527.498 158.546 527.922 157.527 527.922 156.335V123.41C527.922 122.218 527.498 121.198 526.65 120.35ZM524.46 156.335C524.46 156.57 524.375 156.772 524.203 156.944C524.032 157.115 523.829 157.201 523.595 157.201H480.327C480.093 157.201 479.89 157.115 479.718 156.944C479.547 156.772 479.462 156.57 479.462 156.335V123.409C479.462 123.175 479.547 122.972 479.718 122.8C479.89 122.629 480.093 122.543 480.327 122.543H523.595C523.829 122.543 524.032 122.629 524.203 122.8C524.374 122.972 524.46 123.175 524.46 123.409V156.335Z" fill="white"/>
<path fill-rule="evenodd" clip-rule="evenodd" d="M511.64 132.515C513.449 132.515 514.915 130.936 514.915 128.988C514.915 127.04 513.449 125.461 511.64 125.461C509.832 125.461 508.366 127.04 508.366 128.988C508.366 130.936 509.832 132.515 511.64 132.515ZM502.581 153.87H484.685C483.141 153.87 482.179 152.196 482.957 150.862L494.587 130.923C495.348 129.62 497.221 129.596 498.013 130.88C500.116 134.287 503.759 140.201 506.931 145.413L510.084 139.975C510.825 138.698 512.637 138.646 513.457 139.877L520.715 150.779C521.599 152.105 520.673 153.886 519.091 153.902L512.04 153.976L502.581 153.87Z" fill="white"/>
</g>
<path opacity="0.6" d="M401.297 142.538H334.798C330.262 142.538 326.584 138.86 326.584 134.324V88.4088C326.584 83.873 330.262 80.1949 334.798 80.1949H401.297C405.832 80.1949 409.51 83.873 409.51 88.4088V134.324C409.51 138.86 405.834 142.538 401.297 142.538Z" fill="#B3D1CE"/>
<path fill-rule="evenodd" clip-rule="evenodd" d="M368 96.9996C363.958 96.9996 360.667 100.289 360.667 104.333C360.667 108.377 363.958 111.666 368 111.666C372.045 111.666 375.334 108.377 375.334 104.333C375.334 100.289 372.045 96.9996 368 96.9996ZM354.131 122.621C353.639 123.761 354.601 125 355.903 125H380.097C381.399 125 382.361 123.761 381.869 122.621C379.591 117.352 374.237 114.333 367.999 114.333C361.763 114.333 356.409 117.352 354.131 122.621Z" fill="white"/>
<path opacity="0.6" d="M301.472 168.802H192.581C188.045 168.802 184.367 165.124 184.367 160.588V110.021C184.367 105.485 188.045 101.807 192.581 101.807H301.472C306.008 101.807 309.686 105.485 309.686 110.021V160.588C309.687 165.124 306.009 168.802 301.472 168.802Z" fill="#B3D1CE"/>
<rect x="225" y="126" width="80" height="3" rx="1.5" fill="white"/>
<rect x="225" y="134" width="80" height="3" rx="1.5" fill="white"/>
<rect x="225" y="142" width="80" height="3" rx="1.5" fill="white"/>
<rect x="225" y="114" width="39" height="5" rx="2.5" fill="white"/>
<path d="M218 125C218 132.179 212.18 138 205 138C197.82 138 192 132.179 192 125C192 117.82 197.82 112 205 112C212.18 112 218 117.82 218 125Z" fill="#D1C89E" stroke="white" stroke-width="2"/>
<path fill-rule="evenodd" clip-rule="evenodd" d="M205.499 119C203.911 119 202.618 120.292 202.618 121.881C202.618 123.469 203.911 124.762 205.499 124.762C207.088 124.762 208.38 123.469 208.38 121.881C208.38 120.292 207.088 119 205.499 119ZM200.051 129.065C199.858 129.512 200.236 129.999 200.748 129.999H210.252C210.764 129.999 211.142 129.512 210.949 129.065C210.053 126.995 207.95 125.809 205.5 125.809C203.05 125.809 200.947 126.995 200.051 129.065Z" fill="white"/>
<path opacity="0.6" d="M401.297 256.505H334.798C330.262 256.505 326.584 252.827 326.584 248.291V158.892C326.584 154.356 330.262 150.678 334.798 150.678H401.297C405.832 150.678 409.51 154.356 409.51 158.892V248.291C409.51 252.827 405.834 256.505 401.297 256.505Z" fill="#B3D1CE"/>
<rect x="338" y="231" width="60" height="10" rx="2" fill="#6EB3FF"/>
<rect x="360" y="235" width="18" height="2" rx="1" fill="white"/>
<rect x="340" y="209" width="56" height="3" rx="1.5" fill="white"/>
<rect x="340" y="216" width="56" height="3" rx="1.5" fill="white"/>
<rect x="349" y="199" width="39" height="5" rx="2.5" fill="white"/>
<path fill-rule="evenodd" clip-rule="evenodd" d="M368.433 162.572C368.193 161.808 367.806 161.81 367.567 162.572L364.84 171.263L356.684 171.774C355.888 171.823 355.769 172.24 356.42 172.704L362.93 177.347L360.459 185.221C360.22 185.985 360.554 186.227 361.205 185.766L368 180.954L374.795 185.766C375.444 186.226 375.78 185.983 375.541 185.221L373.07 177.347L379.581 172.704C380.23 172.24 380.112 171.823 379.316 171.774L371.16 171.263L368.433 162.572Z" fill="white"/>
<mask id="mask0_1810_2156" style="mask-type:luminance" maskUnits="userSpaceOnUse" x="356" y="161" width="24" height="25">
<path fill-rule="evenodd" clip-rule="evenodd" d="M368.433 162.572C368.193 161.808 367.806 161.81 367.567 162.572L364.84 171.263L356.684 171.774C355.888 171.823 355.769 172.24 356.42 172.704L362.93 177.347L360.459 185.221C360.22 185.985 360.554 186.227 361.205 185.766L368 180.954L374.795 185.766C375.444 186.226 375.78 185.983 375.541 185.221L373.07 177.347L379.581 172.704C380.23 172.24 380.112 171.823 379.316 171.774L371.16 171.263L368.433 162.572Z" fill="white"/>
</mask>
<g mask="url(#mask0_1810_2156)">
</g>
<path opacity="0.6" d="M301.73 285.491H169.253C164.717 285.491 161.039 281.813 161.039 277.278V193.503C161.039 188.967 164.717 185.289 169.253 185.289H301.73C306.266 185.289 309.944 188.967 309.944 193.503V277.278C309.945 281.813 306.267 285.491 301.73 285.491Z" fill="#B3D1CE"/>
<path opacity="0.6" d="M583.81 293.573H436.675C432.139 293.573 428.461 289.895 428.461 285.359V202.877C428.461 198.341 432.139 194.663 436.675 194.663H583.81C588.346 194.663 592.024 198.341 592.024 202.877V285.359C592.025 289.897 588.347 293.573 583.81 293.573Z" fill="#B3D1CE"/>
<path opacity="0.6" d="M160.986 152.765H122.331C117.795 152.765 114.117 149.087 114.117 144.551V110.645C114.117 106.11 117.795 102.432 122.331 102.432H160.986C165.522 102.432 169.2 106.11 169.2 110.645V144.551C169.2 149.087 165.523 152.765 160.986 152.765Z" fill="#B3D1CE"/>
<path d="M494.198 244.119L494.276 225.549L510.319 234.9L526.362 244.252L510.242 253.47L494.121 262.689L494.198 244.119Z" fill="white"/>
<path d="M134.082 127.598L134.117 118.828L141.694 123.245L149.27 127.661L141.657 132.014L134.045 136.367L134.082 127.598Z" fill="white"/>
<path opacity="0.6" d="M198.632 230.678H176.635C173.873 230.678 171.635 228.44 171.635 225.678V203.681C171.635 200.919 173.873 198.681 176.635 198.681H198.632C201.394 198.681 203.632 200.919 203.632 203.681V225.678C203.632 228.44 201.394 230.678 198.632 230.678Z" fill="white"/>
<path opacity="0.6" d="M288.174 275.226H270.582C267.82 275.226 265.582 272.987 265.582 270.226V243.853C265.582 241.092 267.82 238.853 270.582 238.853H288.174C290.935 238.853 293.174 241.092 293.174 243.853V270.226C293.174 272.987 290.935 275.226 288.174 275.226Z" fill="white"/>
<path d="M294.581 201.631H209.376C209.173 201.631 209.008 201.466 209.008 201.262C209.008 201.059 209.173 200.894 209.376 200.894H294.581C294.784 200.894 294.949 201.059 294.949 201.262C294.949 201.466 294.784 201.631 294.581 201.631Z" fill="white"/>
<path d="M294.581 210.567H209.376C209.173 210.567 209.008 210.402 209.008 210.199C209.008 209.996 209.173 209.831 209.376 209.831H294.581C294.784 209.831 294.949 209.996 294.949 210.199C294.949 210.402 294.784 210.567 294.581 210.567Z" fill="white"/>
<path d="M294.581 219.501H209.376C209.173 219.501 209.008 219.336 209.008 219.133C209.008 218.93 209.173 218.765 209.376 218.765H294.581C294.784 218.765 294.949 218.93 294.949 219.133C294.949 219.336 294.784 219.501 294.581 219.501Z" fill="white"/>
<path d="M294.581 228.438H209.376C209.173 228.438 209.008 228.273 209.008 228.07C209.008 227.866 209.173 227.701 209.376 227.701H294.581C294.784 227.701 294.949 227.866 294.949 228.07C294.949 228.273 294.784 228.438 294.581 228.438Z" fill="white"/>
<path d="M258.23 239.219H173.027C172.823 239.219 172.658 239.054 172.658 238.851C172.658 238.648 172.823 238.483 173.027 238.483H258.23C258.433 238.483 258.598 238.648 258.598 238.851C258.598 239.054 258.433 239.219 258.23 239.219Z" fill="white"/>
<path d="M258.23 251.344H173.027C172.823 251.344 172.658 251.179 172.658 250.976C172.658 250.772 172.823 250.607 173.027 250.607H258.23C258.433 250.607 258.598 250.772 258.598 250.976C258.598 251.179 258.433 251.344 258.23 251.344Z" fill="white"/>
<path d="M258.23 263.467H173.027C172.823 263.467 172.658 263.302 172.658 263.099C172.658 262.896 172.823 262.731 173.027 262.731H258.23C258.433 262.731 258.598 262.896 258.598 263.099C258.598 263.302 258.433 263.467 258.23 263.467Z" fill="white"/>
<path d="M258.23 275.592H173.027C172.823 275.592 172.658 275.427 172.658 275.224C172.658 275.02 172.823 274.855 173.027 274.855H258.23C258.433 274.855 258.598 275.02 258.598 275.224C258.598 275.427 258.433 275.592 258.23 275.592Z" fill="white"/>
<path d="M502.413 333.109C502.297 333.109 502.183 333.054 502.111 332.951C501.995 332.785 502.036 332.555 502.202 332.438C517.416 321.83 530.917 309.506 542.33 295.811C542.461 295.656 542.694 295.634 542.85 295.764C543.006 295.893 543.027 296.126 542.897 296.282C531.441 310.028 517.89 322.396 502.622 333.043C502.561 333.088 502.487 333.109 502.413 333.109Z" fill="#113952"/>
<path d="M480.058 346.825C479.927 346.825 479.8 346.754 479.733 346.63C479.638 346.451 479.703 346.228 479.884 346.132C487.644 341.965 495.155 337.359 502.209 332.441C502.373 332.326 502.606 332.365 502.722 332.533C502.838 332.699 502.797 332.929 502.631 333.045C495.553 337.979 488.019 342.6 480.234 346.781C480.178 346.81 480.117 346.825 480.058 346.825Z" fill="white"/>
<path d="M439.672 364.025C439.518 364.025 439.373 363.926 439.323 363.772C439.26 363.579 439.364 363.371 439.557 363.307C453.708 358.679 467.274 352.901 479.878 346.133C480.053 346.037 480.279 346.103 480.377 346.283C480.472 346.463 480.407 346.685 480.226 346.781C467.584 353.569 453.978 359.366 439.787 364.007C439.749 364.019 439.709 364.025 439.672 364.025Z" fill="#113952"/>
<path d="M410.754 371.746C410.583 371.746 410.429 371.626 410.392 371.453C410.351 371.254 410.479 371.058 410.677 371.016C420.518 368.952 430.234 366.357 439.562 363.306C439.764 363.245 439.965 363.349 440.026 363.542C440.09 363.735 439.985 363.943 439.792 364.006C430.439 367.066 420.694 369.667 410.83 371.737C410.804 371.744 410.779 371.746 410.754 371.746Z" fill="white"/>
<path d="M348.898 378.038C321.507 378.038 293.609 374.506 266.169 367.466C265.972 367.416 265.854 367.216 265.904 367.018C265.954 366.821 266.152 366.705 266.354 366.753C314.817 379.186 364.722 380.658 410.674 371.016C410.88 370.971 411.069 371.103 411.112 371.301C411.153 371.5 411.025 371.696 410.827 371.737C390.787 375.941 369.991 378.038 348.898 378.038Z" fill="#113952"/>
<path d="M266.258 367.48C266.227 367.48 266.197 367.477 266.167 367.468C257.493 365.243 248.772 362.639 240.245 359.73C240.053 359.664 239.95 359.454 240.016 359.263C240.081 359.071 240.284 358.971 240.483 359.033C248.992 361.937 257.695 364.535 266.351 366.756C266.548 366.806 266.666 367.007 266.616 367.204C266.572 367.369 266.423 367.48 266.258 367.48Z" fill="white"/>
<path d="M240.368 359.748C240.33 359.748 240.289 359.742 240.249 359.728C227.654 355.428 215.137 350.342 203.042 344.608C202.859 344.521 202.78 344.301 202.868 344.117C202.954 343.933 203.173 343.858 203.359 343.942C215.426 349.664 227.919 354.74 240.488 359.03C240.681 359.096 240.782 359.305 240.716 359.497C240.664 359.652 240.521 359.748 240.368 359.748Z" fill="#113952"/>
<path d="M172.34 327.752C182.477 333.832 192.78 339.336 203.198 344.276L172.34 327.752Z" fill="white"/>
<path d="M172.339 328.121C172.274 328.121 172.209 328.105 172.148 328.068C166.037 324.403 159.952 320.503 154.06 316.477C101.093 280.291 76.7879 256.229 81.8246 244.956C84.7262 238.462 97.0026 236.387 118.312 238.789C134.078 240.566 149.205 244.258 149.355 244.295C149.552 244.343 149.673 244.542 149.626 244.74C149.577 244.937 149.373 245.059 149.18 245.009C148.58 244.862 89.116 230.444 82.4966 245.255C77.6279 256.155 101.845 279.914 154.474 315.867C160.355 319.885 166.428 323.777 172.529 327.435C172.703 327.539 172.759 327.766 172.655 327.94C172.586 328.056 172.464 328.121 172.339 328.121Z" fill="#113952"/>
<defs>
<clipPath id="clip0_1810_2156">
<rect width="52" height="42" fill="white" transform="translate(476 119)"/>
</clipPath>
</defs>
</svg>
