<svg width="32" height="24" viewBox="0 0 32 24" fill="none" xmlns="http://www.w3.org/2000/svg">
<path d="M0 12C0 14.747 0 22 0 22C0 22 7.24264 22 10.0255 22C15.5625 22 20.051 17.5229 20.051 12C20.051 6.47715 15.5625 2 10.0255 2C4.48857 2 0 6.47715 0 12Z" fill="#334652"/>
<path d="M32 12C32 14.747 32 22 32 22C32 22 24.7573 22 21.9745 22C16.4375 22 11.949 17.5229 11.949 12C11.949 6.47715 16.4375 2 21.9745 2C27.5115 2 32 6.47715 32 12Z" fill="#E4E8EB"/>
<path fill-rule="evenodd" clip-rule="evenodd" d="M16 20.0312C13.5417 18.2088 11.949 15.29 11.949 12.0001C11.949 8.71015 13.5417 5.79132 16 3.96887C18.4583 5.79132 20.0511 8.71015 20.0511 12.0001C20.0511 15.29 18.4583 18.2088 16 20.0312Z" fill="#C9D1D6"/>
</svg>
