<?xml version="1.0" standalone="no"?>
<!DOCTYPE svg PUBLIC "-//W3C//DTD SVG 20010904//EN"
 "http://www.w3.org/TR/2001/REC-SVG-20010904/DTD/svg10.dtd">
<svg version="1.0" xmlns="http://www.w3.org/2000/svg"
 width="215.000000pt" height="10.000000pt" viewBox="0 0 215.000000 60.000000"
 preserveAspectRatio="xMidYMid meet">

<g transform="translate(0.000000,60.000000) scale(0.100000,-0.100000)"
fill="#000000" stroke="none">
<path d="M309 572 c-48 -39 -16 -122 48 -122 29 0 73 41 73 68 0 11 -9 31 -21
46 -25 31 -66 35 -100 8z"/>
<path d="M129 446 c65 -117 55 -151 -48 -163 -57 -7 -80 -18 -66 -32 19 -17
118 -41 175 -41 71 0 93 -21 119 -113 21 -72 28 -87 41 -87 18 0 20 38 9 131
-7 53 -9 108 -5 122 4 16 30 42 71 72 62 44 104 90 92 101 -3 3 -31 -8 -62
-25 -32 -17 -70 -31 -84 -31 -15 0 -76 30 -141 70 -63 39 -121 70 -128 70 -9
0 1 -26 27 -74z"/>
<path d="M950 413 c-55 -29 -80 -75 -80 -148 0 -73 25 -119 80 -148 43 -22
111 -18 149 10 81 60 81 216 0 276 -38 28 -106 32 -149 10z m140 -38 c50 -45
49 -167 0 -217 -36 -36 -103 -39 -143 -7 -66 51 -55 209 16 239 32 14 105 5
127 -15z"/>
<path d="M1617 416 c-20 -8 -43 -19 -51 -25 -45 -37 -60 -149 -28 -210 29 -57
64 -76 140 -76 101 0 102 1 102 90 l0 75 -50 0 c-38 0 -50 -4 -50 -15 0 -11
11 -15 36 -15 l35 0 -3 -52 -3 -53 -49 -3 c-86 -6 -129 27 -142 106 -8 50 9
102 42 133 23 21 34 24 100 23 50 -1 74 2 71 9 -8 26 -93 33 -150 13z"/>
<path d="M1931 413 c-54 -28 -75 -64 -79 -136 -6 -109 46 -172 143 -172 90 0
150 67 148 167 -2 116 -116 192 -212 141z m128 -29 c68 -48 66 -194 -3 -240
-38 -24 -113 -14 -143 20 -49 57 -38 181 20 216 39 24 94 26 126 4z"/>
<path d="M760 254 c0 -95 -4 -174 -10 -185 -7 -12 -21 -19 -41 -19 -20 0 -29
-4 -27 -12 7 -22 53 -20 81 2 l27 21 0 180 c0 152 -2 179 -15 179 -13 0 -15
-25 -15 -166z"/>
<path d="M1240 265 l0 -155 75 0 c87 0 119 12 135 51 17 40 5 76 -33 99 -17
11 -26 20 -19 20 21 0 52 39 52 65 0 14 -11 37 -25 50 -22 22 -32 25 -105 25
l-80 0 0 -155z m155 115 c19 -16 20 -64 1 -79 -7 -6 -38 -12 -67 -14 l-54 -2
-3 44 c-5 68 1 74 58 69 27 -3 56 -11 65 -18z m3 -136 c26 -18 30 -75 6 -95
-9 -7 -42 -15 -75 -17 l-59 -4 0 66 0 66 53 0 c31 0 61 -6 75 -16z"/>
</g>
</svg>
