<svg  width="90px" height="29px" viewBox="0 0 322 113" fill="none" xmlns="http://www.w3.org/2000/svg">
<path d="M214.291 90.99C209.671 90.99 205.321 90.15 201.241 88.47C197.221 86.79 193.711 84.48 190.711 81.54C187.711 78.54 185.341 75.06 183.601 71.1C181.921 67.08 181.081 62.76 181.081 58.14C181.081 53.52 181.951 49.23 183.691 45.27C185.431 41.31 187.831 37.86 190.891 34.92C194.011 31.92 197.641 29.61 201.781 27.99C205.921 26.31 210.361 25.47 215.101 25.47C220.561 25.47 225.511 26.46 229.951 28.44C234.451 30.42 238.171 33.15 241.111 36.63L231.481 46.26C229.441 43.62 227.041 41.64 224.281 40.32C221.521 39 218.401 38.34 214.921 38.34C211.201 38.34 207.871 39.18 204.931 40.86C201.991 42.48 199.681 44.79 198.001 47.79C196.381 50.73 195.571 54.18 195.571 58.14C195.571 62.1 196.381 65.58 198.001 68.58C199.621 71.58 201.841 73.92 204.661 75.6C207.481 77.28 210.721 78.12 214.381 78.12C218.101 78.12 221.251 77.43 223.831 76.05C226.471 74.61 228.481 72.57 229.861 69.93C231.301 67.23 232.021 63.96 232.021 60.12L241.381 66.42L213.031 65.97V54H246.421V56.07C246.421 63.69 245.041 70.11 242.281 75.33C239.581 80.49 235.801 84.39 230.941 87.03C226.141 89.67 220.591 90.99 214.291 90.99Z" fill="white"/>
<path d="M137.465 90V79.02H152.405C155.165 79.02 157.325 78.21 158.885 76.59C160.445 74.97 161.225 72.99 161.225 70.65C161.225 69.03 160.865 67.59 160.145 66.33C159.425 65.07 158.405 64.08 157.085 63.36C155.825 62.64 154.265 62.28 152.405 62.28H137.465V51.57H151.235C153.575 51.57 155.465 51 156.905 49.86C158.345 48.66 159.065 46.86 159.065 44.46C159.065 42.12 158.345 40.38 156.905 39.24C155.465 38.04 153.575 37.44 151.235 37.44H137.465V26.46H153.935C158.015 26.46 161.465 27.21 164.285 28.71C167.165 30.21 169.355 32.22 170.855 34.74C172.355 37.26 173.105 40.05 173.105 43.11C173.105 47.01 171.845 50.31 169.325 53.01C166.805 55.71 163.085 57.57 158.165 58.59L158.525 53.82C163.865 54.84 167.975 56.91 170.855 60.03C173.795 63.15 175.265 66.99 175.265 71.55C175.265 75.03 174.395 78.18 172.655 81C170.975 83.76 168.515 85.95 165.275 87.57C162.095 89.19 158.255 90 153.755 90H137.465ZM126.665 90V26.46H140.615V90H126.665Z" fill="white"/>
<path d="M84.4853 91.08C79.6853 91.08 75.2453 90.24 71.1653 88.56C67.1453 86.88 63.6053 84.54 60.5453 81.54C57.4853 78.54 55.1153 75.06 53.4353 71.1C51.7553 67.08 50.9153 62.76 50.9153 58.14C50.9153 53.46 51.7553 49.14 53.4353 45.18C55.1153 41.22 57.4553 37.77 60.4553 34.83C63.4553 31.83 66.9653 29.52 70.9853 27.9C75.0653 26.22 79.5053 25.38 84.3053 25.38C89.0453 25.38 93.4253 26.22 97.4453 27.9C101.525 29.52 105.065 31.83 108.065 34.83C111.125 37.77 113.495 41.25 115.175 45.27C116.855 49.23 117.695 53.55 117.695 58.23C117.695 62.85 116.855 67.17 115.175 71.19C113.495 75.15 111.155 78.63 108.155 81.63C105.155 84.57 101.615 86.88 97.5353 88.56C93.5153 90.24 89.1653 91.08 84.4853 91.08ZM84.3053 78.21C88.0853 78.21 91.3853 77.37 94.2053 75.69C97.0853 74.01 99.3053 71.67 100.865 68.67C102.425 65.61 103.205 62.1 103.205 58.14C103.205 55.14 102.755 52.44 101.855 50.04C100.955 47.58 99.6653 45.48 97.9853 43.74C96.3053 41.94 94.2953 40.59 91.9553 39.69C89.6753 38.73 87.1253 38.25 84.3053 38.25C80.5253 38.25 77.1953 39.09 74.3153 40.77C71.4953 42.39 69.3053 44.7 67.7453 47.7C66.1853 50.64 65.4053 54.12 65.4053 58.14C65.4053 61.14 65.8553 63.87 66.7553 66.33C67.6553 68.79 68.9153 70.92 70.5353 72.72C72.2153 74.46 74.2253 75.81 76.5653 76.77C78.9053 77.73 81.4853 78.21 84.3053 78.21Z" fill="white"/>
<path d="M19.4848 90.99C15.4648 90.99 11.9548 90.27 8.95478 88.83C6.01478 87.33 3.49478 85.26 1.39478 82.62L10.8448 73.53C11.9248 75.03 13.1848 76.17 14.6248 76.95C16.1248 77.73 17.8048 78.12 19.6648 78.12C21.4648 78.12 23.0248 77.76 24.3448 77.04C25.6648 76.26 26.7148 75.18 27.4948 73.8C28.2748 72.36 28.6648 70.59 28.6648 68.49V26.46H42.8848V67.68C42.8848 72.42 41.9248 76.53 40.0048 80.01C38.0848 83.49 35.3848 86.19 31.9048 88.11C28.4248 90.03 24.2848 90.99 19.4848 90.99Z" fill="white"/>
<path fill-rule="evenodd" clip-rule="evenodd" d="M288.5 90C307.002 90 322 75.0015 322 56.5C322 37.9985 307.002 23 288.5 23C269.998 23 255 37.9985 255 56.5C255 75.0015 269.998 90 288.5 90ZM289.366 77.9112C277.717 77.9112 268.245 68.5905 268 57H310.732C310.487 68.5905 301.015 77.9112 289.366 77.9112Z" fill="white"/>
<path fill-rule="evenodd" clip-rule="evenodd" d="M274.753 72.147C284.759 67.0337 296.508 68.3272 304.479 71.9218C301.978 74.3513 298.888 76.1779 295.445 77.167C293.556 77.7094 291.561 78 289.498 78C283.79 78 278.602 75.7759 274.753 72.147Z" fill="#808182"/>
/g>
</svg>
