<?xml version="1.0" encoding="UTF-8"?>
<!DOCTYPE svg PUBLIC "-//W3C//DTD SVG 1.1//EN" "http://www.w3.org/Graphics/SVG/1.1/DTD/svg11.dtd">
<svg xmlns="http://www.w3.org/2000/svg" version="1.1" width="54px" height="59px" style="shape-rendering:geometricPrecision; text-rendering:geometricPrecision; image-rendering:optimizeQuality; fill-rule:evenodd; clip-rule:evenodd" xmlns:xlink="http://www.w3.org/1999/xlink">
<g><path style="opacity:1" fill="#616261" d="M 31.5,-0.5 C 33.8333,-0.5 36.1667,-0.5 38.5,-0.5C 43.9789,3.42914 44.6456,8.09581 40.5,13.5C 33.3554,17.5139 28.6887,15.5139 26.5,7.5C 27.1767,4.13268 28.8433,1.46601 31.5,-0.5 Z"/></g>
<g><path style="opacity:0.987" fill="#626362" d="M 36.5,58.5 C 34.8333,58.5 33.1667,58.5 31.5,58.5C 30.4908,52.2819 28.4908,46.4486 25.5,41C 19.2291,39.8359 12.8957,38.8359 6.5,38C 3.86077,37.3471 1.52743,36.1804 -0.5,34.5C -0.5,33.8333 -0.5,33.1667 -0.5,32.5C 4.82513,31.2435 9.99179,29.5768 15,27.5C 15.6667,25.5 15.6667,23.5 15,21.5C 11.9406,16.7146 9.4406,11.7146 7.5,6.5C 11.1055,6.79862 14.4388,7.96529 17.5,10C 22.8333,13.3333 28.1667,16.6667 33.5,20C 39.1087,20.3723 44.1087,18.7056 48.5,15C 49.7932,14.51 51.1266,14.3433 52.5,14.5C 52.5086,16.3084 52.0086,17.9751 51,19.5C 46,23.8333 41,28.1667 36,32.5C 35.5884,39.5476 36.0884,46.5476 37.5,53.5C 37.2716,55.2073 36.9383,56.874 36.5,58.5 Z"/></g>
</svg>
