<svg viewBox="0 0 123 91" fill="none" xmlns="http://www.w3.org/2000/svg">
<path d="M100.944 6.17356C82.8067 2.31657 72.7253 17.4269 61.4649 34.1556C61.0432 34.6866 60.769 35.3195 60.6697 35.9904C60.5705 36.6613 60.6498 37.3466 60.8996 37.9771C61.1495 38.6075 61.5611 39.1609 62.0929 39.5814C62.6247 40.0019 63.2578 40.2747 63.9286 40.3721L69.9744 41.6578C70.5946 41.7872 71.183 42.038 71.706 42.3959C72.2289 42.7537 72.676 43.2114 73.0215 43.7427C73.3671 44.2741 73.6043 44.8685 73.7194 45.4919C73.8346 46.1153 73.8255 46.7553 73.6926 47.3752L72.1811 54.8018C70.8208 61.1696 68.9315 67.492 70.7604 73.9808C71.8763 77.9694 74.062 81.5763 77.0806 84.4102C80.0992 87.2442 83.8355 89.1972 87.8843 90.0574C91.9331 90.9176 96.14 90.6522 100.049 89.29C103.958 87.9279 107.419 85.5209 110.058 82.33C113.595 78.1251 115.197 70.6078 116.543 64.1795L121.334 41.4006C124.659 25.8215 119.112 10.0457 100.944 6.17356Z" fill="#354047"/>
<path d="M21.3356 84.3747C39.4731 88.2468 49.5545 73.1365 60.8149 56.3927C61.2368 55.8607 61.5109 55.2266 61.6093 54.5546C61.7078 53.8825 61.6272 53.1964 61.3756 52.5656C61.1241 51.9347 60.7105 51.3816 60.1768 50.962C59.6431 50.5424 59.0081 50.2713 58.3361 50.1761L52.2903 48.8905C51.6715 48.7593 51.0846 48.5073 50.5634 48.1487C50.0422 47.7902 49.5967 47.3322 49.2527 46.801C48.9087 46.2699 48.6728 45.676 48.5586 45.0534C48.4444 44.4309 48.4541 43.7919 48.5872 43.1731L50.0987 35.7616C51.4439 29.3938 53.3483 23.0714 51.5194 16.5826C50.4054 12.5928 48.2211 8.9844 45.2033 6.1487C42.1856 3.31299 38.4496 1.35822 34.4005 0.496402C30.3515 -0.365419 26.1439 -0.101391 22.2341 1.25983C18.3243 2.62105 14.8616 5.0275 12.2215 8.21822C8.66953 12.4382 7.08249 19.9555 5.72218 26.3687L0.885508 49.1325C-2.37925 64.7419 3.1527 80.5026 21.3356 84.3747Z" fill="#354047"/>
</svg>
